<?xml version="1.0" standalone="no"?>
<!DOCTYPE svg PUBLIC "-//W3C//DTD SVG 20010904//EN"
 "http://www.w3.org/TR/2001/REC-SVG-20010904/DTD/svg10.dtd">
<svg version="1.0" xmlns="http://www.w3.org/2000/svg"
 width="512.000000pt" height="512.000000pt" viewBox="0 0 512.000000 512.000000"
 preserveAspectRatio="xMidYMid meet">
<metadata>
Created by potrace 1.16, written by Peter Selinger 2001-2019
</metadata>
<g transform="translate(0.000000,512.000000) scale(0.100000,-0.100000)"
fill="#000000" stroke="none">
<path d="M2428 4606 c-68 -28 -112 -63 -155 -124 -114 -159 -64 -400 103 -498
l44 -26 0 -74 c0 -57 -3 -74 -14 -74 -101 0 -382 -42 -541 -81 -681 -168
-1241 -560 -1579 -1107 -157 -253 -269 -585 -283 -834 -6 -93 -5 -99 21 -138
14 -21 41 -47 58 -57 31 -17 154 -18 2478 -18 2324 0 2447 1 2478 18 17 10 44
36 58 57 26 39 27 45 21 138 -14 249 -126 581 -283 834 -177 286 -445 560
-729 743 -379 244 -802 389 -1274 435 -57 5 -109 10 -117 10 -11 0 -14 17 -14
74 l0 74 44 26 c204 119 221 425 32 575 -91 73 -238 93 -348 47z m-911 -1442
c32 -20 54 -57 60 -101 7 -52 -25 -97 -107 -150 -271 -174 -451 -366 -569
-607 -28 -55 -61 -136 -75 -179 -39 -126 -77 -167 -152 -167 -51 0 -91 25
-114 70 -26 50 -25 57 9 165 120 376 367 689 725 919 48 32 98 61 109 66 27
12 85 3 114 -16z"/>
<path d="M197 1259 c-81 -19 -127 -79 -127 -166 0 -40 15 -79 94 -238 111
-225 144 -268 254 -322 l76 -38 2066 0 2066 0 76 38 c110 54 143 97 254 322
81 164 94 197 94 240 0 66 -32 122 -85 149 l-40 21 -2345 2 c-1347 0 -2361 -3
-2383 -8z"/>
</g>
</svg>
