<?xml version="1.0" standalone="no"?>
<!DOCTYPE svg PUBLIC "-//W3C//DTD SVG 20010904//EN"
 "http://www.w3.org/TR/2001/REC-SVG-20010904/DTD/svg10.dtd">
<svg version="1.0" xmlns="http://www.w3.org/2000/svg"
 width="512.000000pt" height="512.000000pt" viewBox="0 0 512.000000 512.000000"
 preserveAspectRatio="xMidYMid meet">
<metadata>
Created by potrace 1.16, written by Peter Selinger 2001-2019
</metadata>
<g transform="translate(0.000000,512.000000) scale(0.100000,-0.100000)"
fill="#000000" stroke="none">
<path d="M3060 5073 c-39 -14 -94 -61 -117 -100 -17 -30 -27 -64 -31 -108 l-5
-65 -71 0 c-39 0 -596 14 -1238 31 -957 26 -1175 30 -1211 19 -59 -16 -110
-59 -139 -117 -21 -44 -23 -60 -23 -208 0 -156 1 -161 27 -208 l28 -49 -19
-36 c-28 -57 -31 -88 -21 -240 10 -155 18 -182 79 -245 24 -25 53 -43 87 -53
48 -14 120 -9 1265 86 668 55 1220 100 1227 100 8 0 12 -20 12 -63 0 -56 -6
-76 -50 -166 -70 -143 -84 -201 -84 -351 0 -150 15 -214 81 -350 39 -78 48
-107 51 -160 3 -75 -12 -113 -48 -118 -13 -2 -77 -24 -141 -48 -69 -26 -135
-44 -159 -44 -24 0 -90 19 -163 47 -109 41 -131 46 -207 47 -113 1 -162 -23
-298 -148 -136 -126 -172 -137 -312 -96 -65 19 -92 21 -195 16 -136 -5 -237
-28 -357 -80 -146 -63 -294 -167 -311 -219 -17 -52 25 -107 82 -107 10 0 49
25 87 55 83 67 221 136 329 167 107 30 274 32 354 4 73 -25 142 -94 167 -167
27 -78 25 -237 -5 -344 -29 -105 -109 -267 -163 -331 -54 -64 -131 -122 -206
-154 -49 -21 -72 -24 -172 -24 -137 -1 -195 18 -293 93 -127 97 -187 228 -187
405 0 94 -2 104 -23 124 -29 27 -77 28 -108 3 -22 -18 -24 -28 -27 -129 -4
-128 10 -197 65 -315 34 -72 35 -80 24 -116 -8 -27 -42 -73 -106 -143 -53 -57
-107 -127 -121 -155 l-26 -53 -109 0 c-120 0 -163 -12 -213 -58 -42 -40 -66
-98 -66 -164 0 -105 10 -117 283 -374 225 -211 258 -238 335 -277 l85 -42
1543 -3 1542 -2 21 26 c27 34 27 64 0 98 l-20 26 -1467 0 c-904 0 -1490 4
-1526 10 -109 18 -149 46 -401 282 -212 199 -235 224 -235 253 0 18 8 39 18
48 17 16 197 17 2384 17 2278 0 2366 -1 2381 -18 10 -10 17 -32 17 -49 0 -26
-29 -57 -235 -251 -163 -153 -252 -229 -288 -247 -67 -32 -144 -45 -274 -45
-90 0 -106 -3 -123 -20 -27 -27 -27 -83 1 -111 20 -20 29 -21 198 -17 l178 3
85 42 c77 38 110 66 335 277 272 256 283 270 283 372 0 94 -45 168 -125 205
-31 15 -64 19 -151 19 l-112 0 -26 52 c-14 29 -68 99 -120 155 -51 57 -98 116
-104 131 l-10 29 91 6 c115 7 196 34 293 99 117 78 224 229 224 315 0 33 -7
45 -60 95 -55 52 -178 125 -238 140 -23 6 -23 9 -17 70 8 75 -7 180 -37 262
-18 49 -27 61 -57 73 -43 18 -157 12 -242 -13 -169 -50 -324 -191 -385 -351
-9 -23 -21 -40 -26 -37 -6 4 -37 63 -70 133 -32 69 -70 140 -84 158 -13 17
-24 38 -24 46 0 8 22 61 49 118 29 60 56 136 65 181 31 151 13 352 -34 390
-32 26 -76 23 -106 -8 -22 -21 -25 -31 -20 -62 15 -95 18 -215 7 -274 -9 -46
-93 -246 -116 -276 -1 -1 -27 0 -57 4 l-56 6 33 72 c63 135 81 308 49 464 -9
47 -35 118 -67 182 -47 97 -51 110 -51 180 0 70 3 81 46 165 62 122 78 180 85
310 8 148 -12 246 -78 384 -27 57 -49 108 -49 113 0 5 30 8 66 6 l67 -3 13
-53 c8 -29 29 -83 48 -120 52 -100 67 -148 73 -244 8 -119 -8 -192 -73 -329
-47 -100 -55 -126 -61 -196 -6 -78 -5 -82 20 -107 34 -34 85 -35 114 -3 15 16
22 40 25 87 4 51 15 84 51 156 72 143 82 186 82 355 l0 147 70 6 c188 17 194
18 247 50 102 61 139 197 83 307 l-24 49 20 46 c43 95 17 224 -55 279 -55 42
-100 55 -189 55 -47 0 -99 3 -116 6 l-31 7 0 66 c0 88 -36 162 -98 206 -40 28
-50 30 -131 30 -72 0 -91 -3 -116 -21 l-29 -21 -45 24 c-40 21 -57 24 -123 21
-58 -2 -83 -8 -105 -24 l-28 -21 -44 24 c-34 18 -59 23 -110 22 -36 0 -73 -3
-81 -6z m130 -173 c14 -14 20 -33 20 -65 l0 -45 -70 0 -70 0 0 36 c0 36 15 73
34 86 21 14 66 8 86 -12z m300 0 c15 -15 20 -33 20 -70 l0 -50 -70 0 -70 0 0
41 c0 41 14 78 34 91 21 14 66 8 86 -12z m300 0 c15 -15 20 -33 20 -75 l0 -55
-70 0 -70 0 0 46 c0 45 13 82 34 96 21 14 66 8 86 -12z m-1952 -235 c697 -19
1436 -39 1642 -45 666 -18 696 -19 719 -41 27 -25 28 -80 2 -103 -26 -24 -35
-24 -506 -36 -231 -6 -1057 -29 -1835 -50 -1547 -42 -1448 -44 -1470 16 -13
34 -13 206 0 241 17 43 37 53 112 53 37 0 638 -16 1336 -35z m2372 -395 c22
-22 26 -60 10 -90 -14 -26 -64 -38 -200 -46 l-115 -6 -32 66 c-18 37 -33 73
-33 81 0 13 27 15 175 15 162 0 177 -2 195 -20z m-827 -38 c4 -20 27 -80 52
-132 57 -116 75 -183 75 -277 0 -106 -15 -165 -76 -293 -45 -96 -55 -128 -60
-190 -9 -99 5 -156 65 -282 55 -116 71 -177 71 -278 0 -99 -16 -162 -67 -270
-25 -52 -47 -97 -49 -99 -4 -5 -55 17 -77 33 -17 13 -16 16 3 62 50 116 64
288 34 432 -9 47 -35 118 -67 182 -47 97 -51 110 -51 180 0 70 3 81 46 166 71
139 82 186 83 349 0 160 -16 227 -86 367 -21 43 -39 80 -39 83 0 3 31 5 69 5
l68 0 6 -38z m-603 -7 c0 -19 11 -68 24 -110 17 -53 21 -77 13 -80 -7 -1 -520
-44 -1142 -94 -621 -51 -1148 -94 -1171 -97 -34 -5 -46 -1 -69 19 -28 24 -29
29 -36 143 -7 129 -2 156 32 174 15 9 370 22 1173 45 633 18 1157 33 1164 34
7 1 12 -12 12 -34z m304 1 c4 -18 27 -75 52 -127 56 -115 74 -182 74 -276 0
-106 -15 -165 -76 -293 -45 -96 -55 -128 -60 -190 -9 -99 5 -156 65 -282 56
-117 71 -177 71 -281 0 -61 -21 -182 -34 -195 -2 -2 -25 13 -51 32 -25 20 -50
36 -53 36 -4 0 -7 55 -7 122 l0 123 -57 120 c-104 217 -104 349 -1 568 53 113
57 128 61 208 5 98 -12 173 -58 256 -32 57 -70 161 -70 193 0 18 6 20 69 20
l69 0 6 -34z m-862 -1712 c9 -8 -87 -221 -117 -259 -35 -46 -103 -100 -156
-124 l-44 -20 -9 22 c-9 21 -57 126 -63 138 -2 4 10 12 27 19 17 7 77 55 133
106 56 52 115 100 132 109 30 14 87 20 97 9z m772 -9 c17 -8 75 -56 129 -105
53 -49 119 -101 146 -114 59 -31 147 -46 266 -46 93 -1 152 -15 186 -46 11
-10 50 -81 88 -158 87 -180 111 -203 292 -290 74 -36 143 -74 153 -85 31 -34
45 -93 46 -186 0 -119 15 -207 46 -266 13 -27 65 -93 114 -147 l89 -97 -147
-3 c-180 -3 -163 -16 -258 208 -10 25 -34 65 -53 90 -19 24 -40 64 -48 88 -18
61 -47 105 -99 151 -59 52 -118 71 -220 71 l-82 0 -36 41 c-19 23 -54 86 -77
142 -77 182 -175 280 -360 357 -90 38 -113 53 -169 109 -57 57 -72 81 -112
174 l-46 107 32 9 c47 14 85 13 120 -4z m-540 -70 c27 -8 71 -15 98 -15 l50 0
-7 -32 c-17 -85 -36 -151 -55 -188 -34 -66 -87 -118 -133 -131 -171 -46 -330
-202 -386 -379 -19 -61 -23 -88 -18 -152 5 -74 4 -80 -25 -123 -37 -56 -67
-81 -169 -142 -99 -58 -174 -138 -226 -239 l-38 -74 -266 0 -266 0 24 63 25
63 98 -4 c166 -7 297 34 427 132 159 120 296 388 326 637 6 55 15 99 20 99 5
0 42 16 84 35 140 65 246 179 302 326 30 78 65 139 79 139 4 0 29 -7 56 -15z
m348 -239 c33 -48 119 -135 167 -168 24 -17 82 -46 128 -64 156 -61 224 -131
291 -297 l39 -95 -41 -11 c-94 -24 -185 -110 -209 -198 -6 -24 -17 -43 -23
-43 -20 0 -120 97 -152 148 -17 26 -40 80 -52 120 -18 63 -19 80 -10 132 20
111 -16 219 -96 290 -42 37 -108 69 -141 70 -34 0 -36 15 -9 68 13 26 30 76
37 110 l13 63 19 -47 c10 -26 27 -61 39 -78z m1798 -23 c6 -37 8 -88 5 -114
-7 -50 -18 -59 -78 -59 -48 0 -179 -49 -241 -91 -53 -36 -62 -39 -87 -29 -25
11 -26 14 -18 43 42 147 183 277 331 306 77 16 75 17 88 -56z m-1900 -265 c34
-17 51 -35 69 -71 l23 -47 -38 -165 c-20 -91 -45 -178 -55 -195 -19 -30 -85
-70 -116 -70 -10 0 -91 17 -181 38 -171 41 -197 54 -229 116 -47 90 56 282
193 362 66 39 120 53 209 53 65 1 90 -3 125 -21z m1980 -68 c63 -12 146 -48
195 -85 l35 -27 -18 -30 c-71 -122 -224 -208 -368 -208 l-64 0 0 43 c0 60 -26
155 -55 199 -14 21 -25 40 -25 43 0 11 87 48 144 60 77 17 91 17 156 5z m-862
-450 c57 -35 74 -74 69 -160 -4 -85 -27 -145 -83 -221 l-36 -49 -224 0 -224 0
0 165 c0 147 2 170 20 206 37 72 59 79 265 79 162 0 183 -2 213 -20z m-862
-122 c35 -35 86 -72 130 -95 l74 -38 0 -87 0 -88 -200 0 c-184 0 -204 2 -242
21 -54 28 -126 102 -161 167 l-28 52 44 0 c101 0 204 55 261 139 l28 43 19
-28 c10 -16 44 -54 75 -86z m-681 -6 l79 -19 11 -49 c16 -65 35 -108 79 -173
20 -29 36 -55 36 -57 0 -2 -169 -4 -375 -4 -206 0 -375 4 -375 8 0 4 21 34 48
66 33 41 74 75 137 113 95 57 141 97 177 149 l21 31 42 -23 c22 -13 77 -32
120 -42z m-1398 -106 l33 -16 -20 -50 c-11 -28 -32 -68 -46 -90 l-27 -40 -125
0 -126 0 25 28 c14 15 55 60 92 99 36 40 73 86 82 103 l16 30 32 -24 c18 -13
47 -31 64 -40z"/>
<path d="M1127 2069 c-117 -19 -225 -107 -268 -217 -31 -78 -30 -185 1 -267
32 -82 113 -164 194 -194 72 -27 185 -30 254 -6 141 47 232 179 232 335 0 226
-189 386 -413 349z m148 -176 c69 -35 105 -94 105 -173 0 -228 -320 -264 -379
-43 -17 63 2 127 54 179 63 63 142 76 220 37z"/>
</g>
</svg>
