<?xml version="1.0" standalone="no"?>
<!DOCTYPE svg PUBLIC "-//W3C//DTD SVG 20010904//EN"
 "http://www.w3.org/TR/2001/REC-SVG-20010904/DTD/svg10.dtd">
<svg version="1.0" xmlns="http://www.w3.org/2000/svg"
 width="512.000000pt" height="512.000000pt" viewBox="0 0 512.000000 512.000000"
 preserveAspectRatio="xMidYMid meet">
<metadata>
Created by potrace 1.16, written by Peter Selinger 2001-2019
</metadata>
<g transform="translate(0.000000,512.000000) scale(0.100000,-0.100000)"
fill="#000000" stroke="none">
<path d="M1473 5110 c-30 -12 -96 -80 -129 -131 -45 -71 -64 -143 -64 -239 0
-160 66 -284 202 -380 39 -28 80 -63 90 -78 33 -51 21 -109 -35 -165 -49 -49
-59 -130 -24 -197 28 -53 75 -80 140 -80 65 0 109 22 155 79 85 104 112 176
112 301 0 160 -66 284 -202 380 -39 28 -80 63 -90 78 -33 51 -21 109 35 165
26 26 47 80 47 119 0 46 -36 114 -74 138 -36 21 -121 27 -163 10z"/>
<path d="M2524 5101 c-118 -72 -203 -275 -177 -426 23 -133 90 -236 208 -320
89 -64 100 -79 100 -136 0 -42 -5 -53 -36 -86 -50 -52 -59 -73 -59 -135 0 -97
61 -158 158 -158 66 0 95 15 154 78 134 143 156 362 55 534 -28 49 -108 126
-180 176 -55 37 -82 87 -72 133 4 17 24 50 46 75 80 93 70 207 -23 264 -44 26
-131 27 -174 1z"/>
<path d="M279 3496 c-70 -48 -69 -38 -69 -579 0 -379 3 -512 15 -604 46 -349
179 -665 400 -948 77 -99 255 -272 354 -345 l74 -55 -479 -5 c-532 -6 -511 -3
-555 -73 -19 -30 -20 -46 -17 -237 3 -199 4 -207 32 -275 58 -141 148 -242
277 -310 132 -69 8 -65 1822 -65 1459 0 1646 2 1700 16 122 31 238 108 314
209 99 131 123 219 123 452 0 186 -10 223 -73 262 -34 21 -44 21 -512 21
l-478 0 84 62 c107 79 306 279 384 385 l60 83 330 0 c182 0 359 5 394 11 88
14 223 66 296 114 90 59 213 188 262 275 72 129 96 215 101 367 3 101 0 150
-13 210 -64 290 -273 513 -560 599 -80 24 -111 27 -287 31 l-197 6 -3 158 c-3
175 -8 189 -78 237 l-33 22 -1816 0 -1816 0 -36 -24z m3451 -648 c0 -194 -5
-393 -10 -443 -64 -581 -423 -1073 -953 -1306 -465 -205 -1026 -166 -1462 101
-247 151 -484 412 -604 663 -52 109 -106 266 -132 385 -20 89 -22 133 -26 525
l-5 427 1596 0 1596 0 0 -352z m745 -108 c128 -49 213 -127 272 -248 38 -76
38 -79 38 -197 0 -118 -1 -121 -37 -198 -44 -92 -127 -181 -206 -221 -96 -49
-147 -56 -397 -56 l-231 0 43 128 c73 221 103 419 103 686 l0 138 178 -4 c155
-4 185 -8 237 -28z m-535 -2152 c0 -98 -66 -197 -160 -242 l-45 -21 -1600 0
-1600 0 -45 21 c-97 45 -152 124 -165 237 l-6 57 1810 0 1811 0 0 -52z"/>
</g>
</svg>
