<?xml version="1.0" standalone="no"?>
<!DOCTYPE svg PUBLIC "-//W3C//DTD SVG 20010904//EN"
 "http://www.w3.org/TR/2001/REC-SVG-20010904/DTD/svg10.dtd">
<svg version="1.0" xmlns="http://www.w3.org/2000/svg"
 width="512.000000pt" height="512.000000pt" viewBox="0 0 512.000000 512.000000"
 preserveAspectRatio="xMidYMid meet">
<metadata>
Created by potrace 1.16, written by Peter Selinger 2001-2019
</metadata>
<g transform="translate(0.000000,512.000000) scale(0.100000,-0.100000)"
fill="#000000" stroke="none">
<path d="M1903 5048 c-133 -193 -192 -402 -172 -609 12 -129 50 -217 142 -333
78 -98 107 -189 114 -356 5 -111 -8 -339 -23 -427 -9 -50 10 -40 60 30 61 85
131 235 157 332 25 96 30 272 10 355 -19 75 -64 162 -123 239 -81 103 -114
198 -124 361 -6 84 5 293 23 433 3 29 2 47 -4 47 -6 0 -33 -33 -60 -72z"/>
<path d="M2595 4513 c-55 -74 -143 -260 -165 -348 -26 -100 -35 -241 -22 -320
19 -115 56 -187 170 -336 91 -120 110 -331 66 -729 l-7 -55 23 20 c34 30 103
140 143 231 51 113 77 229 77 346 0 170 -29 256 -136 400 -87 116 -114 196
-121 363 -5 108 10 395 24 453 9 36 -14 25 -52 -25z"/>
<path d="M1356 4433 c-63 -90 -137 -255 -160 -360 -20 -92 -21 -260 -1 -338
20 -78 65 -165 126 -242 90 -113 119 -213 119 -418 0 -121 -14 -331 -25 -382
-17 -77 84 60 154 208 64 135 86 232 85 374 -1 167 -31 253 -142 399 -119 157
-137 299 -96 764 4 39 4 72 1 72 -4 0 -31 -35 -61 -77z"/>
<path d="M4334 3130 c-397 -341 -557 -484 -606 -544 -37 -44 -100 -116 -140
-159 l-73 -79 -135 16 c-352 40 -556 50 -1075 51 -329 0 -574 -5 -690 -13
-840 -62 -1327 -173 -1496 -341 -76 -77 -84 -109 -76 -304 24 -562 345 -1209
756 -1520 121 -92 203 -138 313 -178 163 -60 143 -59 1173 -59 1009 0 1008 0
1155 50 477 164 908 743 1056 1421 34 158 45 437 20 503 -50 130 -270 240
-626 311 -47 9 -89 19 -93 22 -12 7 31 35 123 83 60 30 182 130 615 502 l540
463 -1 50 c-1 98 -65 172 -157 182 l-44 5 -539 -462z m-1709 -1004 c220 -5
527 -23 555 -32 19 -6 -1 -23 -122 -100 l-88 -55 -79 39 c-114 57 -207 76
-345 69 -171 -8 -316 -62 -447 -167 -76 -60 -169 -169 -204 -238 -2 -3 -332
16 -465 28 -267 24 -517 60 -720 103 -122 27 -336 92 -345 106 -12 20 186 84
392 126 403 82 1157 143 1583 128 36 -2 164 -5 285 -7z m993 -86 c182 -29 352
-67 470 -106 146 -48 145 -47 69 -77 -182 -73 -449 -124 -945 -182 -38 -4 -44
-2 -54 20 -10 22 -6 31 32 80 74 96 261 285 281 285 11 0 77 -9 147 -20z"/>
</g>
</svg>
