<?xml version="1.0" standalone="no"?>
<!DOCTYPE svg PUBLIC "-//W3C//DTD SVG 20010904//EN"
 "http://www.w3.org/TR/2001/REC-SVG-20010904/DTD/svg10.dtd">
<svg version="1.0" xmlns="http://www.w3.org/2000/svg"
 width="512.000000pt" height="512.000000pt" viewBox="0 0 512.000000 512.000000"
 preserveAspectRatio="xMidYMid meet">
<metadata>
Created by potrace 1.16, written by Peter Selinger 2001-2019
</metadata>
<g transform="translate(0.000000,512.000000) scale(0.100000,-0.100000)"
fill="#000000" stroke="none">
<path d="M3219 5046 c-85 -30 -166 -103 -199 -180 -10 -22 -57 -175 -106 -338
l-87 -298 -736 0 -736 0 -51 -24 c-81 -38 -134 -122 -134 -213 0 -102 429
-3750 445 -3789 21 -51 70 -102 120 -125 38 -17 78 -19 686 -19 l645 0 52 26
c62 31 107 90 122 161 17 76 431 3671 431 3739 0 103 -46 179 -136 220 -49 23
-58 24 -322 24 -150 0 -273 3 -273 7 0 19 166 564 181 594 24 48 89 103 138
117 26 8 146 12 365 12 l326 0 0 50 0 50 -347 0 c-258 -1 -357 -4 -384 -14z
m-429 -938 c0 -2 -69 -235 -153 -518 l-153 -515 -542 -3 -541 -2 -6 32 c-3 18
-27 226 -54 463 -45 391 -48 433 -35 464 14 32 39 57 74 73 13 6 1410 12 1410
6z m690 -16 c21 -10 42 -32 53 -54 18 -37 18 -42 -35 -503 l-53 -465 -427 0
-427 0 9 28 c8 22 131 436 281 945 l20 67 272 0 c239 0 276 -2 307 -18z m-827
-1524 c158 -65 197 -91 197 -131 0 -34 -117 -317 -142 -344 -12 -13 -32 -23
-44 -23 -19 0 -27 13 -55 98 -37 111 -70 153 -138 173 -37 11 -53 11 -102 -2
-33 -9 -59 -13 -59 -9 0 3 22 62 50 131 51 126 82 169 121 169 11 0 89 -28
172 -62z m-173 -293 c16 -9 36 -28 44 -43 21 -41 136 -405 136 -431 0 -31 -25
-75 -52 -93 -34 -22 -409 -138 -446 -138 -23 0 -42 10 -66 33 -30 28 -42 56
-95 228 -34 109 -61 213 -61 233 0 69 31 89 255 161 110 35 213 64 228 65 15
0 41 -7 57 -15z m297 -610 c54 -27 74 -43 83 -66 16 -38 11 -54 -77 -235 -52
-107 -70 -135 -93 -144 -56 -23 -63 -15 -81 101 -9 58 -20 115 -23 126 -20 63
-96 112 -173 114 -46 1 -44 2 67 38 124 41 169 61 189 85 19 22 29 20 108 -19z
m-296 -182 c16 -9 35 -31 43 -48 8 -16 29 -127 47 -246 47 -314 56 -303 -269
-353 -121 -18 -232 -31 -247 -29 -34 7 -82 55 -89 90 -22 109 -66 432 -61 455
10 42 66 85 122 94 26 4 111 17 188 29 176 28 229 30 266 8z m150 -682 c16
-16 29 -40 29 -52 0 -33 -138 -321 -163 -341 -12 -10 -34 -18 -48 -18 -35 0
-320 136 -341 163 -25 31 -22 55 13 134 l30 69 185 28 c102 15 195 31 207 36
38 15 58 11 88 -19z"/>
</g>
</svg>
