<?xml version="1.0" standalone="no"?>
<!DOCTYPE svg PUBLIC "-//W3C//DTD SVG 20010904//EN"
 "http://www.w3.org/TR/2001/REC-SVG-20010904/DTD/svg10.dtd">
<svg version="1.0" xmlns="http://www.w3.org/2000/svg"
 width="512.000000pt" height="512.000000pt" viewBox="0 0 512.000000 512.000000"
 preserveAspectRatio="xMidYMid meet">
<metadata>
Created by potrace 1.16, written by Peter Selinger 2001-2019
</metadata>
<g transform="translate(0.000000,512.000000) scale(0.100000,-0.100000)"
fill="#000000" stroke="none">
<path d="M3318 5106 c-20 -7 -56 -25 -80 -39 -23 -14 -331 -314 -683 -666
l-640 -641 0 -46 c0 -39 5 -50 34 -76 30 -27 39 -30 79 -25 44 5 54 14 681
640 350 349 646 640 658 646 12 6 42 11 68 11 70 0 1166 -180 1203 -197 34
-16 75 -63 86 -98 14 -46 186 -1140 186 -1181 0 -25 -5 -55 -11 -67 -16 -31
-3108 -3125 -3141 -3143 -35 -18 -111 -18 -146 0 -33 18 -1375 1362 -1391
1393 -14 28 -14 108 0 136 6 12 291 303 634 647 671 673 654 653 620 723 -18
39 -50 57 -103 57 -36 0 -61 -24 -678 -642 -508 -509 -646 -653 -665 -693 -20
-43 -24 -65 -24 -160 0 -184 -51 -122 754 -926 804 -805 742 -754 926 -754 95
0 117 4 160 24 41 19 348 321 1627 1600 1334 1332 1583 1585 1610 1636 56 106
54 141 -52 795 -50 311 -96 583 -101 605 -33 126 -137 230 -264 263 -22 6
-293 52 -602 102 -572 92 -672 102 -745 76z"/>
<path d="M4293 4438 c-12 -6 -29 -26 -38 -45 -44 -93 45 -182 137 -139 97 46
66 197 -39 195 -21 0 -48 -5 -60 -11z"/>
<path d="M3414 4166 c-63 -63 -62 -68 175 -549 134 -274 216 -429 229 -436 11
-6 39 -11 62 -11 33 0 48 6 71 29 40 41 38 82 -8 176 l-37 75 108 109 109 110
71 -36 c40 -20 87 -36 108 -37 79 -2 129 78 95 150 -17 34 -43 48 -442 245
-478 235 -480 236 -541 175z m455 -452 c-29 -30 -56 -54 -59 -54 -5 0 -110
205 -110 215 0 3 50 -20 111 -51 l112 -56 -54 -54z"/>
<path d="M2840 3558 c-44 -17 -77 -43 -167 -132 -110 -109 -113 -112 -113
-156 l0 -45 333 -332 332 -333 43 0 c63 0 102 40 102 106 0 45 -3 49 -87 135
l-86 88 49 -4 c156 -16 339 -23 363 -14 59 23 85 81 61 139 -22 53 -45 60
-238 72 l-178 11 18 51 c58 169 -21 357 -175 414 -77 29 -181 29 -257 0z m183
-199 c31 -14 57 -59 57 -99 0 -40 -19 -77 -64 -120 l-36 -34 -82 82 -82 81 29
32 c61 64 121 84 178 58z"/>
<path d="M1654 3491 c-57 -25 -73 -117 -30 -168 21 -24 32 -28 74 -28 35 0 56
6 71 19 42 39 44 118 3 159 -22 21 -87 31 -118 18z"/>
<path d="M2162 2918 c-84 -84 -160 -166 -169 -182 -34 -65 20 -146 98 -146 34
0 48 7 87 45 l47 44 280 -279 c280 -279 281 -280 324 -280 34 0 49 6 72 29 24
24 29 38 29 77 l0 48 -277 278 -277 278 37 38 c43 44 57 84 45 129 -12 44 -52
73 -101 73 -39 0 -47 -6 -195 -152z"/>
<path d="M1689 2441 c-39 -39 -38 -76 6 -228 19 -67 35 -124 35 -126 0 -2 -61
14 -136 36 -151 43 -185 43 -224 2 -17 -18 -23 -37 -24 -70 -2 -73 18 -86 244
-151 107 -31 200 -61 206 -68 6 -6 40 -112 74 -236 73 -257 86 -280 160 -280
33 0 48 6 71 29 40 41 38 83 -15 266 -24 83 -40 151 -36 153 4 1 77 -18 162
-43 86 -25 168 -45 184 -45 87 0 131 124 65 184 -10 9 -124 46 -254 83 l-235
67 -57 200 c-48 171 -61 205 -86 229 -42 39 -100 38 -140 -2z"/>
<path d="M933 1687 c-141 -141 -143 -143 -143 -187 l0 -45 333 -332 332 -333
45 0 c44 0 46 2 187 143 138 138 143 144 143 184 0 49 -35 98 -76 106 -50 9
-87 -12 -171 -95 l-83 -83 -75 75 -75 75 69 70 c79 81 91 100 91 150 0 51 -44
95 -95 95 -50 0 -69 -12 -150 -91 l-70 -69 -75 75 -75 75 82 83 c45 45 87 94
92 109 25 68 -27 138 -102 138 -40 0 -46 -5 -184 -143z"/>
</g>
</svg>
