<?xml version="1.0" standalone="no"?>
<!DOCTYPE svg PUBLIC "-//W3C//DTD SVG 20010904//EN"
 "http://www.w3.org/TR/2001/REC-SVG-20010904/DTD/svg10.dtd">
<svg version="1.0" xmlns="http://www.w3.org/2000/svg"
 width="512.000000pt" height="512.000000pt" viewBox="0 0 512.000000 512.000000"
 preserveAspectRatio="xMidYMid meet">
<metadata>
Created by potrace 1.16, written by Peter Selinger 2001-2019
</metadata>
<g transform="translate(0.000000,512.000000) scale(0.100000,-0.100000)"
fill="#000000" stroke="none">
<path d="M3402 4504 c-38 -26 -29 -68 23 -116 119 -108 164 -242 142 -414 -10
-75 4 -97 62 -92 47 4 59 29 67 139 13 186 -66 374 -198 469 -47 34 -64 37
-96 14z"/>
<path d="M2830 4004 c-145 -50 -247 -132 -297 -240 -19 -42 -24 -70 -24 -128
1 -209 124 -311 413 -341 54 -6 77 -22 62 -46 -9 -16 -128 -10 -208 11 -105
27 -188 73 -245 137 -41 46 -54 54 -102 63 -98 19 -223 -12 -295 -74 l-38 -33
16 -65 c23 -97 4 -180 -67 -295 l-26 -43 43 -17 c122 -49 222 -117 300 -203
47 -51 61 -60 113 -73 77 -20 175 -34 293 -43 97 -7 120 -20 91 -49 -12 -12
-35 -13 -129 -5 -63 5 -151 16 -194 25 -44 8 -82 13 -84 10 -14 -13 14 -58 55
-88 64 -47 132 -119 182 -191 41 -59 81 -165 81 -212 l0 -24 628 0 628 0 45
28 c176 112 209 356 70 514 -37 42 -141 98 -182 98 -16 0 -44 -14 -70 -36 -53
-44 -98 -67 -171 -89 -77 -22 -132 -17 -136 12 -3 18 3 23 35 28 190 30 283
96 328 230 23 69 21 184 -5 267 -22 70 -89 182 -117 192 -11 5 -32 -8 -67 -42
-91 -87 -166 -116 -279 -110 -211 11 -362 190 -342 403 l6 71 -48 41 c-27 22
-62 64 -78 94 -27 49 -30 63 -30 149 l-1 95 -39 2 c-23 2 -72 -8 -115 -23z
m21 -273 c31 -31 39 -83 19 -122 -13 -24 -61 -49 -96 -49 -35 0 -94 59 -94 95
0 91 108 139 171 76z m-183 -615 c101 -53 108 -186 11 -238 -69 -37 -146 -9
-183 65 -51 105 69 226 172 173z m949 -131 c32 -32 35 -40 30 -73 -7 -44 -55
-92 -93 -92 -33 0 -81 25 -94 49 -35 65 14 151 85 151 29 0 45 -8 72 -35z
m-356 -450 c86 -45 91 -167 9 -225 -107 -76 -251 46 -194 165 32 68 116 95
185 60z"/>
<path d="M2562 3047 c-46 -49 -12 -127 56 -127 43 0 72 30 72 75 0 69 -81 102
-128 52z"/>
<path d="M3163 2490 c-43 -18 -57 -81 -25 -119 46 -55 132 -24 132 48 0 57
-54 93 -107 71z"/>
<path d="M3395 3823 c-221 -79 -276 -366 -100 -521 63 -56 127 -76 224 -70 90
5 137 27 199 89 87 88 108 233 52 347 -53 105 -141 162 -260 169 -45 2 -80 -2
-115 -14z m-51 -272 c-7 -61 25 -124 81 -155 66 -37 52 -84 -16 -56 -73 31
-137 145 -123 222 15 78 69 68 58 -11z"/>
<path d="M1563 3359 c-162 -34 -148 -232 31 -441 64 -75 146 -148 165 -148 19
0 161 142 207 206 120 169 131 293 32 367 -31 23 -104 25 -147 3 -17 -9 -42
-34 -56 -56 -30 -47 -49 -50 -69 -12 -33 64 -97 96 -163 81z"/>
<path d="M1462 2880 c-170 -60 -328 -213 -347 -336 -21 -130 101 -203 239
-144 100 42 188 35 279 -22 35 -23 63 -32 110 -35 58 -5 67 -2 139 36 105 56
159 61 259 27 44 -15 97 -26 127 -26 45 0 57 5 89 33 31 30 37 41 41 90 4 47
0 66 -22 111 -49 101 -218 231 -356 275 l-35 11 -85 -83 c-47 -45 -98 -89
-113 -96 -25 -14 -32 -13 -64 4 -20 11 -68 52 -109 91 -40 39 -79 74 -87 77
-7 3 -37 -3 -65 -13z"/>
<path d="M2435 2428 c-50 -104 -152 -133 -290 -83 -95 35 -163 31 -233 -13
-107 -67 -184 -68 -308 -2 -74 39 -83 42 -139 37 -33 -3 -80 -14 -105 -26 -77
-35 -188 -23 -243 27 -11 9 -28 34 -38 55 -13 24 -26 37 -39 37 -32 0 -156
-129 -185 -191 -73 -160 -40 -335 72 -390 76 -37 150 -32 249 16 75 38 84 40
174 40 107 0 141 -12 240 -85 103 -75 225 -77 327 -5 113 80 140 90 243 90 88
0 101 -3 175 -37 102 -46 132 -52 199 -38 39 8 67 22 99 51 59 51 81 107 75
192 -6 96 -52 182 -153 284 -45 46 -86 83 -91 83 -5 -1 -18 -19 -29 -42z"/>
<path d="M2752 1982 c-15 -49 -72 -115 -129 -148 l-44 -27 6 -76 c10 -133 13
-141 41 -141 52 0 88 -31 108 -93 3 -10 -55 -205 -134 -444 -104 -319 -137
-430 -128 -440 8 -10 137 -13 665 -13 705 0 692 -1 741 53 31 33 423 1222 423
1282 0 31 -6 45 -26 63 -26 22 -28 22 -308 20 l-281 -3 -29 -205 c-29 -213
-41 -250 -72 -220 -14 15 -7 87 39 398 l5 32 -340 0 -339 0 -2 -362 -3 -363
-25 0 -25 0 -3 363 -2 362 -64 0 -63 0 -11 -38z"/>
<path d="M1203 1846 c-40 -19 -98 -40 -130 -45 -32 -6 -63 -17 -71 -24 -8 -8
-14 -42 -15 -87 -2 -70 -1 -75 23 -87 20 -10 184 -13 779 -13 l753 0 -6 58
c-17 148 -18 153 -32 148 -25 -10 -117 14 -184 46 -49 24 -82 33 -135 36 -94
5 -137 -8 -217 -66 -139 -102 -286 -103 -415 -5 -74 57 -119 73 -203 73 -66 0
-85 -4 -147 -34z"/>
<path d="M890 1520 c-11 -11 -20 -25 -20 -31 0 -33 274 -847 291 -864 19 -19
35 -20 597 -23 422 -2 584 1 605 9 15 7 34 24 41 38 16 30 276 823 276 840 0
6 -9 20 -20 31 -19 19 -33 20 -200 20 -137 0 -180 -3 -180 -12 -1 -44 -41
-273 -49 -281 -5 -5 -17 -7 -25 -4 -20 8 -20 43 -1 167 8 52 15 103 15 113 0
16 -17 17 -215 17 l-215 0 0 -239 c0 -199 -2 -241 -15 -251 -8 -7 -22 -10 -30
-6 -13 5 -15 41 -15 251 l0 245 -220 0 -220 0 5 -22 c13 -58 35 -259 30 -268
-3 -6 -15 -10 -25 -10 -23 0 -25 6 -48 170 l-17 125 -162 3 c-152 2 -164 1
-183 -18z"/>
</g>
</svg>
