<?xml version="1.0" standalone="no"?>
<!DOCTYPE svg PUBLIC "-//W3C//DTD SVG 20010904//EN"
 "http://www.w3.org/TR/2001/REC-SVG-20010904/DTD/svg10.dtd">
<svg version="1.0" xmlns="http://www.w3.org/2000/svg"
 width="512.000000pt" height="512.000000pt" viewBox="0 0 512.000000 512.000000"
 preserveAspectRatio="xMidYMid meet">
<metadata>
Created by potrace 1.16, written by Peter Selinger 2001-2019
</metadata>
<g transform="translate(0.000000,512.000000) scale(0.100000,-0.100000)"
fill="#000000" stroke="none">
<path d="M2470 5099 c-20 -11 -47 -37 -60 -56 l-25 -36 -3 -324 c-1 -178 -5
-323 -7 -323 -3 0 -108 59 -235 130 -262 149 -294 159 -374 120 -53 -25 -79
-58 -95 -117 -16 -58 2 -126 43 -166 17 -16 173 -110 346 -208 l315 -177 3
-209 2 -208 -62 -36 c-35 -19 -162 -93 -284 -162 l-220 -128 -179 104 -179
104 3 379 2 379 -24 45 c-61 116 -232 123 -307 13 -25 -36 -25 -37 -28 -324
l-3 -287 -242 140 c-326 189 -309 181 -378 176 -99 -7 -159 -74 -159 -178 0
-59 17 -97 59 -132 16 -14 142 -90 279 -169 191 -109 248 -147 239 -155 -7 -7
-102 -64 -212 -129 -110 -64 -215 -128 -234 -142 -41 -32 -61 -77 -61 -143 0
-62 18 -100 67 -137 32 -25 45 -28 107 -28 l71 0 318 188 c175 104 322 187
327 185 5 -2 88 -48 184 -103 l175 -100 0 -325 0 -325 -175 -100 c-96 -55
-179 -101 -184 -103 -5 -2 -155 83 -334 189 l-326 191 -65 -4 c-72 -4 -105
-22 -143 -78 -26 -39 -30 -121 -8 -174 18 -44 44 -62 281 -201 110 -65 205
-123 212 -129 9 -8 -50 -46 -240 -156 -265 -152 -307 -182 -327 -230 -19 -45
-9 -140 19 -178 48 -68 153 -92 229 -53 20 10 146 82 279 159 l242 140 3 -287
c3 -287 3 -288 28 -324 75 -110 246 -103 307 13 l24 45 -2 379 -3 379 179 104
179 104 220 -128 c122 -69 249 -143 284 -162 l62 -36 -2 -208 -3 -209 -315
-178 c-173 -97 -329 -191 -346 -208 -60 -57 -65 -161 -11 -233 42 -58 140 -85
204 -57 15 7 126 68 246 135 119 68 219 123 222 123 2 0 6 -145 7 -323 l3
-324 25 -36 c71 -104 229 -104 300 0 l25 36 3 324 c1 178 5 323 7 323 3 0 103
-55 222 -123 120 -67 231 -128 246 -135 64 -28 162 -1 204 57 54 72 49 176
-11 233 -17 17 -173 111 -346 208 l-315 178 -3 209 -2 208 62 36 c35 19 162
93 284 162 l220 128 179 -104 179 -103 -3 -380 -2 -379 24 -45 c61 -116 232
-123 307 -13 25 36 25 37 28 324 l3 287 242 -140 c133 -77 259 -149 279 -159
76 -39 181 -15 229 53 28 38 38 133 19 178 -20 48 -62 78 -327 230 -190 110
-249 148 -240 156 7 6 102 64 212 129 237 139 263 157 281 201 22 53 18 135
-8 174 -38 56 -71 74 -143 78 l-65 4 -326 -191 c-179 -106 -329 -191 -334
-189 -5 2 -88 48 -184 103 l-175 100 0 325 0 325 175 100 c96 55 179 101 184
103 5 2 152 -81 327 -184 294 -174 322 -188 374 -192 71 -5 121 17 160 71 52
71 36 188 -32 240 -19 14 -124 78 -234 142 -110 65 -205 122 -212 129 -9 8 48
46 239 155 137 79 263 155 279 169 42 35 59 73 59 132 0 104 -60 171 -159 178
-69 5 -52 13 -378 -176 l-242 -140 -3 287 c-3 287 -3 288 -28 324 -75 110
-246 103 -307 -13 l-24 -45 2 -379 3 -379 -179 -104 -179 -104 -220 128 c-122
69 -249 143 -284 162 l-62 36 2 208 3 209 315 178 c173 97 329 191 346 207 41
40 59 108 43 166 -16 59 -42 92 -95 117 -80 39 -112 29 -374 -120 -127 -71
-232 -130 -235 -130 -2 0 -6 145 -7 323 l-3 324 -25 36 c-51 75 -163 101 -240
56z m376 -2051 l283 -163 0 -325 0 -325 -284 -163 -285 -164 -285 164 -284
163 0 325 0 325 282 162 c155 89 284 163 286 163 2 0 131 -73 287 -162z"/>
</g>
</svg>
