<?xml version="1.0" standalone="no"?>
<!DOCTYPE svg PUBLIC "-//W3C//DTD SVG 20010904//EN"
 "http://www.w3.org/TR/2001/REC-SVG-20010904/DTD/svg10.dtd">
<svg version="1.0" xmlns="http://www.w3.org/2000/svg"
 width="512.000000pt" height="512.000000pt" viewBox="0 0 512.000000 512.000000"
 preserveAspectRatio="xMidYMid meet">
<metadata>
Created by potrace 1.16, written by Peter Selinger 2001-2019
</metadata>
<g transform="translate(0.000000,512.000000) scale(0.100000,-0.100000)"
fill="#000000" stroke="none">
<path d="M1570 4433 c-119 -44 -1188 -468 -1197 -476 -33 -25 -14 -65 130
-264 l144 -198 -63 -58 c-44 -40 -73 -78 -96 -125 l-33 -67 1 -210 c0 -225 13
-345 59 -551 111 -491 379 -906 746 -1152 l76 -51 6 -55 c12 -115 110 -256
238 -343 125 -86 313 -159 503 -198 568 -116 1206 9 1483 291 63 66 120 175
129 252 l7 57 66 43 c96 62 235 185 319 282 307 355 481 850 497 1417 4 117
11 185 26 245 28 117 36 332 16 464 -62 400 -243 589 -547 571 -239 -14 -530
-156 -754 -368 l-97 -92 -113 12 c-310 31 -659 36 -1026 15 l-105 -7 -178 277
c-152 235 -200 300 -219 295 -2 0 -10 -3 -18 -6z m2656 -238 c100 -30 162
-100 188 -215 41 -178 -4 -410 -125 -655 -69 -140 -131 -226 -228 -318 -98
-92 -179 -129 -293 -135 -158 -8 -292 52 -438 198 -115 114 -162 206 -168 326
-8 157 53 289 208 444 261 262 641 419 856 355z m313 -647 c3 -227 -72 -449
-192 -571 -84 -85 -265 -168 -367 -167 l-35 1 60 32 c113 60 253 219 354 400
62 113 128 300 157 452 l8 40 7 -55 c4 -30 7 -90 8 -132z m-1516 -104 c36 -6
37 -8 37 -48 l0 -41 -87 4 c-102 4 -209 -12 -309 -45 -73 -25 -73 -25 -129 -6
-31 10 -56 22 -55 27 1 14 124 62 206 80 125 29 265 40 337 29z m-758 -162
c115 -25 205 -51 205 -61 0 -3 -14 -15 -30 -25 -28 -16 -34 -16 -78 -2 -225
75 -486 84 -717 24 -66 -17 -85 -18 -110 -8 l-30 12 34 14 c44 19 138 43 231
60 106 19 376 11 495 -14z m828 -41 c8 -8 1 -11 -29 -11 -156 0 -372 -84 -504
-195 -36 -30 -69 -57 -75 -59 -31 -13 -170 -55 -172 -52 -7 7 78 105 129 149
102 87 213 143 343 173 71 16 290 13 308 -5z m-2183 -100 c8 -17 1 -28 -51
-78 -73 -69 -86 -76 -63 -32 17 33 17 34 -2 20 -10 -8 -37 -32 -60 -53 -33
-32 -43 -36 -52 -25 -9 10 -1 23 36 59 58 56 153 128 169 128 7 0 17 -9 23
-19z m539 -5 c86 -24 158 -64 225 -126 97 -92 146 -203 146 -335 l0 -62 -62 9
c-339 48 -593 110 -803 197 -82 33 -84 43 -39 136 47 95 149 170 266 195 55
12 198 4 267 -14z m661 14 c63 -10 202 -40 208 -45 2 -2 -21 -35 -51 -74 -54
-69 -55 -70 -73 -50 -27 29 -147 86 -211 99 -33 7 -97 10 -149 8 -83 -5 -93
-3 -119 17 l-28 23 54 11 c90 17 100 18 204 20 55 0 129 -4 165 -9z m1067 -54
l21 -33 -81 -6 c-45 -4 -113 -15 -151 -26 -43 -12 -77 -16 -90 -11 -12 4 -45
11 -75 15 -60 8 -57 13 29 46 82 31 166 47 250 48 74 1 75 0 97 -33z m-1130
-140 c122 -55 202 -169 232 -330 l9 -49 -142 8 c-77 4 -161 10 -186 14 l-45 6
3 45 c4 68 -23 202 -54 267 -15 32 -30 62 -32 67 -3 5 30 7 74 4 58 -3 96 -12
141 -32z m1283 -21 c14 -12 38 -30 53 -40 15 -10 24 -21 20 -25 -4 -4 -38 -10
-75 -13 -64 -4 -67 -4 -88 25 -12 16 -42 39 -67 51 -41 20 -43 22 -21 29 12 3
52 4 88 1 48 -4 71 -11 90 -28z m-2661 -198 c47 -515 236 -923 578 -1248 89
-84 93 -89 40 -52 -418 290 -673 796 -732 1452 l-6 73 54 -46 54 -47 12 -132z
m2197 184 c23 -10 45 -24 48 -30 4 -6 35 -11 69 -11 79 0 128 -14 167 -46 25
-22 30 -33 30 -70 0 -39 3 -46 28 -56 38 -17 72 -48 72 -68 0 -21 -21 -26
-144 -36 l-89 -7 27 39 c35 51 33 79 -7 119 -44 44 -118 66 -243 72 -122 7
-222 -9 -301 -47 -100 -47 -128 -108 -78 -168 14 -17 25 -33 25 -37 0 -3 -19
-5 -42 -3 l-42 3 -17 81 c-9 44 -24 97 -33 119 -9 21 -14 40 -12 43 15 14 148
53 200 59 33 3 68 12 76 19 54 46 191 59 266 25z m120 -172 c62 -31 73 -49 50
-84 -44 -66 -192 -90 -291 -46 -47 21 -49 23 -31 37 11 8 28 14 37 14 31 0 49
12 49 32 0 18 -5 20 -45 16 -61 -7 -95 -31 -95 -67 0 -15 9 -36 20 -46 28 -25
16 -35 -39 -35 -63 0 -152 44 -165 83 -8 22 -6 31 13 51 49 53 154 76 322 72
110 -2 133 -6 175 -27z m718 -6 c73 -14 84 -18 65 -26 -27 -10 -351 -77 -373
-77 -7 0 -17 12 -21 28 -3 15 -17 41 -31 59 l-24 32 23 5 c42 9 272 -4 361
-21z"/>
<path d="M3605 3753 c-143 -59 -219 -171 -219 -323 -1 -102 26 -169 93 -238
67 -68 138 -97 241 -97 71 0 94 4 141 26 119 56 190 161 197 294 5 103 -21
177 -87 248 -70 75 -127 100 -236 104 -67 2 -100 -1 -130 -14z m226 -98 c72
-37 110 -87 129 -171 24 -106 -29 -214 -130 -267 -48 -25 -64 -28 -121 -25
-275 15 -314 392 -49 479 37 13 132 4 171 -16z"/>
</g>
</svg>
