<?xml version="1.0" standalone="no"?>
<!DOCTYPE svg PUBLIC "-//W3C//DTD SVG 20010904//EN"
 "http://www.w3.org/TR/2001/REC-SVG-20010904/DTD/svg10.dtd">
<svg version="1.0" xmlns="http://www.w3.org/2000/svg"
 width="512.000000pt" height="512.000000pt" viewBox="0 0 512.000000 512.000000"
 preserveAspectRatio="xMidYMid meet">
<metadata>
Created by potrace 1.16, written by Peter Selinger 2001-2019
</metadata>
<g transform="translate(0.000000,512.000000) scale(0.100000,-0.100000)"
fill="#000000" stroke="none">
<path d="M4874 5091 c-21 -16 -129 -119 -238 -229 l-199 -200 -66 33 c-262
130 -563 107 -791 -60 -67 -49 -161 -152 -202 -220 -33 -56 -78 -171 -93 -239
-6 -29 -7 -28 -118 82 -62 61 -125 116 -141 121 -35 14 -87 14 -123 1 -32 -12
-1326 -1300 -1349 -1342 -17 -32 -19 -110 -3 -141 6 -12 61 -72 122 -134 l110
-111 -44 -12 c-147 -38 -248 -92 -349 -186 -123 -117 -191 -236 -224 -396 -9
-43 -16 -106 -16 -141 l0 -64 -51 13 c-159 41 -357 39 -534 -6 -209 -53 -474
-230 -505 -337 -26 -88 -22 -94 243 -360 250 -252 273 -269 343 -261 32 4 11
-20 -289 -321 -178 -180 -332 -337 -341 -351 -10 -15 -16 -45 -16 -80 0 -62
20 -100 66 -131 37 -24 129 -26 164 -3 14 9 171 163 351 341 301 300 325 321
321 289 -8 -70 9 -93 261 -343 233 -232 244 -241 289 -248 74 -11 127 20 211
124 173 217 257 498 229 763 -7 57 -18 127 -25 156 l-14 52 64 0 c344 0 650
254 728 604 6 29 6 29 118 -81 62 -61 122 -116 134 -122 31 -16 109 -14 141 3
42 23 1330 1317 1342 1349 13 36 13 88 -1 123 -5 16 -60 79 -121 140 -117 119
-116 114 -40 129 160 32 363 185 455 343 76 130 114 288 104 432 -8 110 -28
186 -76 286 l-39 81 200 199 c249 247 258 259 258 333 0 63 -19 101 -66 132
-20 13 -47 19 -85 19 -46 0 -63 -5 -95 -29z m-755 -632 c79 -18 154 -61 217
-123 176 -177 176 -445 0 -622 -184 -183 -461 -177 -636 14 -156 169 -156 425
0 594 109 119 270 172 419 137z m-629 -974 l525 -525 -66 -66 -66 -66 -42 88
c-71 148 -171 274 -298 375 -94 75 -160 112 -304 169 -168 67 -217 99 -356
234 l-124 120 98 98 c54 54 100 98 103 98 3 0 241 -236 530 -525z m-811 -27
c152 -147 241 -208 388 -264 303 -116 431 -244 548 -544 l25 -65 -133 -132
-132 -133 -102 39 c-138 52 -214 101 -303 191 -87 88 -128 153 -182 288 -84
209 -140 294 -302 460 l-120 123 84 84 c47 47 86 85 89 85 2 0 65 -60 140
-132z m-279 -538 c24 -35 63 -112 85 -170 23 -58 55 -130 70 -160 100 -197
281 -373 484 -471 l91 -44 -83 -83 -82 -82 -527 527 -528 528 118 118 117 118
106 -108 c58 -59 125 -137 149 -173z m-419 -580 c234 -45 402 -280 361 -503
-58 -313 -395 -472 -664 -314 -54 31 -139 120 -166 173 -133 261 8 568 293
640 63 16 108 17 176 4z m-958 -775 c34 -9 105 -37 157 -63 79 -39 109 -61
185 -137 77 -76 98 -104 138 -185 25 -52 54 -124 63 -160 20 -77 23 -260 5
-335 -15 -60 -57 -166 -84 -213 l-20 -34 -105 105 -104 105 15 48 c39 117 30
240 -24 351 -97 200 -340 299 -554 227 l-47 -17 -106 106 -105 105 63 32 c85
43 131 59 215 76 83 16 219 11 308 -11z"/>
</g>
</svg>
