<?xml version="1.0" standalone="no"?>
<!DOCTYPE svg PUBLIC "-//W3C//DTD SVG 20010904//EN"
 "http://www.w3.org/TR/2001/REC-SVG-20010904/DTD/svg10.dtd">
<svg version="1.0" xmlns="http://www.w3.org/2000/svg"
 width="956.000000pt" height="960.000000pt" viewBox="0 0 956.000000 960.000000"
 preserveAspectRatio="xMidYMid meet">

<g transform="translate(0.000000,960.000000) scale(0.100000,-0.100000)"
fill="#000000" stroke="none">
<path d="M4480 9580 c0 -14 -6 -20 -22 -19 -17 1 -19 2 -5 6 25 6 21 23 -5 23
-90 0 -374 -35 -543 -67 -75 -14 -85 -18 -60 -24 23 -5 17 -7 -28 -8 -114 -2
-408 -78 -639 -164 -107 -40 -138 -55 -138 -69 0 -10 -4 -18 -10 -18 -5 0 -7
7 -4 15 5 12 1 13 -27 4 -90 -28 -119 -41 -112 -52 4 -6 0 -8 -10 -4 -10 3
-17 3 -17 -2 0 -4 -17 -13 -37 -19 -107 -32 -473 -228 -663 -355 -183 -123
-400 -293 -400 -314 0 -8 -5 -11 -10 -8 -17 11 -56 -20 -208 -163 -88 -84
-141 -141 -137 -149 2 -8 1 -12 -4 -9 -11 7 -270 -260 -363 -375 -62 -76 -78
-103 -79 -130 0 -24 -2 -29 -8 -16 -6 18 -7 18 -22 0 -8 -10 -28 -38 -44 -63
-21 -34 -23 -41 -8 -30 10 8 5 2 -11 -14 -17 -16 -25 -26 -19 -22 9 5 11 2 7
-8 -3 -9 -10 -13 -15 -10 -5 3 -15 -8 -21 -23 -7 -15 -18 -32 -24 -38 -23 -20
-135 -196 -189 -298 -41 -77 -55 -115 -56 -148 -1 -39 -2 -41 -8 -14 -6 28
-11 22 -70 -93 -34 -68 -60 -130 -57 -138 3 -8 2 -13 -3 -10 -12 8 -35 -50
-25 -65 4 -7 3 -10 -4 -5 -12 7 -47 -88 -38 -103 3 -5 -1 -11 -9 -15 -8 -3
-15 -14 -15 -25 0 -11 -5 -23 -11 -26 -6 -4 -8 -14 -5 -22 3 -8 2 -12 -3 -8
-12 7 -29 -41 -89 -250 -62 -214 -66 -227 -63 -243 1 -8 -3 -20 -9 -27 -7 -8
-9 -23 -5 -35 4 -12 2 -20 -5 -20 -8 0 -11 -11 -8 -30 3 -16 2 -27 -1 -24 -7
7 -47 -178 -61 -286 -6 -47 -17 -125 -25 -175 -32 -205 -43 -599 -23 -815 4
-36 10 -119 14 -185 7 -101 10 -113 15 -75 6 35 7 29 4 -25 -5 -105 35 -387
57 -401 4 -3 8 -18 8 -35 0 -29 35 -210 47 -239 3 -8 7 -22 8 -30 1 -8 14 -59
30 -113 19 -68 31 -94 37 -85 6 9 7 6 4 -8 -4 -12 8 -60 28 -115 23 -61 36
-85 37 -69 1 14 5 1 10 -27 13 -81 156 -427 183 -445 6 -4 7 -8 3 -8 -9 0 78
-167 96 -185 5 -5 4 0 -2 12 -17 33 -12 42 5 10 8 -15 12 -32 9 -37 -3 -6 -1
-10 5 -10 6 0 8 -4 5 -10 -3 -5 -2 -10 4 -10 6 0 13 -16 17 -36 4 -23 14 -39
29 -46 12 -5 22 -15 22 -22 0 -40 223 -381 250 -381 6 0 15 -4 20 -9 5 -5 3
-6 -4 -2 -26 15 -12 -11 33 -59 25 -28 46 -52 46 -55 0 -3 39 -54 88 -115 173
-216 426 -475 466 -475 8 0 14 -6 14 -14 0 -46 496 -422 609 -462 20 -7 30
-13 22 -14 -20 0 21 -30 126 -90 53 -30 97 -49 104 -44 7 4 9 3 5 -4 -4 -6 15
-17 51 -27 40 -12 52 -19 43 -25 -17 -11 -16 -12 37 -39 53 -26 71 -28 52 -3
-13 15 -12 16 3 3 10 -7 15 -17 12 -22 -3 -5 16 -18 41 -29 56 -24 69 -25 61
-4 -3 8 -2 12 4 9 6 -3 10 -13 10 -21 0 -8 4 -14 9 -14 5 0 8 -18 7 -39 0 -22
-5 -37 -10 -34 -5 4 -6 1 -3 -4 7 -12 -30 -106 -44 -111 -4 -2 -5 -10 -2 -18
3 -8 0 -14 -6 -14 -6 0 -8 -7 -4 -17 4 -10 2 -14 -4 -10 -6 4 -14 0 -17 -9 -9
-24 -7 -31 5 -14 10 13 10 13 6 0 -32 -105 -42 -129 -47 -120 -3 5 -13 -12
-22 -40 l-16 -49 580 -1 c464 0 578 2 572 12 -4 7 -18 27 -30 45 -13 17 -24
34 -24 37 0 3 -22 44 -49 91 -97 168 -132 292 -156 555 -25 266 -15 466 35
699 12 52 19 100 16 108 -4 10 -47 13 -200 13 -178 0 -195 -1 -189 -17 4 -11
3 -14 -5 -9 -12 7 -16 -3 -12 -41 1 -12 -7 -41 -18 -65 -10 -24 -22 -56 -26
-73 -4 -16 -21 -69 -38 -116 l-30 -87 -91 43 c-147 70 -257 137 -257 158 0 19
57 134 76 152 15 14 83 126 124 205 18 36 64 108 101 160 82 114 158 241 175
289 7 20 19 37 28 39 9 2 16 7 16 12 0 5 4 20 9 34 13 32 45 25 61 -15 7 -15
20 -31 30 -34 10 -3 21 -12 24 -20 3 -8 12 -15 21 -15 8 0 15 -5 15 -11 0 -5
4 -8 9 -5 5 4 11 2 13 -3 7 -22 96 -20 97 2 1 4 1 15 2 25 0 11 5 7 15 -13
l15 -30 -4 32 c-2 18 0 30 3 28 4 -3 9 -52 12 -111 4 -85 8 -108 21 -116 10
-5 17 -13 17 -18 0 -11 50 -62 50 -52 0 4 4 2 8 -5 4 -7 13 -9 19 -5 20 13
163 322 163 353 0 18 5 29 14 29 7 0 19 7 26 15 11 13 9 20 -10 40 -31 32 -60
34 -52 3 5 -21 4 -22 -11 -9 -19 15 -19 13 -8 -45 6 -29 4 -46 -6 -59 -7 -11
-13 -17 -14 -14 0 2 -2 13 -4 24 -2 11 0 22 4 25 5 3 3 11 -5 17 -11 11 -12 6
-10 -27 2 -22 -1 -40 -5 -40 -13 0 -11 127 1 135 5 3 10 14 10 23 0 13 -9 17
-34 17 -23 0 -32 -4 -29 -12 6 -15 -13 -17 -22 -3 -3 6 -13 10 -21 10 -8 0
-13 -4 -9 -9 3 -5 1 -12 -4 -15 -5 -4 -12 -2 -16 4 -3 5 -14 10 -23 10 -13 0
-14 -2 -4 -9 11 -7 11 -9 -2 -14 -10 -4 -16 -1 -16 9 0 8 -4 12 -10 9 -5 -3
-10 -1 -10 4 0 6 5 11 11 11 5 0 7 4 4 10 -4 7 3 7 20 0 18 -7 33 -7 46 0 23
13 25 22 2 13 -11 -4 -14 -3 -9 5 4 7 31 12 62 12 55 0 61 4 44 30 -6 9 -5 20
3 30 10 13 10 13 -3 3 -21 -16 -34 -5 -49 37 -10 31 -9 36 13 56 l24 23 6 -31
c3 -16 3 -35 -1 -41 -3 -5 -1 -7 5 -3 10 6 28 -30 24 -47 -1 -4 13 -1 32 7 19
8 37 12 40 8 3 -3 6 -1 6 5 0 17 62 73 73 66 6 -3 7 -1 4 4 -4 6 -19 9 -34 7
-17 -2 -20 -1 -8 3 23 6 -48 31 -190 64 -49 12 -92 25 -95 28 -11 15 -69 33
-82 25 -7 -4 -10 -4 -6 1 11 11 -23 34 -50 35 -13 0 -21 4 -18 9 3 5 -1 11 -8
14 -12 5 -15 -6 -14 -53 1 -62 -21 -123 -47 -134 -8 -3 -15 -13 -15 -23 -1
-20 -23 -53 -36 -53 -14 0 -54 -64 -54 -86 0 -11 -13 -41 -30 -67 -16 -26 -30
-55 -30 -63 0 -9 -8 -18 -17 -20 -10 -3 -30 -31 -45 -62 -14 -31 -61 -111
-103 -177 -42 -66 -90 -148 -105 -182 -16 -35 -34 -63 -39 -63 -6 0 -11 -6
-11 -13 0 -8 -10 -22 -21 -33 -12 -10 -39 -57 -61 -104 -22 -47 -46 -89 -54
-93 -8 -4 -14 -12 -14 -17 0 -11 -60 -102 -73 -111 -14 -10 -256 151 -377 250
-125 102 -344 296 -382 340 l-28 30 58 62 c31 34 87 89 125 121 37 32 64 58
60 58 -5 0 -3 4 4 8 6 4 88 82 182 174 93 91 207 197 253 236 46 38 108 99
138 135 72 86 104 98 187 69 113 -39 326 -50 353 -17 7 8 -8 26 -54 63 -73 58
-171 168 -223 250 -86 134 -177 378 -147 395 7 4 58 3 113 -2 55 -6 162 -14
239 -17 125 -6 146 -5 208 14 93 29 132 55 150 100 8 20 28 64 44 97 26 55 83
311 106 478 3 26 9 47 13 46 3 0 47 -47 96 -105 118 -138 341 -355 402 -391
70 -41 132 -38 323 15 85 24 187 55 225 68 228 82 290 101 303 96 10 -4 13 -1
8 7 -5 8 -3 11 5 10 17 -3 19 -2 219 83 91 39 264 118 384 176 201 97 293 150
611 349 149 94 174 108 180 102 11 -12 67 -245 75 -316 14 -128 -22 -439 -60
-513 -16 -32 -21 -70 -8 -70 6 0 42 -18 80 -41 57 -34 85 -65 81 -89 0 -3 -3
-20 -7 -38 -3 -21 -2 -31 4 -27 6 3 10 0 10 -7 0 -9 16 -13 52 -13 40 0 53 -4
53 -15 0 -11 -11 -15 -42 -14 -23 0 -40 -3 -37 -7 3 -5 -13 -12 -36 -15 -23
-4 -40 -12 -40 -19 0 -8 -12 -23 -27 -35 -16 -12 -21 -18 -13 -14 12 6 12 4
-1 -12 -17 -20 -25 -47 -38 -126 -4 -26 -4 -45 1 -42 4 3 8 -4 8 -16 0 -14 -4
-19 -12 -14 -10 6 -10 5 -1 -8 7 -8 9 -18 5 -22 -4 -4 -2 -7 3 -6 25 5 45 -1
45 -15 0 -9 10 -19 23 -24 53 -21 91 -41 67 -35 -20 4 -22 3 -10 -5 9 -7 31
-8 55 -5 22 4 47 7 55 7 23 0 40 17 40 40 0 19 2 20 15 6 8 -8 19 -44 25 -79
5 -36 12 -75 14 -88 4 -29 36 -59 57 -54 13 2 15 -3 12 -23 -5 -25 -5 -25 68
-25 55 0 70 3 59 11 -11 8 -4 9 27 6 32 -4 49 0 67 14 13 10 27 15 32 11 5 -4
2 2 -6 13 -8 11 -11 17 -7 14 4 -4 21 7 37 23 24 24 30 38 30 74 0 41 2 45 30
50 16 4 27 10 25 14 -3 5 25 10 62 13 38 2 92 7 121 10 41 5 54 3 58 -8 4 -8
10 -12 15 -10 4 3 17 -2 27 -12 10 -10 24 -19 31 -21 19 -4 125 -73 129 -83 2
-5 7 -7 11 -5 4 3 27 -8 52 -25 24 -16 52 -29 62 -29 11 0 21 -9 24 -20 3 -11
16 -23 29 -26 13 -3 24 -11 24 -17 0 -6 3 -8 6 -4 9 9 84 -31 84 -45 0 -6 3
-9 6 -5 4 3 38 -16 78 -42 39 -26 90 -58 114 -70 23 -12 42 -25 42 -30 0 -4
-15 -28 -34 -52 -18 -25 -54 -76 -80 -114 -38 -59 -98 -141 -149 -205 -51 -64
-96 -119 -118 -145 -78 -90 -188 -213 -215 -241 l-31 -32 -79 80 c-43 44 -106
109 -139 143 -224 237 -358 375 -483 498 -79 78 -157 160 -173 184 -17 24 -41
46 -54 49 -14 3 -25 14 -25 23 0 9 -85 104 -189 213 -104 108 -192 206 -196
217 -7 23 -60 55 -75 46 -23 -14 -6 -46 60 -109 39 -37 68 -71 65 -76 -3 -6 0
-8 7 -5 7 2 29 -16 48 -41 19 -24 41 -50 48 -57 8 -6 60 -59 115 -117 56 -58
157 -161 224 -230 68 -69 123 -133 123 -141 0 -19 20 -39 38 -39 18 0 118
-101 127 -129 3 -11 13 -21 21 -21 19 0 67 -51 110 -116 18 -29 49 -61 67 -73
19 -11 55 -45 81 -73 58 -66 58 -66 156 -163 44 -43 79 -84 78 -90 -8 -30
-311 -279 -488 -400 -133 -91 -304 -192 -318 -187 -7 2 -33 45 -59 95 -25 51
-66 124 -91 162 -25 39 -45 76 -45 83 0 6 -4 12 -9 12 -5 0 -7 4 -4 9 4 5 3
11 -2 13 -9 4 -84 138 -77 138 3 0 -4 9 -15 20 -12 12 -18 26 -14 32 4 6 3 8
-3 5 -6 -4 -22 20 -38 56 -14 34 -33 69 -40 77 -7 8 -15 21 -17 29 -2 8 -10
23 -18 33 -32 40 -80 142 -70 148 6 4 0 12 -15 18 -14 6 -25 18 -25 26 0 9
-20 49 -45 89 -25 41 -45 79 -45 84 0 6 -9 18 -20 28 -11 10 -17 22 -14 26 3
5 1 9 -5 9 -11 0 -33 69 -26 80 3 4 -4 10 -14 13 -10 2 -21 16 -25 31 -3 14
-24 53 -45 86 -21 33 -42 71 -45 84 -3 14 -29 62 -56 107 -28 45 -50 86 -50
91 0 4 -7 8 -15 8 -22 0 -18 -35 8 -67 13 -15 29 -49 36 -74 7 -25 32 -79 57
-119 42 -70 56 -120 34 -120 -5 0 -10 4 -10 8 0 4 -9 8 -19 8 -13 0 -17 -4
-11 -11 6 -7 0 -10 -18 -9 -22 1 -30 -6 -43 -36 -19 -42 -31 -53 -51 -45 -12
5 -13 13 -4 40 6 18 14 31 18 29 3 -2 9 0 12 5 4 5 2 12 -4 16 -5 3 -10 23
-10 44 0 52 -11 101 -22 101 -5 0 -24 16 -42 36 -22 24 -38 34 -46 29 -9 -6
-11 -4 -5 5 6 10 3 12 -13 8 -12 -4 -20 -2 -17 2 3 4 -19 7 -49 6 -40 -2 -67
-10 -103 -32 -68 -42 -67 -61 4 -114 58 -44 203 -185 203 -199 0 -10 108 -111
119 -111 5 0 7 -9 4 -19 -3 -12 8 -42 26 -73 47 -81 53 -86 91 -84 27 1 36 7
41 26 4 14 7 19 8 13 1 -7 7 -13 14 -13 16 0 70 68 62 79 -8 14 12 23 34 16
16 -5 50 -55 128 -189 7 -12 13 -31 13 -43 0 -13 6 -23 14 -23 13 0 46 -67 46
-94 0 -8 7 -16 15 -19 8 -4 33 -43 56 -89 23 -46 67 -128 99 -183 32 -55 76
-136 98 -180 22 -44 61 -115 86 -159 l45 -78 -27 -22 c-15 -12 -39 -29 -54
-39 -24 -15 -27 -15 -39 -1 -12 14 -14 14 -20 -3 -5 -13 -8 -7 -8 19 -1 21
-10 65 -22 98 -11 33 -17 65 -13 71 4 7 3 9 -3 6 -13 -8 -56 100 -46 115 3 7
1 8 -5 4 -7 -4 -12 -14 -12 -23 0 -11 -6 -14 -25 -9 -18 5 -25 2 -25 -9 0 -12
-16 -15 -85 -15 -69 0 -85 3 -85 15 0 10 -10 15 -34 15 -34 0 -35 0 -25 -32
11 -36 14 -71 29 -298 12 -188 12 -353 0 -440 -38 -271 -61 -355 -132 -490
-50 -95 -86 -148 -142 -208 l-30 -32 551 0 552 0 -18 53 c-93 263 -145 403
-157 423 -12 17 -13 28 -5 41 6 10 11 15 11 11 0 -10 154 62 274 128 160 89
246 147 246 167 0 9 4 17 10 17 5 0 7 -7 3 -16 -4 -10 9 -6 39 13 76 48 147
106 142 115 -3 4 3 8 13 8 32 0 108 53 236 165 99 86 123 111 109 117 -12 5
-9 7 11 7 23 1 66 39 226 199 109 108 235 242 280 297 234 283 460 618 462
684 1 30 2 32 8 12 6 -22 12 -15 54 58 27 46 46 89 43 97 -3 9 -1 12 4 9 6 -3
37 49 70 116 34 69 56 125 51 129 -6 3 -6 11 -1 20 9 13 10 13 10 0 1 -8 12 9
26 39 14 31 22 63 19 75 -5 15 -4 17 3 7 7 -9 18 12 39 75 17 49 34 97 38 107
6 14 2 17 -23 17 -20 0 -32 -6 -36 -17 -4 -14 -4 -14 -3 2 2 15 11 21 42 25
39 5 40 6 43 48 2 23 7 40 12 37 22 -13 129 363 146 510 11 104 17 136 24 125
15 -24 56 246 46 308 -4 25 -3 30 3 17 10 -24 26 158 25 287 0 68 2 85 13 81
18 -7 18 337 -1 470 -8 53 -12 106 -9 117 3 12 0 20 -7 20 -8 0 -10 11 -5 38
5 35 -16 275 -32 352 l-8 35 -6 -50 -6 -50 -1 63 c-1 34 -6 62 -12 62 -5 0
-10 7 -10 16 0 9 5 12 12 8 8 -5 9 2 5 26 -4 18 -8 40 -8 49 -1 9 -5 3 -9 -14
-7 -27 -8 -25 -9 18 -1 30 -5 47 -13 47 -9 0 -9 3 1 9 12 8 11 26 -9 123 -22
108 -114 398 -130 408 -4 3 -9 26 -12 51 -3 25 -19 73 -36 107 -17 33 -36 80
-42 104 -6 23 -24 70 -38 103 -26 59 -27 59 -34 30 -6 -25 -7 -24 -4 10 3 34
-10 67 -81 208 -46 93 -99 192 -117 220 -18 29 -51 81 -74 117 -28 44 -42 58
-43 45 l0 -20 -8 20 c-5 11 -7 23 -4 27 4 7 -66 118 -74 118 -2 0 -1 -4 2 -10
10 -16 -1 -11 -16 7 -10 11 -10 14 -1 9 18 -11 15 2 -9 35 -11 16 -24 27 -29
24 -5 -3 -12 0 -16 6 -5 8 -3 9 6 4 8 -5 11 -3 8 6 -3 8 -11 13 -17 11 -7 -1
-10 2 -6 8 5 9 -67 116 -132 193 -21 26 -23 27 -23 8 0 -12 6 -21 15 -21 8 0
15 -7 15 -15 0 -12 -3 -12 -20 2 -11 10 -20 29 -20 44 0 15 -7 32 -16 40 -9 7
-36 41 -61 76 -28 40 -52 63 -64 63 -13 0 -19 7 -19 22 0 45 -418 432 -660
612 -136 101 -354 245 -500 329 -206 118 -594 297 -755 347 -22 7 -44 16 -49
20 -5 5 -15 6 -24 3 -11 -5 -13 -3 -7 7 6 10 2 11 -21 6 -19 -4 -24 -3 -15 3
15 10 -7 18 -119 46 -36 9 -101 28 -145 41 -154 49 -616 134 -651 120 -8 -3
-13 -2 -10 3 6 10 -58 17 -224 27 -99 6 -114 5 -105 -7 6 -8 3 -7 -7 3 -15 16
-39 18 -277 18 -254 0 -261 -1 -261 -20z m-237 -27 c-7 -2 -19 -2 -25 0 -7 3
-2 5 12 5 14 0 19 -2 13 -5z m-220 -40 c-7 -2 -21 -2 -30 0 -10 3 -4 5 12 5
17 0 24 -2 18 -5z m-85 -10 c-10 -2 -28 -2 -40 0 -13 2 -5 4 17 4 22 1 32 -1
23 -4z m2159 -119 c-3 -3 -12 -4 -19 -1 -8 3 -5 6 6 6 11 1 17 -2 13 -5z m-44
-11 c-7 -2 -21 -2 -30 0 -10 3 -4 5 12 5 17 0 24 -2 18 -5z m94 1 c-3 -3 -12
-4 -19 -1 -8 3 -5 6 6 6 11 1 17 -2 13 -5z m60 -10 c-3 -3 -12 -4 -19 -1 -8 3
-5 6 6 6 11 1 17 -2 13 -5z m-3217 -134 c-14 -4 -34 -8 -45 -8 -16 0 -15 2 5
8 14 4 34 8 45 8 16 0 15 -2 -5 -8z m1947 -187 c-3 -10 -5 -4 -5 12 0 17 2 24
5 18 2 -7 2 -21 0 -30z m-130 -10 c-3 -10 -5 -4 -5 12 0 17 2 24 5 18 2 -7 2
-21 0 -30z m-1067 -7 c0 -2 -8 -10 -17 -17 -16 -13 -17 -12 -4 4 13 16 21 21
21 13z m1149 -33 c0 -25 -1 -25 -8 -8 -5 11 -7 23 -4 28 8 14 13 7 12 -20z
m-54 -55 c1 -29 2 -66 3 -83 1 -16 -1 -119 -4 -227 -5 -175 -8 -198 -23 -198
-13 0 -13 2 -2 9 19 12 -52 20 -187 20 -89 0 -125 -4 -166 -20 -59 -22 -131
-90 -142 -134 -4 -15 -9 -22 -13 -17 -3 6 -6 -28 -6 -74 0 -60 4 -87 13 -93 8
-5 12 -19 10 -32 -2 -19 -8 -23 -28 -21 -20 2 -22 1 -10 -8 12 -9 7 -10 -20
-5 -26 5 -31 4 -20 -4 13 -9 13 -11 -2 -11 -9 0 -18 4 -20 9 -1 5 -19 6 -38 3
l-35 -6 35 -7 35 -7 -40 1 c-25 1 -45 -4 -53 -13 -10 -13 -11 -12 -5 5 6 17 5
18 -9 5 -9 -8 -14 -18 -11 -22 2 -5 -5 -8 -16 -8 -17 0 -81 -53 -81 -67 0 -3
-10 -25 -22 -49 -21 -43 -28 -47 -80 -47 -10 0 -15 -4 -12 -8 3 -5 9 -7 14 -4
5 3 11 1 14 -4 12 -19 -12 -20 -29 -1 -15 16 -32 20 -89 21 -54 0 -66 2 -48
10 13 5 36 7 50 4 23 -5 24 -4 6 4 -12 5 -59 6 -115 1 -52 -4 -98 -5 -103 -2
-5 3 -6 0 -2 -6 5 -8 -4 -12 -28 -12 -24 0 -36 -5 -36 -14 0 -7 -11 -16 -25
-18 -14 -3 -25 -1 -25 3 0 5 9 9 20 9 11 0 20 5 20 10 0 17 -26 11 -45 -10 -9
-10 -34 -25 -54 -31 -50 -16 -55 -20 -40 -30 8 -5 10 -9 4 -9 -5 0 -17 5 -25
10 -10 6 -11 10 -2 10 22 0 13 20 -24 54 -20 19 -34 39 -30 45 4 6 2 9 -7 5
-8 -3 -20 2 -27 11 -7 8 -18 15 -24 15 -6 0 -22 9 -35 19 -14 10 -31 16 -40
13 -9 -3 -12 -1 -7 6 3 6 2 13 -4 17 -5 3 -10 1 -10 -4 0 -6 -5 -11 -10 -11
-6 0 -9 6 -8 12 2 7 -8 14 -22 15 -22 2 -23 2 -5 -6 13 -7 15 -10 5 -10 -8 0
-24 6 -34 14 -11 8 -17 15 -13 15 12 0 -50 125 -115 230 -35 58 -72 124 -81
146 l-16 41 127 61 c70 34 179 82 242 108 63 25 124 51 135 57 11 6 25 12 30
13 6 1 55 15 110 32 55 17 142 43 194 57 89 25 94 25 107 8 7 -10 14 -24 14
-30 0 -7 3 -13 8 -13 4 0 8 -17 10 -37 3 -44 20 -118 104 -450 52 -208 63
-243 79 -243 11 0 19 3 19 8 0 4 -40 168 -90 364 -49 197 -90 369 -90 384 0
18 -4 24 -13 21 -10 -4 -13 2 -9 19 2 13 9 24 16 24 11 0 71 10 276 44 152 26
362 46 543 53 l167 6 0 39 c0 21 -4 38 -10 38 -5 0 -10 -16 -10 -35 l0 -35
-107 2 -108 2 103 3 c101 4 102 4 102 28 0 24 -2 25 -77 26 -96 1 -62 17 40
18 43 1 66 5 62 11 -3 6 0 10 7 10 9 0 13 -16 13 -52z m-792 -5 c-42 -4 -59
-25 -30 -36 9 -4 9 -6 0 -6 -16 -1 -26 17 -19 34 4 10 19 14 48 13 l43 -1 -42
-4z m200 -10 c-7 -2 -19 -2 -25 0 -7 3 -2 5 12 5 14 0 19 -2 13 -5z m240 -20
c-7 -2 -21 -2 -30 0 -10 3 -4 5 12 5 17 0 24 -2 18 -5z m1504 -15 c-3 -8 -6
-5 -6 6 -1 11 2 17 5 13 3 -3 4 -12 1 -19z m-1740 6 c-3 -3 -12 -4 -19 -1 -8
3 -5 6 6 6 11 1 17 -2 13 -5z m78 -4 c3 -5 1 -10 -4 -10 -6 0 -11 5 -11 10 0
6 2 10 4 10 3 0 8 -4 11 -10z m72 4 c-3 -3 -12 -4 -19 -1 -8 3 -5 6 6 6 11 1
17 -2 13 -5z m593 -22 c59 2 106 0 104 -3 -2 -3 33 -9 78 -12 45 -4 134 -16
197 -26 64 -11 163 -28 221 -37 58 -9 115 -21 127 -26 11 -6 52 -18 91 -27
l69 -16 -13 -60 c-6 -33 -18 -73 -24 -90 -7 -16 -13 -43 -14 -60 -1 -21 -7
-31 -20 -33 -14 -3 -17 0 -13 12 4 9 2 15 -4 13 -5 -1 -17 12 -27 28 -9 17
-21 32 -25 34 -5 2 -21 17 -35 33 -27 29 -134 90 -156 87 -24 -3 -37 1 -31 11
4 6 -1 7 -10 3 -10 -3 -21 0 -26 8 -11 19 -150 20 -156 2 -3 -7 -12 -13 -22
-13 -9 0 -23 -6 -29 -12 -7 -7 -18 -13 -25 -14 -7 0 -20 -2 -29 -2 -9 -1 -28
-20 -41 -42 -13 -22 -27 -37 -32 -33 -4 5 -5 3 -2 -3 4 -7 0 -17 -8 -24 -8 -7
-15 -18 -15 -24 0 -16 -46 -77 -52 -70 -4 3 -9 0 -14 -7 -5 -8 -3 -10 6 -4 10
6 12 0 7 -31 -4 -21 -7 -63 -7 -91 0 -67 -19 -70 -73 -13 -20 22 -42 40 -47
40 -6 0 -10 5 -10 11 0 5 -4 7 -10 4 -5 -3 -10 -1 -10 5 0 6 -4 9 -8 6 -5 -3
-16 4 -26 16 -16 19 -17 39 -10 257 4 130 10 228 12 218 3 -16 14 -18 112 -15z
m33 11 c-7 -2 -21 -2 -30 0 -10 3 -4 5 12 5 17 0 24 -2 18 -5z m897 -27 c0 -2
-9 -6 -20 -9 -11 -3 -18 -1 -14 4 5 9 34 13 34 5z m-487 -13 c-7 -2 -19 -2
-25 0 -7 3 -2 5 12 5 14 0 19 -2 13 -5z m-1616 -45 c-3 -7 -5 -2 -5 12 0 14 2
19 5 13 2 -7 2 -19 0 -25z m2034 -21 c4 -16 3 -25 -2 -21 -5 3 -9 14 -9 25 0
27 -20 24 -21 -3 0 -13 -3 -17 -6 -10 -7 18 5 44 19 40 7 -3 15 -16 19 -31z
m-2104 -13 c-3 -3 -12 -4 -19 -1 -8 3 -5 6 6 6 11 1 17 -2 13 -5z m2225 -47
c2 -20 9 -27 35 -32 18 -3 39 -3 46 1 6 4 9 4 5 -1 -11 -11 39 -35 74 -35 16
0 27 -4 24 -9 -3 -5 43 -25 102 -46 59 -20 133 -52 164 -70 83 -49 239 -116
251 -108 6 4 7 1 2 -7 -6 -10 -4 -12 9 -7 11 5 15 3 10 -5 -5 -8 -2 -9 10 -5
9 4 15 3 12 -1 -2 -4 18 -20 45 -36 36 -20 60 -27 84 -24 19 2 31 0 29 -4 -3
-4 -12 -8 -20 -8 -8 0 -12 -5 -9 -10 7 -11 -39 -89 -74 -126 -11 -12 -34 -52
-52 -88 -18 -36 -36 -66 -41 -66 -5 0 -7 -4 -4 -8 2 -4 -18 -39 -46 -77 -28
-37 -57 -88 -65 -112 -8 -24 -39 -80 -69 -125 -30 -44 -54 -86 -54 -92 0 -6
-10 -17 -22 -25 -22 -14 -22 -14 -3 -22 20 -7 20 -8 -1 -8 -11 -1 -38 -16 -60
-35 l-40 -34 -173 -2 c-163 -1 -172 0 -162 17 11 22 28 145 26 188 -4 71 -18
101 -67 148 -27 27 -52 46 -56 43 -12 -13 -31 34 -38 95 -8 78 -8 77 -22 112
-7 16 -12 34 -12 41 0 6 -5 17 -11 23 -15 15 14 200 45 292 14 41 26 83 26 93
0 10 10 52 22 93 20 69 24 74 45 69 20 -5 23 -2 23 22 0 34 9 27 12 -9z m-554
-4 c-10 -2 -26 -2 -35 0 -10 3 -2 5 17 5 19 0 27 -2 18 -5z m-1915 -20 c-7 -2
-19 -2 -25 0 -7 3 -2 5 12 5 14 0 19 -2 13 -5z m2967 -53 c10 -6 2 -7 -25 -3
-49 7 -58 13 -19 13 16 0 36 -5 44 -10z m-21 -16 c2 -2 -8 -4 -22 -4 -23 0
-27 -4 -27 -29 0 -20 6 -31 18 -34 13 -3 12 -4 -3 -3 -16 1 -21 9 -23 38 -2
24 -9 38 -20 41 -9 3 3 3 28 0 25 -3 47 -7 49 -9z m-78 -27 c-10 -9 -11 -8 -5
6 3 10 9 15 12 12 3 -3 0 -11 -7 -18z m-1171 9 c0 -2 -8 -10 -17 -17 -16 -13
-17 -12 -4 4 13 16 21 21 21 13z m250 -37 c0 -6 9 -9 20 -6 10 3 18 0 17 -5
-1 -6 4 -13 12 -16 9 -3 11 0 6 9 -5 8 -4 11 1 6 5 -5 9 -12 9 -15 0 -4 14
-34 30 -67 41 -84 41 -151 -2 -234 -17 -33 -28 -61 -23 -61 4 0 21 -18 38 -40
16 -22 31 -37 34 -34 4 3 9 0 14 -7 5 -8 3 -10 -6 -4 -10 6 -11 0 -7 -26 4
-19 9 -81 12 -139 9 -170 16 -233 25 -224 5 5 10 18 12 29 6 36 30 52 68 44
51 -11 63 -33 57 -106 -6 -87 -37 -144 -111 -205 -33 -29 -60 -55 -59 -59 2
-5 -5 -5 -14 -2 -10 4 -14 2 -10 -4 5 -7 -1 -9 -15 -6 -14 3 -18 1 -12 -4 20
-14 -107 -13 -163 1 -51 14 -52 14 -73 -14 -11 -15 -59 -47 -105 -71 -57 -30
-85 -50 -85 -61 0 -16 -10 -18 -92 -16 l-93 2 88 3 c48 2 87 8 87 13 0 6 -17
10 -38 10 -22 0 -60 6 -85 14 l-46 14 -6 -28 c-3 -15 -14 -34 -23 -42 -24 -21
-98 -46 -157 -53 -27 -4 -58 -9 -69 -12 -12 -3 -16 -1 -12 6 4 6 0 11 -9 11
-9 0 -36 14 -60 30 l-44 31 -21 -42 c-12 -22 -40 -61 -62 -85 -22 -24 -38 -45
-34 -45 3 -1 11 -3 16 -4 6 -1 22 -4 38 -5 25 -3 25 -3 3 -7 l-23 -5 27 -28
c16 -16 32 -27 36 -24 5 3 7 -1 4 -8 -3 -7 2 -31 10 -53 9 -26 15 -33 16 -20
1 18 2 18 6 1 4 -16 11 -17 58 -11 62 7 177 -4 169 -16 -3 -5 -1 -9 4 -9 4 0
27 -16 50 -36 34 -29 42 -32 42 -17 0 10 -9 24 -20 31 -11 7 -20 21 -20 33 0
11 -4 17 -11 14 -16 -10 20 68 37 82 9 6 23 9 32 6 9 -4 13 -2 9 4 -4 6 4 8
21 6 21 -4 24 -2 12 6 -11 8 -7 9 19 4 25 -4 32 -3 27 5 -5 9 11 12 56 11 38
0 56 -3 44 -8 -15 -6 -11 -9 22 -19 22 -7 48 -9 58 -6 13 4 15 3 6 -3 -9 -7
-6 -15 14 -34 15 -13 35 -37 45 -54 l19 -30 0 36 c0 24 -8 46 -25 65 -14 16
-25 36 -25 44 0 13 -1 13 -10 0 -6 -9 -10 -10 -10 -3 0 6 5 15 10 18 6 3 10
15 10 26 0 11 4 18 9 15 4 -3 25 3 45 13 20 11 32 21 26 23 -19 6 155 1 197
-6 39 -7 43 -5 65 24 12 18 22 36 21 41 -2 5 0 8 5 7 4 -1 26 10 49 26 69 46
150 58 209 30 l35 -17 57 55 c67 64 112 82 193 76 52 -4 64 -9 97 -41 21 -20
44 -37 52 -37 11 0 11 -3 3 -8 -8 -5 -8 -13 2 -31 l13 -25 16 32 c9 18 14 38
10 44 -4 6 -3 8 3 5 6 -4 19 6 29 21 34 53 128 143 179 172 70 40 154 60 251
60 70 0 83 3 87 18 4 13 5 13 6 -4 1 -14 12 -26 29 -33 44 -18 109 -88 136
-144 50 -108 57 -276 16 -429 -11 -40 -20 -92 -20 -115 0 -24 -4 -43 -8 -43
-4 0 -6 17 -4 38 l4 37 -46 -59 c-25 -33 -42 -62 -37 -65 5 -3 3 -12 -5 -19
-12 -10 -14 -10 -14 3 0 11 -12 6 -43 -18 -24 -18 -58 -39 -76 -47 -20 -8 -28
-16 -21 -20 6 -4 -12 -10 -41 -14 -29 -4 -60 -11 -68 -15 -18 -9 -161 4 -205
19 -23 8 -33 7 -48 -7 -14 -13 -16 -18 -6 -25 10 -5 8 -8 -5 -8 -9 0 -36 -14
-60 -31 -85 -62 -190 -85 -260 -56 l-37 16 0 -28 c0 -16 -8 -37 -17 -48 -10
-10 -13 -12 -8 -4 8 12 6 13 -10 7 -82 -34 -104 -38 -190 -34 -98 5 -118 13
-154 61 -21 29 -22 30 -16 7 4 -14 18 -37 32 -52 21 -22 24 -31 16 -55 -18
-53 -146 -88 -261 -71 -50 8 -56 7 -90 -20 -91 -72 -207 -106 -302 -90 -41 7
-47 5 -77 -24 -18 -17 -30 -35 -27 -40 3 -5 2 -8 -3 -7 -4 1 -21 -3 -38 -10
-16 -7 -39 -16 -50 -21 -16 -6 -23 -23 -33 -79 -31 -183 -141 -276 -322 -274
-52 0 -89 7 -120 20 -52 24 -155 92 -155 103 0 4 -11 21 -25 38 -14 17 -47 64
-75 103 l-50 72 -3 -37 c-2 -25 3 -44 17 -62 21 -27 27 -78 13 -101 -9 -14
-85 -43 -114 -43 -10 0 -17 -4 -14 -8 9 -16 -130 1 -171 20 -92 43 -129 109
-139 249 l-7 96 -70 -25 c-83 -28 -204 -39 -263 -23 -50 13 -128 80 -153 130
-75 147 -38 315 100 453 38 38 62 68 53 68 -8 0 -37 22 -63 49 l-47 49 -29
-45 c-36 -57 -124 -144 -192 -189 -118 -78 -284 -122 -420 -110 -67 5 -155 35
-169 57 -3 5 -13 9 -23 9 -10 0 -26 10 -37 23 l-19 22 23 -19 c12 -11 22 -17
22 -14 0 9 -53 103 -62 109 -15 10 -11 182 4 173 5 -3 6 7 3 23 -4 16 -3 23 2
17 5 -7 16 0 30 23 13 19 17 31 10 28 -6 -3 -4 0 7 7 10 7 32 24 49 38 17 14
32 24 34 23 6 -5 18 -3 33 7 11 7 4 20 -38 64 -50 53 -52 54 -53 28 -2 -29
-13 48 -25 163 -8 82 12 172 50 233 57 91 187 179 307 206 33 8 71 23 82 33
19 16 20 16 8 1 -11 -15 -11 -18 0 -18 23 0 42 17 35 29 -4 6 -4 11 1 10 4 -1
15 -1 23 1 11 1 10 4 -5 11 -16 8 -14 8 11 5 22 -4 38 1 52 15 27 24 52 25 46
2 -4 -14 8 -22 55 -36 60 -19 115 -61 127 -99 5 -16 8 -18 15 -7 7 9 7 5 3
-13 -4 -18 -2 -28 5 -28 6 0 11 -13 11 -29 0 -20 6 -31 18 -34 13 -4 11 -5 -5
-6 -13 0 -23 -6 -23 -12 0 -7 7 -8 18 -4 9 3 29 9 45 12 15 3 27 9 27 14 0 5
38 9 85 9 69 0 85 3 85 15 0 8 5 15 11 15 6 0 9 -10 7 -22 -3 -20 -8 -23 -38
-20 l-35 2 35 -15 c19 -9 52 -32 73 -53 41 -40 50 -28 15 21 -15 20 -22 44
-21 69 1 26 -2 36 -9 32 -7 -4 -8 -2 -4 5 4 6 11 9 16 6 4 -3 10 -1 12 5 3 11
127 40 174 40 99 0 194 -64 216 -146 10 -34 14 -41 19 -27 4 10 8 -52 9 -137
1 -89 5 -144 9 -130 5 14 16 40 25 58 9 17 14 32 10 32 -4 0 -1 6 5 14 6 8 14
37 18 65 3 28 10 54 14 57 5 2 6 19 3 37 -4 27 -3 29 6 12 8 -16 9 -11 6 24
-3 32 -2 41 5 30 8 -10 9 -3 4 24 -5 29 -3 37 6 31 9 -5 10 1 6 25 -4 18 -3
30 2 27 9 -6 44 65 44 89 0 8 4 15 8 15 3 0 9 8 11 18 7 23 297 117 338 108
35 -6 40 8 40 115 0 80 -11 103 -55 111 -13 2 -20 11 -21 28 -1 22 0 22 3 3 7
-36 21 -27 25 15 3 34 7 39 63 67 121 61 256 31 322 -70 18 -28 37 -55 43 -62
5 -7 10 -21 10 -31 0 -18 3 -18 53 -5 140 36 246 -45 273 -212 l12 -70 1 118
c1 76 -3 117 -10 117 -15 0 -40 66 -32 87 9 25 36 50 50 46 21 -7 22 12 3 67
-11 30 -19 73 -20 95 0 48 37 131 74 165 l28 25 -24 6 c-17 5 -12 8 22 9 25 1
59 6 75 10 45 12 65 11 65 -1z m184 -14 c-4 -8 -8 -15 -10 -15 -2 0 -4 7 -4
15 0 8 4 15 10 15 5 0 7 -7 4 -15z m63 -22 c-3 -10 -5 -4 -5 12 0 17 2 24 5
18 2 -7 2 -21 0 -30z m-438 14 c-2 -1 -13 -9 -24 -17 -19 -14 -19 -14 -6 3 7
9 18 17 24 17 6 0 8 -1 6 -3z m338 -39 c-3 -8 -6 -5 -6 6 -1 11 2 17 5 13 3
-3 4 -12 1 -19z m33 -3 c0 -15 -6 -25 -14 -25 -8 0 -17 -10 -19 -22 -4 -20 -4
-19 -6 5 -1 18 4 27 14 27 8 0 15 9 15 20 0 11 2 20 5 20 3 0 5 -11 5 -25z
m-500 -19 c0 -3 -4 -8 -10 -11 -5 -3 -10 -1 -10 4 0 6 5 11 10 11 6 0 10 -2
10 -4z m-3380 -10 c0 -2 -8 -10 -17 -17 -16 -13 -17 -12 -4 4 13 16 21 21 21
13z m3900 -11 c0 -8 -4 -15 -10 -15 -5 0 -7 7 -4 15 4 8 8 15 10 15 2 0 4 -7
4 -15z m1347 -7 c-3 -8 -6 -5 -6 6 -1 11 2 17 5 13 3 -3 4 -12 1 -19z m-1893
-6 c3 -5 -1 -9 -9 -9 -8 0 -12 4 -9 9 3 4 7 8 9 8 2 0 6 -4 9 -8z m-396 -9
c-15 -2 -42 -2 -60 0 -18 2 -6 4 27 4 33 0 48 -2 33 -4z m494 -20 c-3 -16 -7
-22 -10 -15 -4 13 4 42 11 42 2 0 2 -12 -1 -27z m515 -10 c-3 -10 -5 -4 -5 12
0 17 2 24 5 18 2 -7 2 -21 0 -30z m1206 22 c-3 -9 -8 -14 -10 -11 -3 3 -2 9 2
15 9 16 15 13 8 -4z m-1266 -87 c-2 -13 -4 -3 -4 22 0 25 2 35 4 23 2 -13 2
-33 0 -45z m-1267 39 c0 -2 -10 -12 -22 -23 l-23 -19 19 23 c18 21 26 27 26
19z m687 -39 c-3 -7 -5 -2 -5 12 0 14 2 19 5 13 2 -7 2 -19 0 -25z m120 -25
c-3 -10 -5 -2 -5 17 0 19 2 27 5 18 2 -10 2 -26 0 -35z m-2373 5 c8 -18 33
-66 55 -105 22 -40 39 -73 36 -73 -2 0 5 -10 16 -22 11 -13 33 -51 49 -85 l29
-63 -62 -1 c-46 0 -57 -3 -42 -10 14 -6 5 -7 -29 -3 -35 4 -46 2 -41 -6 6 -9
2 -9 -15 0 -12 7 -20 8 -16 2 3 -5 -18 -19 -47 -31 -28 -12 -62 -27 -74 -33
-12 -6 -29 -8 -37 -5 -9 4 -16 3 -16 -2 0 -5 -16 -12 -35 -15 -19 -4 -35 -13
-35 -20 0 -8 -16 -17 -36 -20 -19 -4 -52 -23 -73 -42 -21 -19 -44 -34 -50 -34
-6 0 -11 -6 -11 -13 0 -16 -44 -60 -52 -52 -3 3 -11 -8 -18 -25 -7 -16 -17
-30 -22 -30 -5 0 -7 -4 -4 -9 3 -5 -1 -12 -10 -15 -11 -4 -14 -15 -11 -33 2
-16 2 -22 0 -15 -4 10 -8 10 -19 1 -19 -16 -18 -39 4 -40 16 -1 16 -2 0 -6
-11 -3 -18 -14 -18 -29 0 -15 -6 -24 -15 -24 -12 0 -15 -16 -15 -84 0 -94 8
-148 21 -140 5 3 9 -13 9 -36 0 -27 5 -43 15 -46 8 -4 15 -10 15 -16 0 -5 -4
-7 -9 -4 -4 3 -7 -12 -6 -35 1 -22 -2 -42 -7 -45 -4 -3 -6 -9 -3 -14 3 -5 1
-12 -5 -15 -6 -4 -23 -25 -37 -48 -25 -39 -27 -50 -29 -167 -1 -124 -1 -124 6
-30 l6 95 2 -113 c2 -88 6 -119 20 -139 9 -15 11 -24 5 -20 -9 6 -11 3 -7 -7
3 -9 11 -16 18 -16 6 0 4 -5 -4 -10 -12 -7 -7 -16 28 -45 23 -20 40 -40 38
-44 -3 -4 5 -8 17 -8 12 -1 23 -7 25 -13 3 -8 8 -7 18 1 11 9 15 6 20 -20 4
-17 10 -28 14 -26 5 3 14 -1 22 -8 7 -8 18 -12 24 -10 6 2 14 -5 16 -15 3 -10
11 -19 19 -20 32 -2 63 -12 71 -24 6 -10 8 -10 8 0 0 11 4 10 20 -1 40 -28
341 -7 413 30 28 14 36 6 15 -16 -11 -10 -10 -12 1 -9 7 2 16 -3 19 -11 2 -8
0 -11 -6 -7 -9 5 -10 -14 -2 -34 1 -3 2 -9 1 -13 -1 -5 3 -6 8 -2 6 3 8 13 5
23 -5 14 -4 14 6 -1 8 -13 9 -22 2 -29 -5 -5 -7 -19 -4 -31 6 -21 6 -21 13 3
6 22 7 20 8 -12 1 -21 1 -40 1 -43 -1 -13 32 -66 37 -61 10 9 33 -15 26 -27
-3 -6 -1 -7 5 -3 7 4 12 3 12 -2 0 -5 11 -14 25 -20 14 -6 34 -26 45 -44 11
-18 20 -30 20 -26 0 4 33 -9 73 -29 61 -31 85 -38 160 -42 96 -7 120 -20 133
-80 4 -14 17 -36 30 -49 13 -13 24 -27 24 -32 0 -6 11 -10 25 -10 16 0 25 -6
25 -15 0 -8 8 -15 18 -15 13 0 14 -2 3 -9 -9 -6 7 -19 57 -44 39 -19 68 -38
64 -43 -4 -4 -2 -5 3 -2 6 3 44 -2 85 -11 l75 -17 109 -112 c60 -61 108 -113
105 -115 -25 -17 -170 -67 -195 -67 -20 0 -111 51 -141 80 -13 11 -23 18 -23
15 0 -4 -13 3 -30 15 -16 12 -29 24 -27 28 1 4 -2 8 -8 10 -5 2 -13 10 -18 17
-4 8 -13 12 -20 9 -18 -6 -122 49 -122 65 0 8 -12 15 -26 17 -14 1 -72 32
-129 69 -110 71 -408 245 -420 245 -4 0 -10 9 -13 20 -3 11 -12 20 -20 20 -21
0 -318 172 -382 220 -27 21 -86 57 -130 81 -44 23 -96 54 -115 69 -51 39 -173
111 -277 164 -51 25 -96 52 -100 61 -5 8 -26 21 -48 28 -30 11 -40 20 -39 35
0 12 -3 19 -7 16 -11 -6 -150 63 -179 89 -14 13 -40 29 -57 36 -18 7 -33 17
-33 22 0 5 -9 9 -20 9 -11 0 -41 15 -67 34 -27 18 -84 55 -128 81 -89 53 -126
85 -100 85 33 0 13 20 -22 22 l-38 1 38 4 c20 2 37 9 37 14 0 6 4 8 9 5 5 -3
11 3 14 14 6 22 -8 28 -16 8 -4 -10 -6 -10 -6 0 -1 7 10 17 23 22 21 7 66 58
66 73 0 3 14 21 31 39 17 18 63 76 102 128 38 52 94 123 124 158 29 35 51 68
48 73 -4 5 0 9 7 9 7 0 56 46 109 102 l96 103 86 -87 c48 -47 100 -94 116
-104 17 -10 31 -27 33 -38 2 -13 12 -22 26 -24 18 -3 22 1 22 22 0 14 -8 30
-18 35 -20 10 -168 160 -202 204 l-22 28 48 45 c188 176 704 544 761 544 7 0
19 -15 27 -32z m1849 15 c-13 -2 -33 -2 -45 0 -13 2 -3 4 22 4 25 0 35 -2 23
-4z m-114 -7 c-11 -9 -69 -15 -64 -6 3 6 20 10 37 10 17 0 29 -2 27 -4z m2368
-38 c-3 -7 -5 -2 -5 12 0 14 2 19 5 13 2 -7 2 -19 0 -25z m-2402 12 c-3 -5
-12 -10 -18 -10 -7 0 -6 4 3 10 19 12 23 12 15 0z m1106 -27 c13 -17 13 -17
-6 -3 -11 8 -22 16 -24 17 -2 2 0 3 6 3 6 0 17 -8 24 -17z m1348 -60 c44 -32
123 -89 177 -128 54 -38 143 -107 198 -152 55 -45 103 -80 108 -77 4 3 8 0 8
-5 0 -6 9 -11 20 -11 19 0 45 -32 34 -43 -3 -2 31 -36 75 -73 43 -38 80 -72
80 -77 2 -13 -125 -134 -147 -141 -12 -4 -31 -20 -42 -36 -11 -16 -30 -32 -41
-35 -11 -4 -24 -18 -29 -31 -5 -13 -21 -29 -35 -34 -14 -5 -25 -14 -25 -19 0
-12 -49 -66 -54 -60 -2 2 -16 33 -31 69 -26 61 -61 119 -102 165 -30 34 -82
67 -94 59 -8 -4 -9 -3 -5 4 4 7 2 12 -4 12 -7 0 -31 14 -56 32 -29 20 -66 35
-111 44 -81 16 -173 18 -173 4 0 -5 -19 -10 -42 -10 -24 -1 -71 -7 -105 -14
-51 -11 -63 -11 -63 -1 0 7 33 69 73 136 40 68 88 152 106 186 19 35 37 60 42
57 5 -3 6 1 4 8 -3 8 14 39 37 69 24 30 54 79 67 107 14 29 30 52 38 52 7 0
49 -26 92 -57z m-5469 43 c0 -2 -8 -10 -17 -17 -16 -13 -17 -12 -4 4 13 16 21
21 21 13z m3527 -2 c-3 -3 -12 -4 -19 -1 -8 3 -5 6 6 6 11 1 17 -2 13 -5z
m170 -26 c-3 -8 -6 -5 -6 6 -1 11 2 17 5 13 3 -3 4 -12 1 -19z m390 0 c-3 -8
-6 -5 -6 6 -1 11 2 17 5 13 3 -3 4 -12 1 -19z m120 -15 c-3 -10 -5 -4 -5 12 0
17 2 24 5 18 2 -7 2 -21 0 -30z m-4254 2 c-3 -9 -8 -14 -10 -11 -3 3 -2 9 2
15 9 16 15 13 8 -4z m3647 1 c0 -2 -8 -10 -17 -17 -16 -13 -17 -12 -4 4 13 16
21 21 21 13z m2013 -16 c3 -11 1 -18 -4 -14 -5 3 -9 12 -9 20 0 20 7 17 13 -6z
m-5643 -36 c0 -8 -10 -14 -25 -14 -17 0 -25 5 -24 18 0 10 3 12 6 5 2 -7 12
-13 20 -13 10 0 13 6 9 16 -3 8 -2 12 4 9 6 -3 10 -13 10 -21z m3637 4 c-3 -8
-6 -5 -6 6 -1 11 2 17 5 13 3 -3 4 -12 1 -19z m-240 -20 c-3 -8 -6 -5 -6 6 -1
11 2 17 5 13 3 -3 4 -12 1 -19z m709 4 c-10 -2 -22 0 -28 6 -6 6 0 7 19 4 21
-5 23 -7 9 -10z m-526 -7 c-7 -8 -17 -15 -23 -15 -6 0 -2 7 9 15 25 19 30 19
14 0z m2070 4 c-13 -9 -12 -12 4 -22 10 -7 31 -22 45 -35 16 -14 8 -11 -21 8
-27 17 -48 35 -48 39 0 11 12 21 24 21 6 0 4 -5 -4 -11z m226 -45 l1 -49 -4
48 c-2 26 -8 47 -14 47 -5 0 -9 -5 -9 -12 0 -6 -3 -9 -6 -5 -9 9 6 29 19 24 7
-2 12 -25 13 -53z m-2339 30 c-3 -3 -12 -4 -19 -1 -8 3 -5 6 6 6 11 1 17 -2
13 -5z m740 -141 c-2 -21 -4 -4 -4 37 0 41 2 58 4 38 2 -21 2 -55 0 -75z
m1560 55 c-3 -7 -5 -2 -5 12 0 14 2 19 5 13 2 -7 2 -19 0 -25z m-1690 -180
c-2 -24 -4 -5 -4 42 0 47 2 66 4 43 2 -24 2 -62 0 -85z m1727 96 c3 -8 2 -12
-4 -9 -6 3 -10 10 -10 16 0 14 7 11 14 -7z m-4346 -55 c-3 -8 -7 -3 -11 10 -4
17 -3 21 5 13 5 -5 8 -16 6 -23z m43 22 c-9 -6 -12 -22 -9 -50 2 -23 0 -40 -5
-38 -5 1 -8 6 -8 10 1 4 1 25 1 47 0 31 4 40 18 40 13 0 14 -2 3 -9z m-1233
-22 c-10 -5 -18 -19 -18 -29 0 -10 -4 -21 -9 -24 -11 -7 -2 34 12 52 5 6 15
12 21 12 6 0 3 -5 -6 -11z m875 -66 c-7 -2 -21 -2 -30 0 -10 3 -4 5 12 5 17 0
24 -2 18 -5z m-856 -9 c-3 -3 -12 -4 -19 -1 -8 3 -5 6 6 6 11 1 17 -2 13 -5z
m983 2 c0 -2 -9 -6 -20 -9 -11 -3 -18 -1 -14 4 5 9 34 13 34 5z m4816 -19 c1
-12 1 -13 -3 -2 -6 20 -59 20 -67 0 -3 -8 -10 -15 -16 -15 -5 0 -2 9 8 20 22
26 76 24 78 -3z m121 -9 c-3 -8 -6 -5 -6 6 -1 11 2 17 5 13 3 -3 4 -12 1 -19z
m-4010 6 c-3 -3 -12 -4 -19 -1 -8 3 -5 6 6 6 11 1 17 -2 13 -5z m93 -34 l0
-30 -67 2 -68 2 63 3 c53 3 62 7 62 23 0 10 -6 21 -12 23 -8 3 -6 6 5 6 12 1
17 -7 17 -29z m4050 26 c0 -8 -51 -13 -56 -5 -3 5 9 9 25 9 17 0 31 -2 31 -4z
m-5250 -29 c11 -5 9 -6 -4 -4 -11 1 -21 9 -23 17 -3 10 -2 11 4 4 4 -6 15 -14
23 -17z m494 6 c4 -11 1 -11 -14 -3 -24 13 -25 17 -5 17 8 0 16 -6 19 -14z
m2629 10 c-7 -2 -19 -2 -25 0 -7 3 -2 5 12 5 14 0 19 -2 13 -5z m-2996 -29
c-3 -3 -12 -4 -19 -1 -8 3 -5 6 6 6 11 1 17 -2 13 -5z m880 0 c-3 -3 -12 -4
-19 -1 -8 3 -5 6 6 6 11 1 17 -2 13 -5z m2218 -4 c-3 -5 -12 -10 -18 -10 -7 0
-6 4 3 10 19 12 23 12 15 0z m2032 -22 c-3 -8 -6 -5 -6 6 -1 11 2 17 5 13 3
-3 4 -12 1 -19z m-32 2 c-3 -5 -14 -10 -23 -9 -14 0 -13 2 3 9 27 11 27 11 20
0z m-4238 -6 c-3 -3 -12 -4 -19 -1 -8 3 -5 6 6 6 11 1 17 -2 13 -5z m-302 -24
c-3 -5 1 -10 9 -10 9 0 16 -5 16 -10 0 -7 -7 -7 -20 0 -17 9 -20 30 -4 30 3 0
2 -4 -1 -10z m515 0 c0 -5 -8 -10 -17 -10 -15 0 -16 2 -3 10 19 12 20 12 20 0z
m2063 -33 c9 -3 17 -12 17 -19 0 -9 -3 -9 -8 -2 -4 6 -15 13 -24 17 -10 3 -18
12 -18 19 0 9 3 9 8 2 4 -6 15 -13 25 -17z m-2485 -4 c-10 -2 -28 -2 -40 0
-13 2 -5 4 17 4 22 1 32 -1 23 -4z m2409 -15 c-3 -8 -6 -5 -6 6 -1 11 2 17 5
13 3 -3 4 -12 1 -19z m976 5 c-7 -2 -21 -2 -30 0 -10 3 -4 5 12 5 17 0 24 -2
18 -5z m74 -9 c-3 -3 -12 -4 -19 -1 -8 3 -5 6 6 6 11 1 17 -2 13 -5z m-267
-18 c0 -2 -9 -6 -20 -9 -11 -3 -18 -1 -14 4 5 9 34 13 34 5z m-80 -40 c0 -2
-7 -6 -15 -10 -8 -3 -15 -1 -15 4 0 6 7 10 15 10 8 0 15 -2 15 -4z m521 -13
c13 -16 12 -17 -3 -4 -10 7 -18 15 -18 17 0 8 8 3 21 -13z m731 -58 c55 -67
127 -151 177 -204 18 -19 56 -69 84 -111 27 -41 64 -93 82 -115 52 -66 178
-296 167 -307 -5 -5 -37 -27 -71 -47 -33 -21 -58 -41 -53 -46 4 -5 -1 -5 -10
-2 -10 4 -18 2 -18 -4 0 -6 -4 -7 -10 -4 -5 3 -10 2 -10 -4 0 -10 -38 -27 -52
-23 -5 1 -8 -2 -8 -7 0 -9 -54 -35 -66 -31 -4 1 -10 -3 -13 -8 -3 -6 -13 -12
-21 -14 -8 -2 -21 -9 -28 -16 -8 -7 -18 -10 -23 -7 -5 4 -9 2 -9 -3 0 -10 -60
-38 -72 -34 -5 1 -8 -2 -8 -7 0 -10 -39 -27 -52 -23 -5 1 -8 -3 -8 -9 0 -5 -4
-7 -10 -4 -5 3 -10 2 -10 -3 0 -5 -13 -15 -30 -22 -18 -8 -30 -20 -30 -31 0
-14 -7 -19 -26 -19 -15 0 -89 -38 -178 -92 -83 -50 -157 -91 -163 -91 -7 0
-13 -4 -13 -8 0 -8 -111 -55 -122 -51 -5 1 -8 -3 -8 -9 0 -5 -4 -7 -10 -4 -5
3 -10 2 -10 -3 0 -4 -25 -19 -55 -31 -39 -16 -55 -28 -55 -42 0 -13 -7 -19
-21 -19 -27 0 -136 -58 -143 -76 -3 -8 -15 -14 -27 -14 -11 0 -33 -8 -47 -19
-45 -31 -229 -120 -236 -114 -3 4 -6 2 -6 -4 0 -14 -64 -55 -119 -77 -24 -9
-60 -30 -80 -47 -19 -16 -41 -29 -47 -29 -7 0 -14 -4 -16 -10 -1 -5 -12 -11
-24 -13 -23 -3 -84 -50 -84 -65 0 -5 -19 -14 -43 -20 -23 -6 -78 -29 -122 -52
-44 -22 -86 -40 -92 -40 -7 0 -13 -6 -13 -13 0 -16 -45 -32 -130 -47 -36 -7
-90 -21 -121 -31 l-57 -20 -78 27 c-44 14 -81 28 -83 30 -4 4 98 106 204 202
27 25 62 63 78 84 15 21 33 38 40 38 19 1 137 115 137 134 0 9 -8 16 -18 16
-19 0 -211 -177 -388 -356 -91 -92 -134 -125 -134 -104 0 6 -4 8 -10 5 -10 -6
-125 13 -148 24 -8 5 4 34 44 101 31 52 65 114 76 138 10 23 25 42 33 42 8 0
15 6 15 14 0 7 11 30 25 50 14 20 25 48 25 61 0 38 -32 32 -54 -10 -11 -19
-23 -35 -28 -35 -4 0 -7 -3 -7 -7 4 -23 -16 -76 -31 -80 -9 -2 -22 -20 -29
-39 -7 -19 -16 -34 -22 -34 -5 0 -12 -19 -15 -41 -5 -28 -13 -43 -25 -46 -10
-3 -21 -15 -25 -27 -4 -11 -15 -33 -26 -48 -18 -26 -24 -28 -94 -28 -56 0 -74
3 -74 14 0 7 11 65 26 127 16 74 31 119 43 129 12 10 22 41 31 95 6 44 16 85
21 91 5 6 28 12 52 12 61 2 187 36 256 71 l61 30 0 -23 c0 -12 -11 -33 -25
-46 -25 -23 -35 -70 -15 -70 6 0 31 32 56 71 35 56 43 74 32 80 -8 6 4 9 32 9
45 0 169 28 224 49 16 6 31 9 33 7 3 -3 16 8 30 25 21 25 32 29 72 29 65 0
191 34 244 65 54 31 77 33 70 4 -3 -11 -12 -23 -19 -26 -21 -8 -140 -126 -147
-145 -4 -10 -13 -18 -21 -18 -19 0 -136 -116 -136 -135 0 -31 38 -7 126 80 33
33 106 104 162 157 56 53 102 101 102 106 0 5 25 15 56 22 52 13 57 12 70 -5
8 -10 24 -19 35 -20 12 -1 27 -9 34 -18 7 -9 14 -15 16 -13 5 5 89 -9 113 -19
13 -6 17 -5 12 3 -4 7 5 17 23 26 40 21 63 46 57 62 -3 8 -2 13 2 12 4 -1 17
4 29 12 17 11 19 18 12 37 -5 15 -5 22 0 19 5 -4 11 -2 13 2 1 5 41 24 88 41
189 73 254 126 346 281 74 125 97 210 101 378 l3 144 148 138 c81 77 163 155
181 175 49 50 73 45 133 -30z m-939 48 c-7 -2 -21 -2 -30 0 -10 3 -4 5 12 5
17 0 24 -2 18 -5z m-100 -10 c-7 -2 -19 -2 -25 0 -7 3 -2 5 12 5 14 0 19 -2
13 -5z m-256 -38 c1 -15 0 -15 -3 -3 -3 9 -13 19 -22 22 -12 3 -12 4 3 3 12
-1 21 -10 22 -22z m-730 -7 c-3 -8 -6 -5 -6 6 -1 11 2 17 5 13 3 -3 4 -12 1
-19z m2074 5 c13 -16 12 -17 -3 -4 -10 7 -18 15 -18 17 0 8 8 3 21 -13z
m-1248 -10 c-7 -2 -21 -2 -30 0 -10 3 -4 5 12 5 17 0 24 -2 18 -5z m-213 -7
c0 -2 -8 -10 -17 -17 -16 -13 -17 -12 -4 4 13 16 21 21 21 13z m1521 -13 c13
-16 12 -17 -3 -4 -10 7 -18 15 -18 17 0 8 8 3 21 -13z m-6231 -27 c0 -2 -8
-10 -17 -17 -16 -13 -17 -12 -4 4 13 16 21 21 21 13z m577 -48 c-3 -7 -5 -2
-5 12 0 14 2 19 5 13 2 -7 2 -19 0 -25z m4960 6 c-3 -3 -12 -4 -19 -1 -8 3 -5
6 6 6 11 1 17 -2 13 -5z m-3240 -36 c-3 -7 -5 -2 -5 12 0 14 2 19 5 13 2 -7 2
-19 0 -25z m1887 -30 c7 -5 5 -8 -6 -8 -14 0 -18 8 -17 33 2 27 2 28 6 7 3
-14 10 -28 17 -32z m2144 7 c-3 -3 -9 2 -12 12 -6 14 -5 15 5 6 7 -7 10 -15 7
-18z m-2627 -13 c-7 -2 -18 1 -23 6 -8 8 -4 9 13 5 13 -4 18 -8 10 -11z
m-3766 -2 c-3 -5 -16 -15 -28 -21 -19 -9 -19 -8 3 10 28 23 34 26 25 11z m632
-27 c-3 -10 -5 -4 -5 12 0 17 2 24 5 18 2 -7 2 -21 0 -30z m3246 30 c-7 -2
-21 -2 -30 0 -10 3 -4 5 12 5 17 0 24 -2 18 -5z m1774 -220 c-2 -16 -4 -5 -4
22 0 28 2 40 4 28 2 -13 2 -35 0 -50z m-4973 -82 c-17 -15 -17 -15 -5 1 6 9
11 27 10 40 -1 12 -1 32 1 43 2 11 5 0 7 -24 3 -33 0 -48 -13 -60z m5932 67
l29 -33 -32 29 c-31 28 -38 36 -30 36 2 0 16 -15 33 -32z m-3408 15 c-16 -2
-40 -2 -55 0 -16 2 -3 4 27 4 30 0 43 -2 28 -4z m695 -20 c-18 -2 -48 -2 -65
0 -18 2 -4 4 32 4 36 0 50 -2 33 -4z m-3043 -7 c0 -2 -7 -7 -16 -10 -8 -3 -12
-2 -9 4 6 10 25 14 25 6z m2913 -3 c-7 -2 -19 -2 -25 0 -7 3 -2 5 12 5 14 0
19 -2 13 -5z m-2943 -27 c0 -3 -4 -8 -10 -11 -5 -3 -10 -1 -10 4 0 6 5 11 10
11 6 0 10 -2 10 -4z m4817 -28 c-3 -7 -5 -2 -5 12 0 14 2 19 5 13 2 -7 2 -19
0 -25z m-10 -90 c-3 -7 -5 -2 -5 12 0 14 2 19 5 13 2 -7 2 -19 0 -25z m-5920
-75 c13 -1 42 -15 65 -31 24 -16 67 -41 96 -56 28 -14 52 -30 52 -35 0 -5 26
-22 58 -37 75 -35 114 -63 106 -76 -4 -7 -2 -8 4 -4 10 6 87 -35 247 -131 28
-17 82 -49 120 -72 39 -23 147 -92 241 -154 94 -61 211 -132 259 -157 48 -24
133 -74 189 -110 55 -36 109 -69 119 -73 9 -3 17 -13 17 -21 0 -7 12 -17 27
-21 40 -10 206 -104 373 -211 36 -23 76 -47 90 -54 14 -7 79 -48 146 -91 66
-44 128 -79 138 -79 9 0 19 -7 22 -15 4 -8 25 -24 48 -35 69 -33 219 -125 223
-137 2 -6 -6 -15 -19 -19 -33 -10 -124 -54 -190 -90 l-56 -32 -84 30 c-132 47
-486 151 -698 207 -213 55 -270 75 -270 94 0 9 3 8 9 -1 6 -10 10 -6 16 15 5
15 7 33 5 38 -1 6 -2 42 -1 80 0 52 -2 66 -10 55 -9 -13 -10 -12 -5 3 7 23
-25 92 -36 75 -6 -10 -8 -10 -8 0 0 7 -14 12 -35 12 -19 0 -35 5 -35 10 0 6
-32 10 -76 10 -47 0 -73 -4 -69 -10 4 -6 -5 -10 -19 -10 -25 0 -26 -1 -26 -72
0 -70 -10 -91 -13 -27 -1 18 -8 34 -16 37 -10 3 -13 -3 -9 -27 2 -17 1 -31 -2
-31 -9 0 -20 51 -20 88 0 13 -8 31 -17 38 -17 13 -17 14 0 8 15 -6 18 -2 15
16 -1 13 -12 28 -23 34 -11 6 -22 13 -25 16 -3 3 -16 11 -30 18 -15 7 -17 10
-5 7 16 -5 17 -4 8 6 -15 15 -171 19 -177 4 -3 -5 -5 -2 -5 8 -1 10 -6 15 -12
12 -6 -4 -8 -13 -6 -19 3 -7 -4 -18 -15 -25 -16 -10 -19 -10 -12 1 6 10 4 10
-9 -1 -10 -8 -15 -16 -12 -19 2 -3 -4 -12 -15 -22 -12 -10 -20 -32 -22 -60 -3
-38 -7 -45 -30 -51 -28 -7 -130 17 -248 59 -30 10 -90 27 -132 37 -43 10 -78
22 -78 27 0 4 -7 5 -15 2 -8 -4 -15 -1 -15 6 0 7 -7 10 -15 6 -8 -3 -15 -1
-15 5 0 6 -9 8 -21 4 -16 -5 -19 -4 -14 5 5 9 4 11 -3 6 -13 -8 -92 13 -92 24
0 4 -6 8 -12 7 -40 -1 -68 4 -63 12 3 6 -6 8 -21 5 -16 -3 -23 -1 -19 6 4 6
-10 10 -39 10 -25 0 -47 4 -50 9 -3 5 -20 12 -38 15 -38 7 -141 66 -117 66 18
0 69 138 69 184 0 14 5 28 10 31 6 4 8 11 5 16 -4 5 -2 9 3 9 11 0 43 80 37
90 -3 4 2 11 11 14 10 4 13 13 9 27 -4 13 -3 19 3 16 5 -4 25 32 45 78 19 47
30 82 23 78 -6 -3 -6 -1 2 8 6 7 12 24 13 39 0 20 2 22 8 7 5 -14 24 16 79
121 40 77 72 150 72 163 0 13 4 19 8 14 4 -6 17 -12 29 -12z m7230 -23 c3 -10
2 -11 -4 -4 -4 6 -15 14 -23 17 -11 5 -9 6 4 4 11 -1 21 -9 23 -17z m510 -22
c-3 -7 -5 -2 -5 12 0 14 2 19 5 13 2 -7 2 -19 0 -25z m-1863 -15 c-53 -83 -67
-103 -71 -103 -3 0 3 12 13 28 53 82 67 102 71 102 3 0 -3 -12 -13 -27z m1852
-100 c13 2 21 0 18 -4 -3 -5 -16 -9 -30 -9 -20 0 -24 5 -23 28 2 25 2 25 6 3
4 -18 10 -22 29 -18z m-654 -67 c100 -198 223 -508 283 -716 15 -52 31 -100
36 -105 4 -6 5 -16 1 -22 -6 -9 -179 -57 -242 -68 -8 -1 -22 -5 -30 -8 -21 -8
-141 -39 -160 -41 -9 -1 -21 -5 -28 -10 -6 -4 -16 -5 -21 -1 -5 3 -12 1 -15
-4 -3 -4 -20 -12 -38 -16 -18 -4 -36 -9 -40 -10 -5 -1 -11 -4 -15 -5 -5 -1
-17 -2 -29 -1 -11 1 -56 -9 -100 -23 -43 -14 -106 -28 -139 -31 -69 -8 -156
-35 -149 -47 3 -4 -1 -5 -9 -2 -8 3 -34 0 -57 -6 -39 -10 -46 -9 -73 11 l-30
22 6 -22 c3 -11 1 -19 -4 -15 -5 3 -9 20 -10 37 -2 51 -12 72 -38 75 -13 1
-36 13 -52 27 -16 13 -46 27 -67 30 -20 3 -45 8 -54 10 -10 2 -21 -1 -24 -6
-3 -5 -10 -6 -16 -3 -7 4 -8 2 -4 -4 6 -11 -5 -16 -26 -13 -4 0 -5 -8 -3 -19
2 -12 -1 -17 -10 -14 -8 3 -19 -6 -27 -23 -8 -15 -20 -27 -26 -26 -7 2 -11 0
-11 -5 3 -18 -2 -33 -9 -28 -9 6 -12 -2 -15 -54 -1 -25 2 -35 13 -36 8 -1 20
-2 27 -3 9 -1 10 -8 4 -23 -6 -17 -19 -24 -50 -29 -46 -6 -52 -3 -18 11 16 6
3 8 -45 8 -38 -1 -68 -5 -68 -9 0 -5 -11 -9 -24 -9 -13 0 -29 -7 -36 -15 -7
-8 -17 -15 -22 -15 -6 0 -23 -14 -39 -31 -16 -17 -33 -28 -38 -25 -5 3 -33 1
-62 -5 -30 -6 -61 -12 -69 -14 -8 -1 -22 -5 -30 -9 -71 -29 -166 -54 -193 -50
-26 3 -28 2 -12 -5 32 -15 1 -12 -38 4 -19 8 -76 37 -127 64 -51 28 -103 52
-115 54 -13 1 -30 8 -38 15 -12 10 -157 42 -191 42 -28 0 45 51 107 75 40 15
101 47 137 70 74 49 338 185 357 185 7 0 13 4 13 10 0 15 88 62 101 54 8 -4 9
-3 5 4 -4 7 -1 12 8 12 10 0 16 9 16 21 0 16 5 20 20 16 12 -3 18 -1 14 5 -4
6 1 8 15 3 11 -3 21 -2 21 2 0 11 77 49 146 73 28 10 80 39 115 65 35 26 89
59 119 73 30 14 77 40 104 59 26 18 56 33 66 33 10 0 20 9 23 20 3 12 14 20
28 20 12 0 77 32 145 71 68 39 128 68 134 64 6 -3 9 -1 8 5 -4 15 101 70 135
70 18 0 27 5 27 15 0 9 8 18 18 21 45 14 141 71 145 85 3 9 27 24 54 33 62 21
156 79 146 91 -4 4 -3 6 3 2 5 -3 35 7 65 22 50 26 55 27 73 12 10 -9 32 -43
48 -75z m-1272 50 c0 -2 -8 -10 -17 -17 -16 -13 -17 -12 -4 4 13 16 21 21 21
13z m-96 -99 c19 -4 19 -4 -2 -6 -16 -1 -25 7 -32 25 -6 14 -10 28 -9 32 1 4
6 -5 12 -20 6 -15 20 -29 31 -31z m39 18 c-3 -9 -8 -14 -10 -11 -3 3 -2 9 2
15 9 16 15 13 8 -4z m1528 -2 c13 -16 12 -17 -3 -4 -10 7 -18 15 -18 17 0 8 8
3 21 -13z m40 -40 c13 -16 12 -17 -3 -4 -10 7 -18 15 -18 17 0 8 8 3 21 -13z
m-2018 -10 c-7 -2 -21 -2 -30 0 -10 3 -4 5 12 5 17 0 24 -2 18 -5z m-4273 -47
c0 -2 -7 -6 -15 -10 -8 -3 -15 -1 -15 4 0 6 7 10 15 10 8 0 15 -2 15 -4z m56
-26 c8 0 14 -5 14 -10 0 -7 -6 -7 -20 0 -11 6 -19 18 -19 28 1 16 2 16 6 0 2
-10 11 -18 19 -18z m4414 -4 c0 -2 -8 -10 -17 -17 -16 -13 -17 -12 -4 4 13 16
21 21 21 13z m-4183 -12 c-3 -3 -12 -4 -19 -1 -8 3 -5 6 6 6 11 1 17 -2 13 -5z
m116 -31 c-34 -13 -5 -23 67 -23 70 0 80 -2 79 -17 0 -11 -3 -13 -6 -5 -3 8
-29 12 -78 12 -41 0 -77 5 -80 10 -8 13 3 30 18 29 9 0 9 -2 0 -6z m3920 -10
c-24 -2 -62 -2 -85 0 -24 2 -5 4 42 4 47 0 66 -2 43 -4z m-4106 -59 c-3 -3
-12 -4 -19 -1 -8 3 -5 6 6 6 11 1 17 -2 13 -5z m240 0 c-3 -3 -12 -4 -19 -1
-8 3 -5 6 6 6 11 1 17 -2 13 -5z m2990 -21 c-14 -4 -18 -12 -14 -29 2 -13 0
-24 -4 -24 -10 0 -12 44 -2 53 3 4 13 6 22 6 12 -1 11 -3 -2 -6z m151 -10
c-15 -2 -42 -2 -60 0 -18 2 -6 4 27 4 33 0 48 -2 33 -4z m-5647 -50 c-12 -20
-14 -14 -5 12 4 9 9 14 11 11 3 -2 0 -13 -6 -23z m9006 -15 c-3 -8 -6 -5 -6 6
-1 11 2 17 5 13 3 -3 4 -12 1 -19z m-3527 -8 c0 -11 -2 -20 -4 -20 -2 0 -6 9
-9 20 -3 11 -1 20 4 20 5 0 9 -9 9 -20z m-63 4 c-3 -3 -12 -4 -19 -1 -8 3 -5
6 6 6 11 1 17 -2 13 -5z m376 -1 c-7 -2 -21 -2 -30 0 -10 3 -4 5 12 5 17 0 24
-2 18 -5z m-5106 -25 c-3 -8 -6 -5 -6 6 -1 11 2 17 5 13 3 -3 4 -12 1 -19z
m4480 6 c-3 -3 -12 -4 -19 -1 -8 3 -5 6 6 6 11 1 17 -2 13 -5z m556 -9 c-3 -9
-8 -14 -10 -11 -3 3 -2 9 2 15 9 16 15 13 8 -4z m-475 -2 c-10 -2 -28 -2 -40
0 -13 2 -5 4 17 4 22 1 32 -1 23 -4z m3227 -23 c2 -4 -7 -5 -20 -2 -14 2 -25
8 -25 12 0 10 38 1 45 -10z m542 -2 c-3 -8 -6 -5 -6 6 -1 11 2 17 5 13 3 -3 4
-12 1 -19z m-9021 -21 c1 -24 1 -24 -3 -3 -2 14 -12 27 -21 30 -12 3 -11 4 3
3 14 -2 20 -10 21 -30z m5077 13 c-10 -11 -18 -20 -19 -20 -1 0 0 9 3 20 3 11
12 20 19 20 11 0 10 -5 -3 -20z m3934 -52 c-3 -8 -6 -5 -6 6 -1 11 2 17 5 13
3 -3 4 -12 1 -19z m-6207 -32 c0 -12 -5 -7 -19 24 -11 24 -11 24 3 6 9 -11 16
-24 16 -30z m2390 1 c22 -4 21 -5 -4 -4 -17 1 -31 9 -33 17 -3 10 -2 11 4 4 4
-7 19 -14 33 -17z m-5187 -58 c-6 -6 -7 3 -4 23 4 28 6 29 9 9 2 -13 0 -27 -5
-32z m9027 3 c19 0 30 5 33 16 3 12 5 10 6 -5 1 -14 -5 -23 -13 -23 -8 0 -17
-12 -19 -27 -4 -27 -4 -27 -6 4 -1 26 -4 30 -21 26 -16 -4 -20 -1 -19 18 1 15
3 18 6 8 2 -10 15 -16 33 -17z m-8667 -77 c-3 -9 -8 -14 -10 -11 -3 3 -2 9 2
15 9 16 15 13 8 -4z m4510 8 c-7 -2 -21 -2 -30 0 -10 3 -4 5 12 5 17 0 24 -2
18 -5z m-86 -9 c-3 -3 -12 -4 -19 -1 -8 3 -5 6 6 6 11 1 17 -2 13 -5z m-4327
-50 c0 -2 -12 -4 -27 -4 -21 0 -24 3 -14 9 13 8 41 5 41 -5z m8586 -37 c9 -3
8 -4 -3 -3 -12 1 -18 10 -19 26 -1 21 0 21 3 3 2 -12 11 -24 19 -26z m-8489
-49 c-2 -13 -4 -3 -4 22 0 25 2 35 4 23 2 -13 2 -33 0 -45z m94 42 c30 -5 63
-14 74 -19 11 -5 207 -62 435 -126 333 -94 419 -122 437 -141 12 -14 34 -24
48 -24 39 0 30 -34 -10 -38 -77 -6 -116 -14 -128 -26 -7 -7 -31 -25 -55 -40
-23 -14 -42 -31 -42 -37 0 -8 6 -7 18 2 13 11 13 9 -3 -9 -30 -36 -23 -149 11
-177 7 -5 14 -19 16 -30 2 -10 23 -34 48 -52 25 -18 50 -37 55 -41 14 -11 57
-13 50 -3 -2 5 5 11 17 14 13 4 26 1 30 -6 4 -7 8 -7 8 -1 0 5 -6 16 -12 23
-10 11 -10 13 0 7 22 -13 37 6 17 21 -11 7 -13 13 -7 13 7 0 11 5 9 12 -1 6 7
14 18 16 20 4 20 4 1 -17 -19 -21 -10 -31 10 -11 7 7 11 6 11 -4 0 -8 -3 -13
-7 -11 -4 2 -20 -23 -35 -56 -28 -57 -28 -62 -17 -116 6 -30 9 -60 6 -64 -3
-5 2 -9 10 -9 9 0 15 -3 15 -7 -5 -28 4 -52 19 -56 9 -2 -86 -4 -213 -4 -199
1 -213 2 -105 8 85 4 39 5 -144 4 -147 -1 -263 1 -256 5 7 4 -109 8 -257 8
-157 1 -280 5 -296 11 -15 6 -42 8 -59 5 -31 -4 -32 -4 -8 6 14 6 36 10 50 8
l25 -4 -1 141 -1 140 6 -115 6 -115 8 120 c4 66 17 179 28 250 12 72 23 164
26 205 2 41 8 77 13 80 8 5 27 72 59 209 5 25 8 48 5 53 -7 10 2 10 67 -2z
m4046 -22 c-3 -7 -5 -2 -5 12 0 14 2 19 5 13 2 -7 2 -19 0 -25z m3941 15 c-10
-2 -26 -2 -35 0 -10 3 -2 5 17 5 19 0 27 -2 18 -5z m469 -30 c-3 -10 -5 -4 -5
12 0 17 2 24 5 18 2 -7 2 -21 0 -30z m-570 21 c-3 -3 -12 -4 -19 -1 -8 3 -5 6
6 6 11 1 17 -2 13 -5z m-4636 -21 c13 -16 12 -17 -3 -4 -10 7 -18 15 -18 17 0
8 8 3 21 -13z m4729 -23 c-19 -12 -47 -13 -54 -2 -3 5 11 9 32 10 27 1 33 -1
22 -8z m-77 -7 c-7 -2 -19 -2 -25 0 -7 3 -2 5 12 5 14 0 19 -2 13 -5z m-4740
-40 c-7 -2 -19 -2 -25 0 -7 3 -2 5 12 5 14 0 19 -2 13 -5z m857 3 c0 -2 -8
-10 -17 -17 -16 -13 -17 -12 -4 4 13 16 21 21 21 13z m-1095 -34 c-3 -3 -11 0
-18 7 -9 10 -8 11 6 5 10 -3 15 -9 12 -12z m4940 8 c-3 -5 -12 -10 -18 -10 -7
0 -6 4 3 10 19 12 23 12 15 0z m-4915 -20 c0 -5 -8 -10 -17 -10 -15 0 -16 2
-3 10 19 12 20 12 20 0z m5060 0 c0 -5 -15 -9 -32 -9 l-33 1 30 8 c17 4 31 8
33 9 1 0 2 -3 2 -9z m-4030 -4 c0 -2 -8 -10 -17 -17 -16 -13 -17 -12 -4 4 13
16 21 21 21 13z m3833 -154 c49 -283 65 -424 73 -641 l7 -213 -114 6 c-63 3
-311 9 -551 12 -342 5 -438 9 -438 19 0 15 24 37 32 30 3 -3 3 6 1 20 -3 14
-1 25 5 25 6 0 10 36 9 94 -1 52 -5 92 -9 90 -3 -2 -12 1 -20 8 -7 7 -24 13
-38 13 -16 0 -25 6 -25 15 0 9 9 15 22 14 13 -1 20 3 17 7 -3 5 0 9 5 9 6 0
11 8 11 18 0 14 2 14 9 3 8 -12 16 -10 50 12 23 15 41 34 41 43 0 9 10 24 23
34 19 16 22 28 23 93 0 68 -1 75 -18 72 -12 -3 -20 4 -24 21 -4 16 -19 30 -40
39 -19 8 -34 19 -34 24 0 6 -8 11 -17 11 -10 0 -25 5 -33 11 -13 9 -12 10 3 5
9 -3 17 -1 17 4 0 6 -6 10 -12 10 -23 1 40 30 74 34 42 6 267 62 305 77 30 12
63 19 318 74 88 19 183 41 210 49 94 27 87 36 118 -142z m-3713 144 c0 -2 -11
-28 -25 -57 -13 -30 -30 -87 -37 -126 l-12 -73 -73 0 c-78 0 -78 0 -67 57 4
21 20 38 60 63 30 19 73 59 95 88 33 44 59 65 59 48z m-1141 -13 c-36 -3 -48
-8 -52 -24 -3 -10 -11 -19 -19 -19 -8 0 -9 3 -2 8 6 4 13 15 17 25 5 13 17 17
54 15 l48 -2 -46 -3z m-143 -29 c2 -12 -1 -13 -12 -3 -7 6 -11 16 -8 21 7 11
17 3 20 -18z m256 -9 c-4 -35 -5 -35 -51 -33 l-46 1 44 4 c41 4 43 5 39 34 -3
17 0 29 7 29 7 0 9 -13 7 -35z m-3195 -7 c-3 -8 -6 -5 -6 6 -1 11 2 17 5 13 3
-3 4 -12 1 -19z m2988 2 c-3 -5 -13 -10 -21 -10 -8 0 -12 5 -9 10 3 6 13 10
21 10 8 0 12 -4 9 -10z m3552 4 c-3 -3 -12 -4 -19 -1 -8 3 -5 6 6 6 11 1 17
-2 13 -5z m-3510 -20 c-3 -3 -12 -4 -19 -1 -8 3 -5 6 6 6 11 1 17 -2 13 -5z
m391 -33 c9 -4 30 -11 45 -15 22 -5 27 -4 22 6 -4 7 3 2 17 -12 14 -14 25 -29
25 -35 0 -5 17 -39 37 -73 20 -35 36 -68 36 -73 0 -10 -123 -49 -155 -49 -16
0 -34 15 -59 48 -84 111 -99 128 -122 142 -13 8 -23 19 -21 25 2 5 37 17 78
27 41 9 75 17 77 17 2 1 11 -3 20 -8z m-2077 -58 c1 -10 1 -21 0 -25 0 -4 7
-4 16 -1 13 5 15 2 11 -15 -3 -11 -1 -23 5 -25 6 -2 11 -19 11 -39 1 -20 5
-33 10 -30 5 3 7 -1 4 -9 -4 -10 3 -15 23 -15 17 -1 26 3 23 8 -4 6 2 7 17 3
22 -7 23 -6 10 9 -12 15 -12 17 0 14 8 -2 13 3 11 12 -2 8 0 12 4 8 4 -5 13 1
21 12 17 25 37 26 29 3 -5 -15 -4 -15 9 1 8 11 18 17 21 13 3 -3 -7 -21 -22
-41 -16 -19 -30 -33 -33 -31 -2 3 2 11 8 19 7 8 8 17 3 20 -11 7 -35 -18 -26
-27 9 -8 -16 -48 -26 -42 -11 7 -24 -31 -15 -45 3 -5 1 -10 -5 -10 -6 0 -8 -5
-5 -10 4 -6 11 -7 17 -4 6 4 8 2 4 -4 -9 -14 11 -25 32 -17 16 6 15 8 -2 21
-11 8 -16 14 -12 14 5 0 26 -14 47 -31 22 -17 51 -34 66 -38 15 -4 28 -13 29
-19 1 -7 0 -8 -3 -2 -7 16 -33 12 -33 -5 0 -12 -9 -15 -34 -13 -19 1 -33 5
-30 10 3 4 -13 16 -34 27 -21 11 -44 27 -51 35 -8 9 -17 16 -21 16 -4 0 -17
-36 -30 -80 -13 -44 -26 -80 -29 -80 -4 0 -7 -12 -6 -27 0 -18 -6 -29 -17 -31
-14 -3 -18 3 -18 23 0 18 -4 24 -12 19 -7 -4 -5 2 5 13 9 11 17 25 17 33 0 25
23 89 31 85 4 -3 6 3 4 12 -2 10 -4 26 -4 36 -1 17 -8 19 -58 16 -32 -1 -74
-1 -93 0 l-35 3 30 13 30 14 -35 2 c-34 1 -34 2 -6 8 31 7 179 1 159 -6 -7 -3
-13 -9 -13 -14 0 -6 5 -7 11 -4 6 4 13 -2 16 -14 5 -21 43 -30 43 -11 0 6 5 9
11 8 6 -2 14 4 16 12 4 13 3 13 -6 0 -6 -8 -11 -11 -11 -7 0 4 -9 3 -19 -3
-16 -8 -21 -6 -26 10 -9 27 1 39 28 34 20 -4 20 -4 2 4 -11 5 -25 7 -31 5 -13
-5 -27 39 -18 60 3 8 0 18 -7 23 -7 4 -10 3 -5 -4 3 -6 2 -13 -3 -17 -11 -6
-26 59 -17 74 4 5 2 12 -4 16 -5 3 -10 15 -10 26 0 24 30 26 31 2z m176 11
c-3 -3 -12 -4 -19 -1 -8 3 -5 6 6 6 11 1 17 -2 13 -5z m6610 -26 c-3 -8 -6 -5
-6 6 -1 11 2 17 5 13 3 -3 4 -12 1 -19z m-4427 -4 c0 -2 -9 -4 -20 -4 -11 0
-20 4 -20 9 0 5 9 7 20 4 11 -3 20 -7 20 -9z m97 10 c-3 -3 -12 -4 -19 -1 -8
3 -5 6 6 6 11 1 17 -2 13 -5z m-173 -21 c4 -5 37 -13 74 -18 59 -9 68 -13 76
-37 12 -35 8 -38 -49 -43 -26 -2 -50 -6 -53 -9 -3 -3 -12 0 -20 7 -13 9 -14 9
-8 0 12 -20 -1 -15 -24 9 -11 12 -18 28 -16 35 3 7 0 13 -5 13 -6 0 -9 9 -6
20 3 11 1 18 -4 14 -5 -3 -9 0 -9 5 0 12 33 15 44 4z m330 -58 c-5 -11 -22
-15 -70 -15 -61 0 -64 1 -64 24 0 21 6 24 63 32 55 8 63 7 69 -9 4 -9 5 -24 2
-32z m2496 35 c8 -5 11 -10 5 -10 -5 0 -17 5 -25 10 -8 5 -10 10 -5 10 6 0 17
-5 25 -10z m-4613 -32 c-3 -8 -6 -5 -6 6 -1 11 2 17 5 13 3 -3 4 -12 1 -19z
m6830 -20 c-3 -8 -6 -5 -6 6 -1 11 2 17 5 13 3 -3 4 -12 1 -19z m-520 -20 c-3
-7 -5 -2 -5 12 0 14 2 19 5 13 2 -7 2 -19 0 -25z m-6349 -31 c12 3 33 -2 47
-11 13 -9 31 -16 40 -16 9 0 105 -27 213 -59 188 -57 346 -102 552 -157 52
-14 116 -34 141 -46 l47 -20 -37 -32 c-20 -18 -56 -44 -81 -57 -25 -13 -56
-34 -70 -46 -14 -13 -28 -23 -31 -23 -3 0 -24 -18 -47 -40 -22 -22 -50 -40
-61 -40 -12 0 -21 -4 -21 -8 0 -5 -12 -7 -27 -5 -16 1 -230 7 -478 13 -317 7
-463 14 -495 24 -39 11 -42 14 -22 20 12 4 22 14 22 22 0 8 4 13 9 10 5 -3 12
1 15 10 7 19 -12 47 -25 38 -5 -3 -6 1 -4 9 3 7 -3 22 -15 32 -11 10 -20 24
-20 32 0 16 0 16 38 -3 31 -15 40 -28 25 -37 -5 -2 -3 -3 3 -1 6 1 17 -3 24
-9 10 -9 11 -9 6 1 -5 7 6 5 23 -6 25 -15 47 -18 109 -16 58 2 70 1 47 -6 -28
-9 -27 -9 10 -5 27 3 48 14 70 36 16 17 25 29 19 26 -6 -3 -11 0 -11 8 0 8 4
12 9 9 4 -3 8 0 8 6 0 6 4 9 9 6 5 -3 12 1 15 10 4 10 2 13 -7 8 -8 -6 -8 -3
1 8 15 19 15 201 0 192 -4 -3 -11 2 -14 10 -3 9 -15 16 -26 16 -16 0 -18 3 -9
14 9 11 8 15 -4 20 -9 3 -13 2 -10 -4 3 -6 -5 -10 -18 -10 -32 0 -42 32 -15
49 19 12 19 13 1 34 -18 22 -18 22 2 5 13 -11 29 -15 43 -11z m4930 -2 c-3 -3
-9 2 -12 12 -6 14 -5 15 5 6 7 -7 10 -15 7 -18z m-218 11 c0 -2 -7 -7 -16 -10
-8 -3 -12 -2 -9 4 6 10 25 14 25 6z m40 -33 c0 -8 5 -11 12 -7 8 5 9 -4 4 -34
-4 -29 -3 -42 5 -42 8 0 9 -15 5 -47 -4 -30 -3 -43 2 -35 7 11 10 11 15 -2 4
-9 2 -16 -3 -16 -5 0 -10 -15 -12 -32 -3 -28 -7 -33 -27 -30 -14 1 -28 -3 -33
-10 -5 -9 -8 -9 -8 -2 0 7 -11 15 -25 18 -14 4 -24 10 -24 14 1 4 1 14 0 22
-1 12 -4 12 -12 -2 -5 -10 -15 -18 -20 -18 -6 0 -7 4 -4 10 3 6 -1 7 -9 4 -21
-8 -20 10 0 30 11 12 20 13 34 6 10 -6 28 -10 39 -10 10 0 21 -5 23 -11 2 -6
13 -2 26 9 20 17 20 20 6 26 -12 5 -15 14 -10 36 3 17 1 30 -4 30 -6 0 -10 30
-10 66 0 58 2 65 15 54 8 -7 15 -19 15 -27z m2127 5 c-3 -7 -5 -2 -5 12 0 14
2 19 5 13 2 -7 2 -19 0 -25z m-9430 -20 c-3 -8 -6 -5 -6 6 -1 11 2 17 5 13 3
-3 4 -12 1 -19z m9440 -40 c-3 -7 -5 -2 -5 12 0 14 2 19 5 13 2 -7 2 -19 0
-25z m-530 -40 c-2 -13 -4 -3 -4 22 0 25 2 35 4 23 2 -13 2 -33 0 -45z m-6815
-10 c-8 -8 -9 -4 -5 13 4 13 8 18 11 10 2 -7 -1 -18 -6 -23z m4768 28 c0 -3
-4 -8 -10 -11 -5 -3 -10 -1 -10 4 0 6 5 11 10 11 6 0 10 -2 10 -4z m947 -28
c-3 -8 -6 -5 -6 6 -1 11 2 17 5 13 3 -3 4 -12 1 -19z m1640 -10 c-3 -7 -5 -2
-5 12 0 14 2 19 5 13 2 -7 2 -19 0 -25z m-2678 2 c4 0 13 -25 20 -55 7 -30 17
-55 22 -55 5 0 9 -11 9 -25 0 -18 12 -34 42 -55 22 -16 48 -30 57 -30 14 0 14
-2 1 -10 -13 -9 -13 -10 0 -10 8 0 22 4 30 10 9 5 19 5 26 -1 8 -7 14 -6 19 1
3 5 1 10 -6 10 -7 0 -10 3 -6 6 3 3 11 3 17 -1 8 -5 8 -11 -1 -21 -6 -7 -15
-11 -20 -8 -5 3 -9 1 -9 -5 0 -5 8 -15 18 -20 15 -9 14 -10 -6 -11 -16 0 -21
-4 -16 -12 5 -9 2 -8 -9 1 -13 11 -15 17 -6 28 13 15 6 29 -10 19 -13 -8 -11
-66 3 -63 6 1 9 -11 6 -33 -3 -19 -5 -63 -5 -97 l1 -63 -106 0 -106 0 -26 58
c-41 88 -120 199 -198 281 -39 40 -69 79 -66 86 2 7 20 16 38 20 18 3 60 15
93 25 72 22 155 39 173 34 8 -2 17 -4 21 -4z m704 -67 c-19 -19 -49 -20 -38
-2 4 5 -1 6 -9 3 -9 -3 -14 -9 -11 -13 2 -4 -12 -14 -31 -23 -18 -9 -34 -12
-34 -7 0 5 5 9 11 9 5 0 8 4 4 9 -3 6 3 14 12 20 14 8 15 11 3 11 -8 1 8 9 35
19 39 14 53 15 64 5 11 -10 10 -15 -6 -31z m-323 17 c0 -5 -9 -10 -21 -10 -11
0 -18 -4 -14 -10 3 -5 13 -6 22 -3 11 4 14 3 9 -5 -9 -15 -56 -16 -56 -2 0 6
-5 9 -11 8 -6 -2 -13 3 -14 10 -2 7 -1 8 1 3 3 -6 12 -7 20 -4 7 3 11 9 8 14
-3 5 9 9 25 9 17 0 31 -4 31 -10z m-4810 -30 c6 -11 9 -20 8 -20 -2 0 -11 9
-21 20 -9 11 -13 20 -7 20 5 0 14 -9 20 -20z m-2363 -72 c-2 -13 -4 -5 -4 17
-1 22 1 32 4 23 2 -10 2 -28 0 -40z m7426 -60 c-2 -5 -12 -8 -21 -8 -15 0 -15
2 -2 10 16 10 17 10 -26 14 -6 1 -19 8 -29 16 -26 21 -43 21 -38 -1 3 -10 0
-19 -6 -19 -6 0 -8 -7 -4 -17 4 -10 2 -14 -4 -10 -6 4 -13 -3 -16 -14 -4 -14
-10 -18 -19 -13 -9 5 -8 2 2 -11 8 -10 10 -16 4 -12 -6 3 -20 -1 -30 -9 -10
-9 -13 -12 -5 -8 9 5 12 3 7 -4 -12 -20 -23 -13 -23 13 0 14 4 22 10 18 5 -3
7 -1 4 5 -10 15 3 43 16 35 5 -3 7 -1 3 5 -3 6 0 17 8 25 8 8 12 17 9 21 -11
11 51 28 67 18 10 -6 19 -5 27 3 7 7 11 14 10 16 -1 2 12 -12 29 -31 18 -19
30 -38 27 -42z m-1732 62 c32 0 46 -23 56 -92 5 -31 8 -36 22 -28 29 15 98
-33 110 -77 14 -51 -3 -83 -62 -112 -39 -19 -46 -26 -33 -33 19 -10 22 -69 5
-100 -14 -27 -74 -51 -109 -43 -15 3 -36 15 -45 25 -16 17 -27 19 -84 14 -55
-4 -71 -2 -98 15 -30 19 -31 22 -26 73 3 29 9 57 14 63 6 5 -2 18 -18 31 -26
20 -28 27 -25 86 4 91 33 108 141 82 21 -4 23 -3 12 10 -20 24 7 68 49 83 19
7 41 10 48 7 8 -2 27 -4 43 -4z m-3616 -28 c-3 -3 -11 0 -18 7 -9 10 -8 11 6
5 10 -3 15 -9 12 -12z m4935 4 c0 -2 -9 -6 -20 -9 -11 -3 -18 -1 -14 4 5 9 34
13 34 5z m454 -58 c21 -29 20 -38 -1 -38 -14 0 -15 -2 -5 -9 11 -7 10 -9 -3
-14 -9 -4 -13 -3 -10 3 3 6 1 10 -6 10 -7 0 -5 8 7 22 l19 21 -30 -19 c-16
-10 -26 -14 -22 -7 4 6 2 15 -3 18 -7 5 -5 12 7 21 25 18 29 17 47 -8z m-423
-31 c-10 -9 -11 -8 -5 6 3 10 9 15 12 12 3 -3 0 -11 -7 -18z m-4481 -2 c-7 -8
-17 -15 -23 -15 -6 0 -2 7 9 15 25 19 30 19 14 0z m4961 -68 c-10 -9 -11 -8
-5 6 3 10 9 15 12 12 3 -3 0 -11 -7 -18z m-7008 -24 c-7 -2 -19 -2 -25 0 -7 3
-2 5 12 5 14 0 19 -2 13 -5z m6481 -19 c3 -8 2 -12 -4 -9 -6 3 -10 10 -10 16
0 14 7 11 14 -7z m2003 -31 c-3 -10 -5 -4 -5 12 0 17 2 24 5 18 2 -7 2 -21 0
-30z m-6872 17 c13 -5 14 -9 5 -9 -8 0 -24 4 -35 9 -13 5 -14 9 -5 9 8 0 24
-4 35 -9z m72 -6 c-3 -3 -12 -4 -19 -1 -8 3 -5 6 6 6 11 1 17 -2 13 -5z m-699
-27 c14 -10 452 -17 1405 -24 220 -2 327 -6 327 -14 0 -5 -30 -43 -67 -83 -38
-40 -88 -96 -113 -123 -39 -45 -52 -53 -105 -64 -33 -7 -80 -24 -105 -37 -40
-23 -157 -99 -170 -112 -3 -3 -28 -26 -55 -52 -41 -39 -61 -50 -105 -58 -30
-6 -56 -14 -59 -19 -4 -4 -13 -8 -21 -9 -21 -2 -979 -236 -1327 -324 -161 -41
-297 -72 -302 -69 -12 8 -59 205 -67 286 -5 45 -10 62 -16 53 -6 -8 -7 7 -3
40 5 36 3 52 -5 52 -7 0 -9 8 -5 21 4 11 2 84 -4 162 -13 172 -21 302 -21 342
l0 30 -77 -3 c-84 -4 -95 2 -23 13 25 4 46 7 47 8 6 7 861 -10 871 -16z m5862
-42 c0 -16 -6 -25 -16 -25 -9 0 -12 5 -8 13 5 8 4 9 -4 2 -5 -5 -12 -19 -14
-30 -3 -11 -5 4 -6 33 0 29 4 52 9 52 6 0 7 6 3 13 -4 6 3 2 15 -10 11 -12 21
-34 21 -48z m-6693 -57 c-2 -18 -4 -6 -4 27 0 33 2 48 4 33 2 -15 2 -42 0 -60z
m8383 22 c0 -12 -8 -12 -35 0 -18 8 -17 9 8 9 15 1 27 -3 27 -9z m-2047 -40
c19 -6 27 -6 28 3 0 7 5 0 11 -15 5 -16 14 -28 19 -28 6 0 8 -3 6 -7 -3 -5 33
-8 79 -9 62 0 84 3 84 13 0 7 11 20 25 29 22 15 40 16 123 9 53 -5 120 -8 147
-8 66 1 1250 -19 1252 -21 1 0 -5 -91 -12 -201 -15 -224 -48 -432 -103 -654
l-37 -149 -70 20 c-38 10 -106 27 -150 38 -44 10 -102 28 -128 39 -48 21 -164
30 -153 12 3 -4 43 -19 88 -31 46 -13 85 -26 88 -29 3 -3 16 -8 30 -9 14 -2
39 -10 56 -17 17 -7 74 -23 127 -35 l97 -22 -7 -41 c-14 -95 -127 -366 -274
-664 -100 -201 -132 -250 -148 -225 -3 5 -32 24 -64 43 -31 18 -60 41 -63 51
-3 11 -21 19 -51 24 -30 4 -47 12 -50 23 -2 9 -30 29 -61 44 -67 31 -125 66
-133 79 -3 5 -36 24 -72 43 -83 43 -168 100 -162 108 3 4 2 5 -1 2 -11 -8 -62
28 -67 47 -4 13 -11 16 -24 12 -16 -6 -17 -5 -2 7 23 19 33 155 12 163 -8 3
-11 11 -8 16 4 6 4 18 0 28 -5 14 -7 14 -16 2 -9 -12 -10 -12 -5 2 9 30 -38
68 -84 68 -29 0 -40 -4 -40 -15 0 -23 -47 -19 -60 5 -9 17 -8 20 10 20 11 0
20 4 20 9 0 6 9 8 20 6 11 -2 18 0 15 6 -4 5 -1 9 4 9 6 0 11 11 11 24 0 13 6
26 12 28 9 3 13 32 14 91 1 75 -1 87 -15 87 -12 0 -17 8 -16 27 0 24 -7 30
-55 48 -45 17 -72 20 -148 17 -53 -2 -90 -7 -87 -13 4 -5 -3 -9 -14 -9 -17 0
-21 -6 -21 -37 0 -20 -3 -33 -7 -30 -3 4 -12 2 -20 -5 -11 -9 -17 -3 -30 30
-9 23 -19 39 -23 37 -6 -4 -43 6 -95 26 -11 4 -49 6 -85 6 -57 -2 -66 -5 -75
-24 -5 -13 -13 -23 -18 -23 -11 0 -37 -26 -32 -32 2 -2 -12 -12 -31 -23 -28
-15 -39 -17 -52 -7 -9 6 -34 21 -54 32 -21 11 -38 24 -38 28 0 5 43 34 96 66
106 63 130 86 175 164 17 28 37 55 44 60 7 4 18 23 24 44 l12 36 57 -13 c112
-27 938 -264 1006 -290 117 -44 276 -70 276 -45 0 5 -12 12 -27 15 -16 3 -71
19 -123 35 -52 16 -140 40 -195 54 -55 14 -194 56 -310 94 -115 39 -244 77
-285 86 -134 30 -184 44 -283 78 -75 25 -96 36 -91 48 13 33 16 268 4 345 -6
44 -14 97 -17 117 l-5 37 58 3 c73 4 131 0 167 -12z m2012 -19 c-3 -5 3 -11
12 -13 15 -3 15 -5 -3 -10 -17 -4 -21 -2 -19 11 5 22 4 21 11 21 3 0 3 -4 -1
-9z m38 -48 c-7 -2 -19 -2 -25 0 -7 3 -2 5 12 5 14 0 19 -2 13 -5z m-18 -34
c-6 -9 -85 -9 -85 0 0 4 20 8 44 7 25 0 43 -3 41 -7z m12 -41 c-3 -8 -6 -5 -6
6 -1 11 2 17 5 13 3 -3 4 -12 1 -19z m-9060 -30 c-3 -8 -6 -5 -6 6 -1 11 2 17
5 13 3 -3 4 -12 1 -19z m9050 -75 c-3 -10 -5 -2 -5 17 0 19 2 27 5 18 2 -10 2
-26 0 -35z m440 0 c-3 -10 -5 -2 -5 17 0 19 2 27 5 18 2 -10 2 -26 0 -35z
m-8800 0 c-3 -10 -5 -4 -5 12 0 17 2 24 5 18 2 -7 2 -21 0 -30z m-680 -60 c-2
-16 -4 -5 -4 22 0 28 2 40 4 28 2 -13 2 -35 0 -50z m9470 -80 c-2 -21 -4 -4
-4 37 0 41 2 58 4 38 2 -21 2 -55 0 -75z m-440 40 c-3 -10 -5 -2 -5 17 0 19 2
27 5 18 2 -10 2 -26 0 -35z m10 -125 c-2 -18 -4 -4 -4 32 0 36 2 50 4 33 2
-18 2 -48 0 -65z m-6520 6 c-3 -3 -12 -4 -19 -1 -8 3 -5 6 6 6 11 1 17 -2 13
-5z m-8 -61 c-22 -60 -63 -114 -84 -111 -23 3 -64 -23 -112 -70 -37 -38 -40
-50 -17 -94 12 -22 12 -28 2 -23 -7 5 -2 -2 10 -15 15 -14 20 -26 14 -32 -6
-6 -28 3 -62 26 -44 30 -61 36 -109 37 -89 2 -144 -2 -136 -9 5 -5 -14 -23
-40 -38 -10 -6 -21 -17 -24 -25 -3 -12 -1 -12 14 1 16 12 15 9 -3 -17 -24 -34
-30 -111 -13 -171 6 -18 6 -30 1 -27 -5 3 -12 0 -16 -7 -4 -7 -4 -10 1 -6 4 4
14 0 22 -10 10 -11 12 -12 8 -2 -4 8 3 5 14 -8 15 -17 29 -22 55 -20 20 1 41
-4 48 -11 11 -11 10 -12 -1 -6 -11 6 -13 4 -8 -7 3 -9 -3 -24 -14 -34 -10 -9
-17 -19 -15 -21 6 -6 -28 -41 -36 -36 -3 1 -4 -5 -1 -15 2 -10 -5 -28 -16 -41
-13 -15 -21 -38 -21 -61 0 -29 -6 -41 -30 -59 -17 -12 -35 -19 -40 -16 -6 4
-9 1 -8 -6 2 -7 -15 -20 -37 -28 -22 -9 -56 -28 -76 -43 -19 -15 -54 -34 -77
-42 -23 -9 -69 -31 -101 -50 -33 -19 -62 -32 -65 -29 -3 4 -6 2 -6 -4 0 -9
-35 -30 -54 -31 -5 0 -12 -4 -15 -10 -9 -14 -200 -122 -252 -142 l-46 -19 -61
132 c-128 279 -282 692 -282 758 0 15 -8 19 -32 20 -31 2 -31 2 -5 6 15 2 27
10 27 18 0 9 21 18 58 25 100 19 196 42 219 52 11 6 26 8 31 4 6 -3 12 -1 14
4 2 6 20 12 41 13 20 1 37 6 37 11 0 4 7 6 15 3 8 -4 17 -2 21 4 3 6 12 8 20
5 8 -3 14 0 14 5 0 6 9 9 20 6 11 -3 20 -2 20 3 0 14 242 65 266 56 8 -3 13
-2 10 3 -3 5 18 12 47 15 28 4 71 16 95 26 24 11 79 24 123 30 43 5 112 21
152 34 39 14 95 28 122 32 28 4 55 13 60 20 7 10 213 57 317 73 4 1 3 -11 -3
-26z m6518 -25 c-3 -7 -5 -2 -5 12 0 14 2 19 5 13 2 -7 2 -19 0 -25z m420 -40
c-3 -7 -5 -2 -5 12 0 14 2 19 5 13 2 -7 2 -19 0 -25z m-10 -60 c-3 -7 -5 -2
-5 12 0 14 2 19 5 13 2 -7 2 -19 0 -25z m-10 -65 c-3 -10 -5 -4 -5 12 0 17 2
24 5 18 2 -7 2 -21 0 -30z m-9370 -65 c-2 -13 -4 -5 -4 17 -1 22 1 32 4 23 2
-10 2 -28 0 -40z m9360 -5 c-3 -10 -5 -4 -5 12 0 17 2 24 5 18 2 -7 2 -21 0
-30z m-7054 -113 c-3 -11 -9 -20 -15 -20 -5 0 -4 9 2 20 6 11 12 20 14 20 2 0
2 -9 -1 -20z m4326 17 c-2 -1 -13 -9 -24 -17 -19 -14 -19 -14 -6 3 7 9 18 17
24 17 6 0 8 -1 6 -3z m2321 -31 c0 -2 -9 -6 -20 -9 -11 -3 -18 -1 -14 4 5 9
34 13 34 5z m-2023 -88 c-3 -8 -6 -5 -6 6 -1 11 2 17 5 13 3 -3 4 -12 1 -19z
m-1 -66 c-6 -5 -36 54 -36 70 0 7 9 -5 20 -27 11 -21 18 -40 16 -43z m1981 1
c-3 -10 -5 -2 -5 17 0 19 2 27 5 18 2 -10 2 -26 0 -35z m-8177 16 c21 -3 25
-10 26 -39 2 -34 1 -34 -3 -3 -3 25 -9 32 -30 35 -15 2 -28 10 -30 18 -3 10
-2 11 4 4 4 -7 19 -14 33 -15z m1555 -46 c3 -14 4 -28 1 -31 -11 -10 -86 19
-96 38 -18 33 -11 36 16 5 18 -21 21 -23 10 -5 -23 36 -20 39 23 28 30 -8 41
-16 46 -35z m4501 -50 c-7 -7 -26 7 -26 19 0 6 6 6 15 -2 9 -7 13 -15 11 -17z
m243 -18 c-7 -6 -13 -5 -19 5 -7 10 -10 11 -10 3 0 -23 2 -28 11 -25 5 1 9 -2
9 -7 0 -12 -29 -23 -41 -15 -5 3 -9 0 -9 -5 0 -6 5 -11 10 -11 6 0 10 -7 10
-15 0 -14 -12 -20 -33 -16 -5 1 -6 -3 -2 -9 3 -5 1 -10 -5 -10 -18 0 -22 28
-8 57 8 15 20 27 26 26 7 -2 11 0 10 5 -2 4 6 19 17 33 18 24 21 25 32 10 7
-10 8 -19 2 -26z m1779 28 c-10 -2 -26 -2 -35 0 -10 3 -2 5 17 5 19 0 27 -2
18 -5z m459 -15 c-3 -8 -6 -5 -6 6 -1 11 2 17 5 13 3 -3 4 -12 1 -19z m-2520
-10 c-3 -8 -6 -5 -6 6 -1 11 2 17 5 13 3 -3 4 -12 1 -19z m-5980 -30 c-3 -7
-5 -2 -5 12 0 14 2 19 5 13 2 -7 2 -19 0 -25z m1533 8 c0 -2 -8 -10 -17 -17
-16 -13 -17 -12 -4 4 13 16 21 21 21 13z m4481 -14 c-7 -2 -18 1 -23 6 -8 8
-4 9 13 5 13 -4 18 -8 10 -11z m-4534 -17 c0 -8 -4 -12 -9 -9 -5 3 -6 10 -3
15 9 13 12 11 12 -6z m7000 -47 c-3 -8 -6 -5 -6 6 -1 11 2 17 5 13 3 -3 4 -12
1 -19z m-2360 -28 c8 0 11 -5 7 -12 -5 -8 -2 -9 9 -5 11 4 20 -1 27 -13 5 -10
19 -22 30 -25 11 -4 18 -10 15 -15 -3 -5 3 -13 12 -19 10 -6 13 -11 8 -11 -6
0 -15 4 -20 9 -6 4 -22 11 -37 15 l-27 6 1 -95 c0 -53 -2 -99 -5 -102 -4 -3
-14 -3 -23 1 -13 5 -15 20 -12 96 1 50 2 90 1 90 -1 0 -10 3 -20 7 -16 6 -17
5 -3 -12 14 -17 14 -18 -10 -5 -17 9 -25 10 -28 1 -2 -6 -10 -11 -18 -11 -7 0
-11 6 -8 14 6 15 -19 17 -32 3 -4 -4 -10 -7 -14 -7 -10 0 -8 30 2 31 19 3 24
5 37 13 10 6 12 5 7 -2 -4 -7 -5 -12 -2 -12 2 0 12 -3 22 -7 13 -5 15 -3 9 7
-6 9 -4 11 6 5 20 -13 50 -14 46 -2 -2 6 -14 12 -27 14 -29 4 -40 13 -17 13
10 0 17 6 17 13 0 6 5 4 11 -5 9 -17 39 -25 39 -12 0 9 -41 44 -50 44 -5 0
-11 7 -14 16 -4 11 1 10 20 -5 15 -12 33 -21 41 -21z m-6760 -52 c-3 -8 -6 -5
-6 6 -1 11 2 17 5 13 3 -3 4 -12 1 -19z m9070 -60 c-2 -13 -4 -5 -4 17 -1 22
1 32 4 23 2 -10 2 -28 0 -40z m-2483 28 c-4 -11 2 -14 25 -11 17 2 31 -1 31
-6 0 -6 -4 -7 -10 -4 -5 3 -10 2 -10 -4 0 -7 -10 -6 -30 0 -16 6 -28 15 -25
19 3 5 -5 11 -17 13 -17 3 -15 5 9 6 24 1 31 -3 27 -13z m-4639 -26 c3 -6 -1
-7 -9 -4 -18 7 -21 14 -7 14 6 0 13 -4 16 -10z m218 -54 c15 -43 15 -45 -4
-43 -11 1 -17 7 -15 13 2 6 0 16 -6 22 -9 9 -3 52 7 52 2 0 10 -20 18 -44z
m4444 28 c-3 -3 -12 -4 -19 -1 -8 3 -5 6 6 6 11 1 17 -2 13 -5z m-4457 -79 c5
3 13 -9 18 -27 5 -21 18 -38 36 -46 15 -8 32 -24 37 -36 8 -16 20 -23 46 -24
28 -2 45 -12 74 -45 21 -23 36 -48 34 -54 -2 -7 -1 -12 4 -10 4 1 30 -14 56
-33 27 -19 53 -38 57 -41 11 -7 -11 -59 -25 -59 -9 0 -119 -98 -192 -170 -80
-80 -125 -129 -125 -136 -1 -5 -37 -38 -80 -73 -44 -36 -80 -72 -80 -80 0 -16
-77 -68 -93 -63 -5 1 -6 -2 -2 -8 3 -5 1 -10 -4 -10 -6 0 -26 -22 -43 -50 -18
-27 -41 -50 -50 -50 -10 0 -61 -45 -115 -100 l-98 -101 -95 112 c-135 159
-261 324 -366 479 -115 171 -137 213 -121 233 15 18 171 105 203 113 12 3 25
11 27 18 5 13 137 82 150 78 5 -1 6 2 3 7 -3 5 40 33 96 62 57 29 125 67 153
84 27 18 71 39 97 48 45 15 47 15 53 -3 6 -18 55 -57 55 -44 0 4 6 2 13 -4 6
-5 30 -10 52 -10 21 0 41 -5 43 -11 2 -6 19 -11 38 -11 21 0 33 4 29 10 -6 9
29 15 63 11 11 -2 17 34 13 79 -1 8 6 2 14 -13 9 -15 20 -25 25 -22z m-2083
-17 c-3 -7 -5 -2 -5 12 0 14 2 19 5 13 2 -7 2 -19 0 -25z m6523 -13 c0 -8 -2
-15 -4 -15 -2 0 -6 7 -10 15 -3 8 -1 15 4 15 6 0 10 -7 10 -15z m-38 -17 c-7
-7 -12 -8 -12 -2 0 14 12 26 19 19 2 -3 -1 -11 -7 -17z m25 -40 c-3 -7 -5 -2
-5 12 0 14 2 19 5 13 2 -7 2 -19 0 -25z m1940 -20 c-3 -8 -6 -5 -6 6 -1 11 2
17 5 13 3 -3 4 -12 1 -19z m-1577 -13 c14 -19 14 -19 -2 -6 -10 7 -18 18 -18
24 0 6 1 8 3 6 1 -2 9 -13 17 -24z m-6225 -16 c11 -16 1 -19 -13 -3 -7 8 -8
14 -3 14 5 0 13 -5 16 -11z m7752 -106 c-3 -10 -5 -4 -5 12 0 17 2 24 5 18 2
-7 2 -21 0 -30z m-7590 -159 c-3 -3 -12 -4 -19 -1 -8 3 -5 6 6 6 11 1 17 -2
13 -5z m7973 2 c0 -2 -8 -10 -17 -17 -16 -13 -17 -12 -4 4 13 16 21 21 21 13z
m-8019 -19 c-6 -8 -7 -18 -3 -22 4 -5 1 -5 -6 -1 -10 6 -10 11 -1 22 6 8 14
14 16 14 3 0 0 -6 -6 -13z m7986 -39 c-3 -8 -6 -5 -6 6 -1 11 2 17 5 13 3 -3
4 -12 1 -19z m-7880 -4 c-3 -3 -12 -4 -19 -1 -8 3 -5 6 6 6 11 1 17 -2 13 -5z
m7873 -43 c0 -21 -6 -30 -22 -34 -21 -5 -21 -5 -5 7 9 7 17 23 17 35 0 11 2
21 5 21 3 0 5 -13 5 -29z m-7960 3 c0 -2 -17 -4 -37 -3 -29 0 -33 2 -18 8 18
7 55 4 55 -5z m77 -56 c-3 -8 -6 -5 -6 6 -1 11 2 17 5 13 3 -3 4 -12 1 -19z
m2363 -129 c0 -15 -7 -19 -32 -19 -18 0 -46 -7 -61 -15 -16 -8 -25 -9 -21 -3
5 8 1 9 -10 5 -10 -4 -15 -3 -11 3 3 6 13 10 21 10 17 0 44 23 44 37 0 5 16 7
35 5 26 -3 35 -9 35 -23z m2330 -39 c0 -5 -4 -10 -10 -10 -5 0 -10 5 -10 10 0
6 5 10 10 10 6 0 10 -4 10 -10z m-2493 -82 c-3 -7 -5 -2 -5 12 0 14 2 19 5 13
2 -7 2 -19 0 -25z m263 -58 c0 -5 -7 -7 -15 -4 -8 4 -15 8 -15 10 0 2 7 4 15
4 8 0 15 -4 15 -10z m-2899 -27 c13 -16 12 -17 -3 -4 -10 7 -18 15 -18 17 0 8
8 3 21 -13z m970 -456 c-10 -9 -11 -8 -5 6 3 10 9 15 12 12 3 -3 0 -11 -7 -18z
m3 -60 c7 -6 6 -7 -4 -4 -8 2 -16 14 -17 28 -1 19 -1 20 4 4 3 -11 10 -24 17
-28z m6137 -220 c-10 -9 -11 -8 -5 6 3 10 9 15 12 12 3 -3 0 -11 -7 -18z
m-131 -80 c0 -2 -10 -12 -22 -23 l-23 -19 19 23 c18 21 26 27 26 19z m-140
-120 c0 -2 -10 -12 -22 -23 l-23 -19 19 23 c18 21 26 27 26 19z m-1363 -39
c-3 -7 -5 -2 -5 12 0 14 2 19 5 13 2 -7 2 -19 0 -25z m10 -55 c-3 -10 -5 -4
-5 12 0 17 2 24 5 18 2 -7 2 -21 0 -30z m1243 24 c0 -2 -10 -12 -22 -23 l-23
-19 19 23 c18 21 26 27 26 19z m-1233 -104 c-3 -10 -5 -2 -5 17 0 19 2 27 5
18 2 -10 2 -26 0 -35z m1135 5 c-8 -8 -9 -4 -5 13 4 13 8 18 11 10 2 -7 -1
-18 -6 -23z m521 -15 c-7 -2 -13 -13 -13 -24 0 -12 -7 -19 -17 -18 -11 0 -13
3 -5 6 6 2 12 13 12 24 0 12 7 19 18 18 10 0 12 -3 5 -6z m-1646 -95 c-2 -13
-4 -5 -4 17 -1 22 1 32 4 23 2 -10 2 -28 0 -40z m364 17 c3 2 6 -5 6 -17 1
-11 1 -19 0 -17 -1 2 -11 15 -22 29 -12 15 -14 20 -4 12 9 -6 18 -10 20 -7z
m1176 -37 c-3 -8 -6 -5 -6 6 -1 11 2 17 5 13 3 -3 4 -12 1 -19z m-84 -20 c5
-21 5 -21 -7 -5 -12 16 -36 24 -36 11 0 -3 5 -14 10 -25 6 -10 8 -19 6 -19
-10 0 -27 41 -21 50 11 19 43 10 48 -12z m-1070 -1 c3 -8 1 -20 -4 -28 -6 -10
-9 -7 -9 14 0 29 5 35 13 14z m-3573 -46 c0 -5 -7 -12 -16 -15 -14 -5 -15 -4
-4 9 14 17 20 19 20 6z m3197 -148 c-2 -32 -3 -8 -3 52 0 61 1 87 3 58 2 -29
2 -78 0 -110z m400 65 c-3 -8 -6 -5 -6 6 -1 11 2 17 5 13 3 -3 4 -12 1 -19z
m-3620 -35 c-3 -10 -5 -2 -5 17 0 19 2 27 5 18 2 -10 2 -26 0 -35z m3663 -3
c0 -16 -2 -30 -4 -30 -2 0 -6 14 -8 30 -3 17 -1 30 4 30 4 0 8 -13 8 -30z
m835 10 c-27 -12 -43 -12 -25 0 8 5 22 9 30 9 10 0 8 -3 -5 -9z m-868 -22 c-3
-8 -6 -5 -6 6 -1 11 2 17 5 13 3 -3 4 -12 1 -19z m796 -21 c-15 -19 -30 -32
-32 -30 -5 3 49 63 57 63 2 0 -9 -15 -25 -33z m-4433 9 c0 -2 -9 -6 -20 -9
-11 -3 -18 -1 -14 4 5 9 34 13 34 5z m-67 -43 c-4 -22 -2 -25 6 -13 6 8 11 10
11 4 0 -7 -8 -20 -17 -31 -10 -10 -15 -15 -12 -10 4 5 4 27 1 49 -3 27 -1 39
5 35 6 -4 8 -19 6 -34z m3780 -55 c-1 -35 -13 -70 -13 -38 0 7 -8 19 -17 26
-17 13 -17 14 0 8 13 -5 17 -1 17 18 0 13 -6 30 -12 37 -11 11 -9 11 7 1 15
-9 20 -21 18 -52z m-496 -65 c-2 -16 -4 -5 -4 22 0 28 2 40 4 28 2 -13 2 -35
0 -50z m-3946 30 c13 -17 13 -17 -6 -3 -11 8 -22 16 -24 17 -2 2 0 3 6 3 6 0
17 -8 24 -17z m646 -15 c-3 -7 -5 -2 -5 12 0 14 2 19 5 13 2 -7 2 -19 0 -25z
m3835 -63 c-8 -16 -9 -16 -15 -1 -4 10 -3 15 3 11 6 -3 10 -1 10 6 0 7 3 10 6
6 3 -3 2 -13 -4 -22z m-3885 -17 c-3 -7 -5 -2 -5 12 0 14 2 19 5 13 2 -7 2
-19 0 -25z m3340 -25 c-3 -10 -5 -2 -5 17 0 19 2 27 5 18 2 -10 2 -26 0 -35z
m-3772 27 c3 -6 -1 -7 -9 -4 -18 7 -21 14 -7 14 6 0 13 -4 16 -10z m4335 -36
c0 -8 7 -26 16 -39 12 -18 13 -28 4 -42 -9 -16 -10 -15 -4 6 4 14 2 21 -4 17
-5 -3 -12 7 -15 22 -3 15 -9 36 -13 46 -5 14 -4 17 4 12 7 -4 12 -14 12 -22z
m-3929 -64 c-4 -20 -10 -30 -14 -23 -4 6 -2 23 4 37 16 34 19 29 10 -14z
m3356 3 c-3 -10 -5 -4 -5 12 0 17 2 24 5 18 2 -7 2 -21 0 -30z m604 -50 c-12
-20 -14 -14 -5 12 4 9 9 14 11 11 3 -2 0 -13 -6 -23z m-3973 -8 c-3 -3 -9 2
-12 12 -6 14 -5 15 5 6 7 -7 10 -15 7 -18z m3359 3 c-3 -8 -6 -5 -6 6 -1 11 2
17 5 13 3 -3 4 -12 1 -19z m-3381 -69 c-9 -19 -14 -26 -11 -16 14 52 17 72 6
57 -12 -17 -14 -10 -4 16 6 16 7 16 16 -2 6 -14 3 -31 -7 -55z m3371 19 c-3
-8 -6 -5 -6 6 -1 11 2 17 5 13 3 -3 4 -12 1 -19z m-10 -50 c-3 -8 -6 -5 -6 6
-1 11 2 17 5 13 3 -3 4 -12 1 -19z m-20 -80 c-3 -8 -6 -5 -6 6 -1 11 2 17 5
13 3 -3 4 -12 1 -19z m-3500 -330 c-3 -8 -6 -5 -6 6 -1 11 2 17 5 13 3 -3 4
-12 1 -19z"/>
<path d="M5090 8536 c-6 -9 -10 -21 -8 -28 3 -8 9 -4 17 10 15 28 9 39 -9 18z"/>
<path d="M6310 7514 c0 -8 5 -12 10 -9 6 4 8 11 5 16 -9 14 -15 11 -15 -7z"/>
<path d="M5342 8473 c-58 -38 -81 -120 -50 -176 7 -12 13 -29 14 -37 3 -15 43
-49 59 -50 30 0 84 23 105 45 20 21 25 38 27 93 4 95 -1 109 -49 132 -53 26
-56 25 -106 -7z"/>
<path d="M4545 8217 c-19 -14 -19 -16 -2 -34 15 -18 18 -58 23 -414 3 -217 10
-408 15 -425 13 -42 56 -80 104 -93 75 -20 111 -12 128 29 4 12 6 11 6 -2 1
-10 8 -18 16 -18 14 0 14 3 2 28 -22 42 -27 100 -28 337 -1 188 1 226 15 253
9 18 24 32 34 32 14 0 15 2 2 10 -8 5 -12 11 -9 15 3 3 18 -6 32 -19 l26 -24
5 -214 c4 -238 13 -284 59 -306 15 -7 27 -18 27 -23 0 -7 27 -9 73 -6 56 3 82
10 112 29 58 37 94 79 102 118 l6 35 -53 -48 c-29 -26 -58 -46 -64 -44 -16 5
-26 83 -31 262 -5 159 -20 265 -37 265 -5 0 -7 4 -3 9 3 5 -10 25 -29 45 -28
31 -40 36 -77 36 -48 0 -95 -20 -92 -38 2 -7 -6 -12 -17 -12 -11 0 -20 -7 -20
-15 0 -8 -5 -15 -11 -15 -5 0 -7 -6 -3 -12 4 -7 4 -10 -1 -6 -4 4 -14 3 -22
-3 -7 -6 -13 -8 -13 -3 0 5 -4 3 -8 -4 -5 -7 -6 14 -4 47 3 36 0 61 -7 65 -6
4 -11 24 -11 45 0 50 -23 95 -57 111 -44 20 -164 25 -188 7z m478 -194 c-7 -2
-21 -2 -30 0 -10 3 -4 5 12 5 17 0 24 -2 18 -5z m-226 -480 c-2 -16 -4 -3 -4
27 0 30 2 43 4 28 2 -16 2 -40 0 -55z"/>
<path d="M5283 8124 c-3 -10 -1 -31 6 -48 8 -20 14 -123 18 -288 3 -142 10
-258 14 -258 5 0 15 -13 24 -30 19 -37 45 -51 96 -52 44 0 102 20 93 33 -3 5
4 9 15 9 11 0 32 11 47 25 15 14 30 25 33 25 14 0 62 72 68 102 l6 32 -38 -43
c-40 -44 -110 -86 -113 -67 -1 6 -4 110 -7 231 -4 121 -8 230 -11 243 -2 12
-21 40 -40 62 l-36 40 -84 0 c-69 0 -86 -3 -91 -16z m244 -346 c-2 -13 -4 -3
-4 22 0 25 2 35 4 23 2 -13 2 -33 0 -45z"/>
<path d="M4370 7850 c0 -5 -11 -10 -24 -10 -15 0 -26 -7 -29 -20 -4 -15 -13
-20 -39 -18 l-33 1 33 4 c18 3 32 10 32 18 0 10 -13 9 -62 -5 -33 -11 -66 -24
-72 -31 -8 -9 -7 -10 4 -4 11 6 10 3 -2 -12 -10 -11 -18 -23 -18 -26 0 -4 -9
-16 -20 -27 -15 -15 -20 -33 -20 -75 0 -30 -4 -55 -10 -55 -5 0 -10 -7 -10
-16 0 -36 -62 -290 -75 -311 -8 -12 -15 -37 -15 -55 -1 -41 -13 -63 -68 -122
-65 -71 -76 -63 -83 64 -4 58 -7 162 -8 231 -1 131 -15 191 -46 202 -8 4 -15
13 -15 21 0 7 -10 17 -22 21 -27 8 -128 12 -128 5 0 -3 -14 -5 -30 -6 -35 -1
-45 -8 -35 -24 5 -8 10 -6 18 5 9 12 12 -53 12 -272 0 -255 -3 -293 -19 -335
-19 -48 -35 -62 -61 -52 -16 7 -17 16 -19 309 l-1 150 -33 51 c-26 39 -43 54
-71 63 -50 14 -113 14 -148 -1 -39 -17 -38 -16 -20 -36 18 -20 22 -65 31 -374
4 -117 9 -154 23 -179 10 -17 24 -42 31 -55 19 -35 136 -45 177 -14 6 4 22 10
37 14 20 4 36 23 64 75 35 65 54 81 54 46 0 -20 64 -45 115 -45 47 0 105 17
105 31 0 5 4 8 9 6 17 -4 71 38 66 51 -3 7 -1 11 4 7 11 -6 47 37 57 67 6 20
7 20 33 -6 26 -27 96 -76 109 -76 4 -1 22 -33 41 -73 32 -65 35 -79 34 -155
-1 -47 -5 -94 -11 -106 -5 -11 -22 -51 -37 -89 -27 -67 -79 -158 -122 -213
l-22 -29 -2 55 -2 55 -7 -50 c-4 -32 -7 9 -8 114 l-1 164 -28 31 c-15 17 -20
24 -10 17 23 -18 22 0 -3 31 -29 38 -114 70 -199 76 -50 3 -72 1 -67 -6 3 -6
-1 -8 -12 -5 -11 2 -36 -3 -57 -11 -20 -9 -47 -16 -59 -16 -11 0 -39 -9 -61
-19 -47 -21 -137 -96 -127 -105 3 -4 -1 -4 -9 -1 -21 8 -104 -82 -130 -140
-22 -51 -39 -182 -22 -172 7 5 9 0 6 -13 -3 -11 -1 -26 5 -33 5 -6 13 -26 16
-43 10 -45 57 -91 101 -100 46 -8 164 0 190 13 11 6 33 15 49 19 36 11 44 30
17 39 -10 3 -36 19 -56 35 -21 17 -46 30 -56 30 -12 0 -19 7 -18 18 0 10 3 12
6 5 2 -7 9 -13 14 -13 5 0 3 13 -6 30 -8 16 -15 36 -15 45 0 9 -4 13 -10 10
-23 -14 2 171 31 224 22 42 25 68 6 55 -7 -5 -5 -2 5 8 10 9 18 21 18 28 0 6
4 8 10 5 5 -3 20 4 33 17 39 39 67 47 104 30 17 -8 37 -27 43 -41 9 -18 14
-136 19 -384 5 -311 8 -360 22 -370 9 -7 14 -17 12 -22 -5 -15 53 -75 71 -75
9 0 16 -5 16 -11 0 -6 8 -8 18 -5 9 3 47 6 84 7 85 3 94 8 75 45 -23 46 -30
90 -29 201 1 65 6 112 15 128 13 25 14 24 72 -77 33 -56 74 -118 90 -137 17
-19 23 -31 16 -26 -8 5 -5 -6 8 -23 12 -18 26 -30 31 -27 4 3 14 -3 21 -12 10
-12 10 -14 2 -9 -29 17 -10 -11 37 -56 53 -50 126 -92 143 -81 6 3 7 1 4 -4
-15 -23 99 -30 146 -9 18 7 47 19 65 26 46 18 83 70 90 125 2 25 9 45 13 45 5
0 9 11 9 25 0 16 -6 25 -16 25 -8 0 -13 -3 -11 -7 3 -5 -55 -8 -129 -8 -113 0
-135 3 -146 17 -7 9 -35 26 -61 37 -59 25 -130 72 -179 119 -23 22 -41 32 -50
27 -7 -5 -10 -4 -5 0 4 5 -12 29 -35 53 l-43 43 30 25 c17 14 63 48 103 75 39
27 72 54 72 59 0 5 17 19 38 31 43 25 90 84 117 149 11 25 25 51 32 58 19 19
16 119 -4 176 -22 62 -72 111 -135 134 -51 18 -58 26 -32 36 8 3 12 11 8 17
-4 8 -3 9 4 5 18 -11 136 86 140 115 2 13 10 28 18 32 10 6 14 27 14 72 0 69
-32 150 -91 232 -44 62 -57 135 -35 202 9 28 14 57 10 63 -4 7 -3 8 4 4 12 -7
35 27 25 38 -10 10 -43 7 -43 -4z m-247 -310 c-3 -11 -7 -20 -9 -20 -2 0 -4 9
-4 20 0 11 4 20 9 20 5 0 7 -9 4 -20z m47 -101 c0 -6 5 -7 12 -3 6 4 8 3 4 -4
-3 -6 1 -28 9 -50 11 -26 15 -62 13 -107 l-3 -68 -49 -14 c-27 -8 -58 -12 -70
-9 -20 5 -64 66 -48 66 5 0 23 58 42 128 l34 129 28 -29 c15 -16 28 -33 28
-39z m-693 -46 c-3 -10 -5 -2 -5 17 0 19 2 27 5 18 2 -10 2 -26 0 -35z m10
-70 c-3 -10 -5 -4 -5 12 0 17 2 24 5 18 2 -7 2 -21 0 -30z m10 -70 c-3 -10 -5
-4 -5 12 0 17 2 24 5 18 2 -7 2 -21 0 -30z m130 -125 c-3 -7 -5 -2 -5 12 0 14
2 19 5 13 2 -7 2 -19 0 -25z m671 -103 c-3 -3 -9 2 -12 12 -6 14 -5 15 5 6 7
-7 10 -15 7 -18z m-564 -14 c4 -5 -3 -7 -14 -4 -23 6 -26 13 -6 13 8 0 17 -4
20 -9z m-371 -408 c-3 -7 -6 -13 -8 -13 -2 0 -5 6 -8 13 -3 8 1 14 8 14 7 0
11 -6 8 -14z m394 -105 c-3 -7 -5 -2 -5 12 0 14 2 19 5 13 2 -7 2 -19 0 -25z
m0 -190 c-2 -35 -3 -9 -3 57 0 66 1 94 3 63 2 -32 2 -86 0 -120z m240 -280
c-3 -8 -6 -5 -6 6 -1 11 2 17 5 13 3 -3 4 -12 1 -19z m641 -15 c-10 -2 -26 -2
-35 0 -10 3 -2 5 17 5 19 0 27 -2 18 -5z"/>
<path d="M4189 7250 c-7 -35 -4 -48 7 -38 3 4 4 21 2 40 l-3 33 -6 -35z"/>
<path d="M4453 7775 c-34 -51 -32 -159 2 -197 13 -16 27 -28 30 -28 7 0 4 198
-4 232 l-6 27 -22 -34z"/>
<path d="M5223 7730 c0 -30 2 -43 4 -27 2 15 2 39 0 55 -2 15 -4 2 -4 -28z"/>
<path d="M2939 7743 c-1 -5 0 -19 0 -33 l2 -25 -113 0 c-104 0 -118 -2 -171
-28 -31 -16 -82 -52 -112 -81 -44 -42 -55 -58 -55 -84 0 -18 -4 -32 -10 -32
-5 0 -16 -13 -25 -30 -27 -52 -15 -223 15 -205 5 3 10 -2 10 -12 1 -27 27 -54
100 -103 57 -38 62 -40 40 -14 -18 21 -14 19 15 -8 22 -20 60 -49 85 -65 81
-51 121 -86 135 -119 15 -37 26 -134 15 -134 -4 0 -13 -13 -20 -30 -13 -31
-65 -70 -94 -70 -9 0 -16 -5 -16 -10 0 -6 -6 -7 -17 -1 -10 5 -30 14 -45 19
-65 26 -82 125 -35 205 15 25 37 53 49 61 l22 16 -22 20 c-12 12 -26 19 -31
15 -5 -3 -11 0 -13 6 -3 8 -25 8 -82 0 -87 -12 -116 -30 -161 -96 -23 -36 -26
-48 -23 -110 3 -55 9 -77 27 -102 13 -18 28 -30 33 -27 5 3 7 0 6 -8 -2 -7 5
-12 14 -12 10 1 15 -2 13 -7 -3 -4 8 -15 25 -24 25 -13 54 -15 137 -12 58 2
108 8 111 13 4 5 12 9 17 9 25 0 156 51 211 81 116 64 174 152 183 279 5 69 6
74 12 40 l6 -40 1 50 c2 57 -30 141 -49 129 -8 -4 -9 -3 -5 4 11 18 -51 78
-112 108 -32 15 -83 40 -114 56 -31 15 -70 28 -86 28 -40 0 -116 76 -130 129
-5 22 -6 39 -1 38 4 -1 17 14 27 32 10 19 36 44 56 54 33 17 42 18 79 7 65
-19 67 -22 67 -129 0 -53 4 -101 8 -107 20 -29 59 -44 114 -44 l58 0 0 104 c0
59 4 108 10 111 6 3 10 28 10 55 0 56 -32 104 -87 126 -35 15 -82 19 -84 7z
m218 -665 c-3 -8 -6 -5 -6 6 -1 11 2 17 5 13 3 -3 4 -12 1 -19z"/>
<path d="M5221 7654 c0 -11 3 -14 6 -6 3 7 2 16 -1 19 -3 4 -6 -2 -5 -13z"/>
<path d="M2800 7538 c-13 -13 -18 -15 -11 -5 9 12 10 17 2 17 -6 0 -17 -11
-23 -25 -12 -28 2 -75 23 -75 7 0 18 -8 25 -17 11 -16 13 -16 19 10 4 15 4 44
-1 65 -4 20 -7 40 -6 45 3 11 -2 9 -28 -15z m27 -60 c-3 -8 -6 -5 -6 6 -1 11
2 17 5 13 3 -3 4 -12 1 -19z"/>
<path d="M6667 7456 c-27 -7 -60 -22 -75 -32 -15 -11 -39 -25 -53 -32 -62 -32
-139 -122 -139 -162 0 -18 -6 -29 -18 -32 -15 -4 -21 -22 -30 -89 -15 -107
-16 -180 -1 -159 8 12 9 10 8 -10 -5 -50 25 -150 45 -150 7 0 8 -3 0 -8 -5 -4
-16 -22 -23 -40 -16 -40 -65 -82 -94 -82 -18 0 -19 -2 -7 -11 10 -7 11 -9 2
-7 -11 3 -14 44 -13 198 1 245 -12 308 -78 391 -33 41 -34 41 -88 37 -46 -4
-60 -10 -84 -36 -17 -18 -33 -32 -38 -32 -4 0 -25 -27 -46 -61 l-40 -60 -24
28 c-14 15 -29 27 -34 25 -4 -1 -6 2 -2 7 3 6 -3 15 -14 20 -29 16 -99 14
-108 -3 -4 -8 -17 -15 -27 -17 -10 -2 -24 -13 -30 -24 -6 -10 -21 -27 -32 -37
-17 -14 -50 -98 -39 -98 1 0 15 12 30 26 15 14 34 23 41 20 8 -3 14 -1 14 4 0
6 -6 10 -14 10 -8 0 -18 4 -21 10 -4 6 2 7 17 1 21 -7 24 -16 29 -102 4 -52 7
-150 8 -219 1 -143 11 -189 50 -232 24 -27 36 -32 90 -36 35 -3 61 0 61 5 0
10 6 11 54 14 22 1 23 4 13 33 -5 17 -14 34 -20 37 -5 4 -9 108 -10 240 -1
237 7 301 38 333 10 9 11 17 5 21 -5 3 -10 11 -10 16 0 6 14 -5 30 -23 l30
-32 0 -197 c0 -192 10 -267 33 -252 5 3 7 1 3 -5 -12 -19 27 -79 60 -91 42
-15 71 -14 124 6 69 25 102 62 68 76 -8 4 -7 6 4 6 9 1 18 -4 20 -10 2 -6 19
11 38 39 30 43 39 50 66 49 18 -1 30 -5 27 -9 -2 -5 0 -8 5 -8 5 0 20 -9 33
-21 21 -19 34 -21 114 -17 70 3 102 10 145 30 67 31 159 113 186 165 10 21 22
40 25 43 16 13 41 113 46 181 6 80 -12 209 -29 209 -5 0 -6 5 -3 10 4 6 -9 34
-28 63 -28 43 -44 56 -85 70 -67 25 -147 30 -205 13z m106 -3 l-23 -4 -3 -342
-2 -342 -3 348 -2 347 28 -1 c23 -2 24 -2 5 -6z m-64 -27 c16 -19 26 -332 16
-539 -8 -185 -16 -212 -59 -184 -21 14 -21 21 -26 371 -3 196 -4 356 -2 356 1
0 7 -10 11 -22 9 -23 9 -23 16 5 8 29 26 35 44 13z m-942 -272 c-3 -3 -12 -4
-19 -1 -8 3 -5 6 6 6 11 1 17 -2 13 -5z m600 -86 c-3 -7 -5 -2 -5 12 0 14 2
19 5 13 2 -7 2 -19 0 -25z m-450 -90 c-3 -7 -5 -2 -5 12 0 14 2 19 5 13 2 -7
2 -19 0 -25z m440 0 c-3 -8 -6 -5 -6 6 -1 11 2 17 5 13 3 -3 4 -12 1 -19z
m-100 -85 c-2 -16 -4 -5 -4 22 0 28 2 40 4 28 2 -13 2 -35 0 -50z m-220 -45
c-3 -8 -6 -5 -6 6 -1 11 2 17 5 13 3 -3 4 -12 1 -19z m723 -118 c5 0 11 8 13
18 4 13 5 11 6 -5 1 -17 -5 -23 -19 -23 -14 0 -20 6 -19 23 1 16 2 18 6 5 2
-10 8 -18 13 -18z"/>
<path d="M3160 7417 c0 -13 5 -38 11 -55 8 -25 8 -38 -4 -62 -14 -27 -14 -32
4 -52 19 -23 19 -22 16 81 -1 73 -6 106 -14 109 -8 2 -13 -6 -13 -21z"/>
<path d="M5384 7032 c2 -4 -10 -6 -29 -4 -43 5 -50 -8 -26 -55 16 -33 20 -69
26 -257 3 -121 8 -223 11 -227 8 -14 -23 -73 -54 -103 -17 -16 -30 -32 -28
-35 2 -3 -11 -7 -30 -8 l-34 -3 -1 73 c0 39 -4 146 -10 237 -5 91 -10 174 -10
185 0 29 -25 62 -61 81 -24 12 -49 15 -104 12 -74 -5 -124 -26 -90 -38 14 -5
17 -29 22 -165 7 -222 -7 -439 -31 -465 -24 -26 -52 -25 -60 1 -4 11 -8 116
-9 232 -1 193 -3 215 -21 247 -12 19 -35 43 -52 53 -40 23 -132 33 -161 18
-24 -13 -29 -50 -10 -69 9 -9 12 -78 13 -247 0 -188 3 -237 14 -244 9 -6 9
-10 2 -12 -19 -7 23 -71 60 -91 72 -41 195 3 249 89 16 25 31 51 33 57 3 7 14
3 28 -10 43 -38 69 -47 122 -40 70 10 103 29 176 104 57 59 65 64 76 49 25
-35 128 -48 192 -25 24 9 32 17 27 28 -13 32 -23 171 -24 350 -1 109 -5 175
-10 160 -7 -23 -8 -23 -9 -3 -1 12 4 25 9 28 15 9 12 35 -4 35 -8 0 -33 16
-56 35 -36 30 -49 35 -92 35 -27 0 -47 -4 -44 -8z m-546 -328 c-3 -27 -4 -26
-9 8 -3 22 -1 34 4 29 5 -5 7 -21 5 -37z m729 -6 c-2 -13 -4 -5 -4 17 -1 22 1
32 4 23 2 -10 2 -28 0 -40z m-720 -60 c-3 -7 -5 -2 -5 12 0 14 2 19 5 13 2 -7
2 -19 0 -25z m10 -85 c-3 -10 -5 -4 -5 12 0 17 2 24 5 18 2 -7 2 -21 0 -30z
m700 -25 c-3 -8 -6 -5 -6 6 -1 11 2 17 5 13 3 -3 4 -12 1 -19z m-711 -118 c8
0 14 -7 14 -15 0 -12 -3 -12 -20 2 -11 10 -20 22 -19 28 0 5 3 4 6 -2 2 -7 11
-13 19 -13z m141 -27 c-3 -10 -5 -2 -5 17 0 19 2 27 5 18 2 -10 2 -26 0 -35z
m-130 -60 c-3 -10 -5 -4 -5 12 0 17 2 24 5 18 2 -7 2 -21 0 -30z"/>
<path d="M3999 6981 c-13 -14 -37 -36 -54 -48 l-30 -21 72 -66 c75 -70 94
-105 109 -206 l7 -45 24 70 c42 126 26 271 -36 314 -44 31 -66 31 -92 2z"/>
<path d="M2714 6856 c-41 -41 -46 -86 -12 -110 30 -21 41 -20 72 9 20 19 26
33 26 68 0 74 -32 87 -86 33z"/>
<path d="M3597 6680 c-42 -49 -57 -98 -57 -181 0 -80 22 -126 76 -156 21 -13
42 -23 46 -23 4 0 7 83 8 184 0 140 -3 185 -12 189 -10 4 -10 6 0 6 20 2 14
21 -7 21 -11 0 -35 -18 -54 -40z m-30 -232 c-2 -18 -4 -4 -4 32 0 36 2 50 4
33 2 -18 2 -48 0 -65z m40 -58 c3 -10 2 -11 -4 -4 -4 6 -15 14 -23 17 -11 5
-9 6 4 4 11 -1 21 -9 23 -17z m53 -25 c0 -9 -9 -15 -22 -14 -17 1 -19 2 -5 6
9 2 17 9 17 14 0 5 2 9 5 9 3 0 5 -7 5 -15z"/>
<path d="M4535 6670 c-3 -5 -3 -10 0 -10 26 0 -213 -270 -247 -278 -19 -5 -78
-52 -78 -62 0 -21 146 -134 161 -124 4 2 11 -1 15 -7 4 -8 3 -9 -4 -5 -7 4
-12 5 -12 2 0 -12 81 -46 112 -47 27 0 29 -2 13 -8 -15 -6 -4 -12 49 -24 92
-21 116 -12 77 30 -39 42 -53 85 -60 187 l-6 101 -7 -65 c-3 -36 -5 22 -3 128
2 105 2 192 0 192 -2 0 -7 -4 -10 -10z m-94 -507 c13 -17 13 -17 -6 -3 -11 8
-22 16 -24 17 -2 2 0 3 6 3 6 0 17 -8 24 -17z"/>
<path d="M7495 7830 c3 -5 8 -10 11 -10 2 0 4 5 4 10 0 6 -5 10 -11 10 -5 0
-7 -4 -4 -10z"/>
<path d="M1896 5742 c-4 -13 -5 -26 -2 -29 10 -11 18 4 14 29 l-4 23 -8 -23z"/>
<path d="M7772 5000 c0 -14 2 -19 5 -12 2 6 2 18 0 25 -3 6 -5 1 -5 -13z"/>
<path d="M2170 5511 c0 -6 4 -13 10 -16 6 -3 7 1 4 9 -7 18 -14 21 -14 7z"/>
<path d="M2195 5380 c3 -5 8 -10 11 -10 2 0 4 5 4 10 0 6 -5 10 -11 10 -5 0
-7 -4 -4 -10z"/>
<path d="M2255 5330 c10 -11 20 -20 23 -20 3 0 -3 9 -13 20 -10 11 -20 20 -23
20 -3 0 3 -9 13 -20z"/>
<path d="M2310 5309 c0 -13 41 -48 57 -49 24 0 25 22 2 38 -29 20 -59 26 -59
11z m59 -32 c0 -9 -2 -8 -6 1 -2 6 -10 9 -15 6 -7 -4 -8 -2 -4 5 9 13 26 5 25
-12z"/>
<path d="M2140 5158 c0 -16 5 -28 10 -28 13 0 13 20 0 40 -8 12 -10 9 -10 -12z"/>
<path d="M2572 5408 c-16 -16 -15 -41 1 -35 6 2 11 9 10 15 -2 7 4 9 15 5 15
-6 15 -5 3 10 -16 20 -14 20 -29 5z"/>
<path d="M2279 5068 c11 -15 41 -15 41 -1 0 3 -6 3 -14 0 -7 -3 -20 0 -27 6
-11 10 -11 9 0 -5z"/>
<path d="M7340 5400 c0 -11 4 -20 9 -20 5 0 7 9 4 20 -3 11 -7 20 -9 20 -2 0
-4 -9 -4 -20z"/>
<path d="M6900 5100 c0 -6 7 -10 15 -10 8 0 15 2 15 4 0 2 -7 6 -15 10 -8 3
-15 1 -15 -4z"/>
<path d="M6992 4960 c0 -14 2 -19 5 -12 2 6 2 18 0 25 -3 6 -5 1 -5 -13z"/>
<path d="M7395 5131 c-3 -5 -2 -12 3 -15 5 -3 9 1 9 9 0 17 -3 19 -12 6z"/>
<path d="M5666 4959 c-6 -35 -9 -40 -26 -35 -60 18 -65 18 -32 -4 17 -12 32
-24 32 -27 0 -2 -12 -20 -26 -39 -33 -43 -20 -44 22 -3 l33 32 21 -34 c18 -28
21 -30 15 -9 -12 48 -10 54 25 67 l35 12 -45 0 -46 1 4 40 c5 52 -4 52 -12 -1z"/>
<path d="M7303 4738 c-13 -6 -23 -15 -23 -20 0 -5 11 -1 25 8 37 24 35 30 -2
12z"/>
<path d="M7158 4693 c7 -3 16 -2 19 1 4 3 -2 6 -13 5 -11 0 -14 -3 -6 -6z"/>
<path d="M7280 3510 c0 -13 11 -13 30 0 12 8 11 10 -7 10 -13 0 -23 -4 -23
-10z"/>
<path d="M7503 3320 c0 -25 2 -35 4 -22 2 12 2 32 0 45 -2 12 -4 2 -4 -23z"/>
<path d="M2320 3916 c0 -2 8 -10 18 -17 15 -13 16 -12 3 4 -13 16 -21 21 -21
13z"/>
<path d="M2058 3593 c7 -3 16 -2 19 1 4 3 -2 6 -13 5 -11 0 -14 -3 -6 -6z"/>
<path d="M2340 3671 c0 -6 4 -13 10 -16 6 -3 7 1 4 9 -7 18 -14 21 -14 7z"/>
<path d="M6997 3432 c-20 -21 -22 -32 -6 -32 5 0 7 5 3 12 -5 8 -2 9 12 4 10
-5 28 -10 39 -12 11 -2 7 1 -8 7 -18 7 -26 16 -23 25 7 19 2 18 -17 -4z"/>
<path d="M2096 3206 c3 -9 14 -17 23 -17 9 -1 28 -3 44 -5 15 -1 25 1 23 5 -3
4 -19 8 -36 9 -17 0 -38 6 -46 13 -12 10 -13 9 -8 -5z"/>
<path d="M5715 4053 c-16 -3 -64 -14 -105 -25 -41 -11 -95 -25 -120 -30 -25
-6 -51 -15 -59 -21 -7 -6 -41 -23 -75 -37 -35 -15 -88 -44 -120 -65 -67 -44
-156 -124 -139 -125 6 0 44 19 85 43 88 52 349 181 398 196 19 6 78 23 130 37
52 15 97 28 99 30 5 5 -52 3 -94 -3z"/>
<path d="M5615 3698 c-11 -6 -37 -27 -57 -46 -34 -33 -38 -41 -38 -87 0 -28 6
-58 13 -67 34 -43 155 -50 233 -14 66 31 94 67 94 120 -1 44 -11 62 -50 89
-29 20 -162 24 -195 5z"/>
<path d="M6571 3684 c0 -11 3 -14 6 -6 3 7 2 16 -1 19 -3 4 -6 -2 -5 -13z"/>
<path d="M6650 3560 c0 -5 14 -10 30 -10 17 0 30 5 30 10 0 6 -13 10 -30 10
-16 0 -30 -4 -30 -10z"/>
<path d="M4100 3533 c-135 -27 -341 -88 -390 -114 -33 -18 -59 -33 -57 -35 1
-2 47 12 102 31 144 49 228 63 425 71 96 4 195 10 220 14 l45 6 -40 13 c-41
13 -260 23 -305 14z"/>
<path d="M5212 3337 c-13 -14 -58 -50 -101 -80 -85 -62 -197 -104 -355 -134
l-90 -18 55 -17 c125 -39 347 -2 411 68 10 11 33 35 51 55 36 38 61 95 55 130
-3 20 -3 20 -26 -4z"/>
<path d="M4021 3199 c-82 -16 -161 -88 -161 -147 0 -70 62 -117 144 -109 93
10 118 19 162 62 38 36 44 47 44 84 0 23 -5 51 -10 62 -22 41 -104 63 -179 48z"/>
<path d="M5135 2666 c-11 -8 -94 -33 -184 -57 l-165 -43 54 -24 c29 -12 59
-21 67 -18 7 3 13 2 13 -3 0 -12 72 -31 117 -31 44 0 73 23 73 58 0 12 5 22
10 22 6 0 10 9 10 21 0 11 4 18 10 14 5 -3 18 12 29 35 17 36 18 40 3 39 -10
0 -26 -6 -37 -13z m-151 -124 c2 -4 -13 -6 -35 -4 -21 2 -39 6 -39 8 0 7 69 4
74 -4z"/>
<path d="M5373 2587 c-27 -40 -133 -225 -133 -233 0 -2 -9 -14 -20 -26 -11
-12 -19 -29 -18 -37 2 -9 -2 -15 -9 -14 -16 3 -66 -65 -57 -79 4 -7 3 -8 -4
-4 -8 5 -12 -2 -12 -18 0 -14 0 -29 -1 -33 0 -4 26 -14 58 -23 32 -9 73 -27
91 -40 32 -23 34 -24 46 -7 7 9 22 17 32 17 11 0 27 9 37 20 9 11 25 20 35 20
23 0 108 -79 114 -106 6 -24 -6 -26 -71 -13 -24 6 -63 7 -86 4 l-42 -7 20 -39
c10 -21 23 -39 28 -39 4 0 11 -17 14 -37 8 -51 42 -123 57 -123 10 0 10 -2 0
-8 -10 -7 -10 -18 0 -55 6 -25 15 -44 19 -41 4 2 7 -6 7 -19 0 -12 4 -56 10
-97 25 -167 7 -411 -43 -605 -14 -53 -22 -101 -19 -107 5 -7 2 -8 -6 -3 -10 6
-12 3 -7 -14 3 -13 3 -21 0 -18 -3 3 -16 -15 -30 -41 -14 -26 -42 -70 -64 -98
-21 -28 -39 -56 -39 -62 0 -9 35 -12 118 -12 195 0 176 -11 255 157 72 154 97
241 117 408 14 121 10 307 -7 312 -6 2 -14 -5 -18 -16 -10 -33 -35 -41 -89
-29 -55 12 -70 36 -60 98 5 29 13 41 33 49 33 14 80 17 104 6 17 -7 18 -4 12
41 -12 83 -52 195 -100 278 -25 44 -44 81 -42 83 2 1 38 -4 81 -12 98 -19 96
-19 96 6 0 25 -100 237 -166 353 -77 135 -188 296 -204 296 -8 -1 -25 -15 -37
-33z m40 -1964 c-7 -2 -21 -2 -30 0 -10 3 -4 5 12 5 17 0 24 -2 18 -5z"/>
<path d="M5805 2590 c-22 -24 -29 -53 -12 -47 10 3 42 67 34 67 -2 0 -12 -9
-22 -20z"/>
<path d="M3705 2550 c3 -5 8 -10 11 -10 2 0 4 5 4 10 0 6 -5 10 -11 10 -5 0
-7 -4 -4 -10z"/>
<path d="M3935 2547 c6 -14 -89 -112 -102 -104 -4 3 -14 -2 -22 -10 -12 -13
-11 -14 9 -8 19 6 22 4 18 -12 -3 -11 0 -20 6 -21 6 0 27 -4 47 -7 34 -7 39
-4 65 30 16 21 46 57 67 81 37 41 37 43 18 53 -29 16 -112 14 -106 -2z"/>
<path d="M3881 2521 c-7 -5 -11 -13 -8 -19 8 -12 -27 -44 -38 -35 -4 5 -5 2
-1 -5 6 -11 14 -8 35 12 15 15 28 33 28 41 0 8 -1 15 -1 15 -1 0 -7 -4 -15 -9z"/>
<path d="M4242 2518 c-7 -7 -12 -16 -12 -20 0 -5 -23 -40 -52 -79 -28 -39 -61
-94 -72 -122 -12 -29 -38 -81 -58 -117 -39 -70 -93 -208 -84 -217 3 -3 25 0
50 6 50 12 96 14 96 4 0 -4 -22 -50 -49 -102 -102 -201 -137 -361 -128 -595 4
-125 11 -170 36 -263 32 -121 84 -255 134 -344 39 -72 63 -81 204 -71 57 4
104 3 106 -1 1 -5 16 -7 32 -5 l29 3 -36 24 c-20 14 -46 42 -59 63 -13 21 -26
38 -30 38 -3 0 -12 18 -19 40 -8 24 -19 40 -29 40 -13 0 -14 2 -2 9 12 8 10
21 -13 82 -30 82 -68 284 -59 317 3 14 1 22 -7 22 -10 0 -11 27 -5 123 4 67 9
150 10 185 2 35 8 69 13 75 5 7 13 32 17 57 19 117 116 333 178 397 17 18 51
40 75 50 37 14 41 18 26 24 -13 5 -7 8 21 8 37 1 42 4 65 48 14 26 37 55 51
66 24 17 30 18 55 6 15 -8 42 -35 59 -61 l32 -46 68 68 c37 37 65 72 61 78 -3
5 -23 12 -45 16 -22 3 -47 9 -57 13 -13 5 -15 3 -9 -8 6 -10 3 -9 -11 2 -30
26 -222 118 -230 110 -4 -3 -4 -1 -1 5 8 14 -17 37 -28 26 -5 -4 -5 -2 -2 4 3
6 -7 21 -23 32 -26 20 -42 22 -158 22 -86 0 -132 -4 -140 -12z m223 -104 c6 0
11 -9 13 -21 2 -13 11 -23 20 -24 10 0 12 -3 5 -5 -7 -3 1 -17 23 -36 37 -33
39 -59 5 -88 -10 -9 -21 -32 -25 -52 -9 -51 -31 -67 -93 -65 -28 1 -46 5 -40
9 6 4 -12 10 -41 14 -28 3 -49 10 -46 15 3 5 1 9 -5 9 -12 0 3 55 21 78 11 13
10 15 -4 9 -10 -3 -20 -2 -23 3 -3 5 -11 7 -18 4 -18 -7 -9 66 11 89 8 9 27
17 42 17 15 0 35 10 46 21 25 28 54 38 79 29 11 -4 25 -7 30 -6z m75 -4 c0 -5
-2 -10 -4 -10 -3 0 -8 5 -11 10 -3 6 -1 10 4 10 6 0 11 -4 11 -10z m-382 -125
c-3 -3 -9 2 -12 12 -6 14 -5 15 5 6 7 -7 10 -15 7 -18z m-54 -670 c6 -10 21
-28 34 -38 22 -19 30 -57 11 -57 -5 0 -15 -13 -20 -29 -9 -27 -15 -30 -65 -33
-30 -1 -59 1 -65 7 -5 5 -9 37 -9 72 0 58 2 63 25 69 13 3 30 12 36 20 16 19
39 14 53 -11z"/>
<path d="M3777 2450 c-16 -10 -25 -20 -20 -23 4 -2 19 6 33 19 29 28 26 29
-13 4z"/>
<path d="M3710 2390 c0 -4 7 -7 15 -6 23 3 26 12 5 13 -11 1 -20 -2 -20 -7z"/>
<path d="M3777 2361 c-4 -17 -3 -21 5 -13 5 5 8 16 6 23 -3 8 -7 3 -11 -10z"/>
<path d="M3845 2370 c-3 -6 1 -7 9 -4 18 7 21 14 7 14 -6 0 -13 -4 -16 -10z"/>
<path d="M3875 2350 c27 -12 43 -12 25 0 -8 5 -22 9 -30 9 -10 0 -8 -3 5 -9z"/>
<path d="M3750 2309 c0 -5 5 -7 10 -4 6 3 10 8 10 11 0 2 -4 4 -10 4 -5 0 -10
-5 -10 -11z"/>
<path d="M5150 2021 c0 -6 9 -47 21 -93 25 -103 37 -390 20 -483 -13 -72 -49
-148 -94 -200 -29 -34 -39 -39 -89 -43 l-56 -4 -29 43 -28 43 -3 -32 c-4 -41
22 -192 55 -315 34 -127 83 -210 149 -255 56 -39 100 -39 141 -1 34 32 91 142
108 207 54 205 59 574 12 772 -34 145 -63 226 -100 284 -36 56 -107 107 -107
77z"/>
<path d="M4505 2003 c-54 -63 -74 -93 -80 -119 -4 -16 -20 -63 -35 -104 -39
-104 -52 -216 -57 -481 l-4 -226 31 -119 c53 -204 108 -294 179 -294 83 0 139
59 206 217 39 93 60 194 70 340 l6 88 -20 -42 c-23 -50 -45 -63 -103 -63 -39
0 -49 5 -89 48 -52 54 -61 72 -89 183 -30 117 -29 259 4 418 14 68 26 134 26
147 0 29 -23 32 -45 7z"/>
<path d="M3498 1593 c7 -3 16 -2 19 1 4 3 -2 6 -13 5 -11 0 -14 -3 -6 -6z"/>
<path d="M3540 1589 c0 -5 11 -9 25 -9 14 0 25 4 25 9 0 5 -11 9 -25 9 -14 0
-25 -4 -25 -9z"/>
<path d="M6150 1583 c0 -8 14 -14 33 -14 30 -2 30 -2 5 -6 -20 -3 -28 -10 -28
-24 0 -16 7 -19 40 -19 29 0 40 -4 40 -15 0 -22 145 -22 154 1 4 10 13 13 27
9 18 -6 20 -3 17 22 -3 28 -4 28 -73 31 -38 1 -81 5 -95 9 -22 6 -21 7 15 13
27 5 11 6 -47 6 -64 -1 -88 -4 -88 -13z"/>
<path d="M6330 1591 c0 -6 20 -11 47 -11 29 0 53 -6 65 -17 10 -9 18 -11 18
-6 0 19 -24 31 -77 38 -36 5 -53 3 -53 -4z"/>
<path d="M3208 1583 c18 -2 45 -2 60 0 15 2 0 4 -33 4 -33 0 -45 -2 -27 -4z"/>
<path d="M2518 618 c5 -5 16 -8 23 -6 8 3 3 7 -10 11 -17 4 -21 3 -13 -5z"/>
<path d="M3747 574 c-4 -4 -3 -12 2 -18 5 -6 11 -56 13 -111 3 -55 21 -175 39
-268 l33 -167 172 0 172 0 7 28 c5 25 10 28 35 24 18 -3 30 0 30 7 0 6 12 17
26 23 24 11 28 9 53 -20 14 -17 36 -33 48 -35 11 -2 28 -8 36 -15 11 -9 187
-12 739 -12 l725 0 18 78 c9 42 25 104 35 137 26 91 42 187 44 268 0 39 6 75
11 79 6 4 -12 8 -40 8 -66 0 -278 -42 -262 -52 6 -4 -18 -8 -54 -8 -59 0 -254
-16 -304 -25 -11 -2 -35 -4 -53 -4 -18 -1 -31 -4 -29 -8 3 -5 -56 -7 -130 -5
-75 2 -143 0 -152 -3 -21 -8 -273 -8 -343 1 -42 5 -62 3 -73 -6 -13 -11 -16
-11 -13 0 2 11 -23 17 -102 26 -243 27 -389 46 -460 62 -85 18 -212 27 -223
16z m2100 -30 c-3 -3 -12 -4 -19 -1 -8 3 -5 6 6 6 11 1 17 -2 13 -5z m-1670
-69 c0 -11 -4 -12 -14 -4 -7 6 -13 13 -13 15 0 2 6 4 13 4 8 0 14 -7 14 -15z
m1770 -7 c-3 -8 -6 -5 -6 6 -1 11 2 17 5 13 3 -3 4 -12 1 -19z m-1610 -14 c-3
-3 -12 -4 -19 -1 -8 3 -5 6 6 6 11 1 17 -2 13 -5z m150 -10 c-3 -3 -12 -4 -19
-1 -8 3 -5 6 6 6 11 1 17 -2 13 -5z m426 -13 c-3 -13 2 -23 15 -30 31 -17 35
-45 12 -90 l-20 -41 -65 0 c-63 0 -65 1 -65 25 0 14 -6 25 -12 25 -10 0 -10 2
0 9 7 4 12 20 10 36 -4 34 32 64 89 75 21 4 39 8 40 9 0 0 -1 -8 -4 -18z m744
-126 c1 -16 1 -16 -3 -2 -3 9 -12 17 -19 17 -22 0 7 -60 36 -76 33 -18 44 -17
28 4 -13 15 -12 16 3 3 10 -7 15 -18 12 -23 -4 -6 -1 -13 5 -17 16 -10 -3 -60
-29 -78 -13 -9 -20 -26 -20 -47 0 -44 -20 -60 -62 -51 -18 4 -63 7 -101 6 -47
-1 -68 2 -71 11 -11 35 -15 181 -6 198 7 12 26 22 50 26 25 4 46 15 57 31 15
20 25 23 68 21 41 -3 50 -6 52 -23z"/>
<path d="M5442 130 c0 -14 2 -19 5 -12 2 6 2 18 0 25 -3 6 -5 1 -5 -13z"/>
<path d="M5440 65 c0 -8 4 -15 10 -15 5 0 7 7 4 15 -4 8 -8 15 -10 15 -2 0 -4
-7 -4 -15z"/>
<path d="M4390 20 c0 -5 5 -10 11 -10 5 0 7 5 4 10 -3 6 -8 10 -11 10 -2 0 -4
-4 -4 -10z"/>
</g>
</svg>
